<svg xmlns="http://www.w3.org/2000/svg" xmlns:xlink="http://www.w3.org/1999/xlink" width="1366" zoomAndPan="magnify" viewBox="0 0 1024.5 576" height="768" preserveAspectRatio="xMidYMid meet" version="1.0"><defs><clipPath id="eea2b7b33d"><path d="M 907 45 L 972.878906 45 L 972.878906 163.992188 L 907 163.992188 Z M 907 45 " clip-rule="nonzero"/></clipPath></defs><g clip-path="url(#eea2b7b33d)"><path fill="#e4b272" d="M 958.625 49.101562 C 958.324219 52.199219 957.875 55.289062 957.199219 58.339844 C 956.582031 61.109375 955.863281 63.859375 955.210938 66.625 C 954.996094 67.542969 954.863281 68.480469 954.671875 69.40625 C 954.484375 70.324219 954.660156 71.167969 955.007812 72.019531 C 957.15625 77.222656 959.988281 82.003906 963.851562 86.121094 C 968.230469 90.777344 971.039062 96.246094 971.921875 102.527344 C 972.515625 106.757812 972.855469 111.070312 971.960938 115.347656 C 971.214844 118.933594 969.304688 121.941406 967.339844 124.9375 C 966.941406 125.542969 966.445312 126.085938 966.097656 126.714844 C 963.839844 130.777344 960.328125 133.394531 956.296875 135.523438 C 953.542969 136.972656 950.554688 137.683594 947.683594 138.746094 C 945.375 139.597656 943.074219 140.457031 940.753906 141.265625 C 938.8125 141.941406 937.777344 143.546875 936.726562 145.132812 C 936.050781 146.15625 935.492188 147.253906 934.839844 148.285156 C 933.839844 149.871094 933.40625 151.664062 932.882812 153.429688 C 932.105469 156.046875 931.324219 158.664062 930.539062 161.28125 C 930.332031 161.984375 930.039062 162.640625 929.476562 163.148438 C 928.917969 163.664062 928.289062 164.007812 927.507812 163.730469 C 926.75 163.464844 926.3125 162.882812 926.199219 162.125 C 926.074219 161.292969 926.152344 160.460938 926.289062 159.625 C 926.914062 155.835938 927.890625 152.101562 928.304688 148.277344 C 928.808594 143.644531 927.917969 139.253906 925.605469 135.234375 C 924.199219 132.785156 921.863281 131.117188 919.675781 129.386719 C 917.621094 127.761719 915.414062 126.296875 913.902344 124.089844 C 909.898438 118.207031 906.925781 111.859375 907.15625 104.640625 C 907.351562 98.464844 909.03125 92.542969 912.289062 87.160156 C 913.503906 85.160156 914.636719 83.105469 916.3125 81.425781 C 920.472656 77.238281 925.570312 74.898438 931.308594 73.804688 C 933.503906 73.386719 935.699219 72.980469 937.886719 72.554688 C 940.097656 72.128906 941.984375 71.109375 943.507812 69.449219 C 943.734375 69.207031 943.96875 68.960938 944.222656 68.746094 C 947.066406 66.335938 948.164062 63.042969 948.96875 59.570312 C 949.925781 55.429688 951.113281 51.367188 953.316406 47.683594 C 953.660156 47.113281 954.050781 46.546875 954.535156 46.09375 C 955.867188 44.824219 957.636719 45.234375 958.300781 46.953125 C 958.566406 47.628906 958.722656 48.347656 958.628906 49.085938 Z M 958.625 49.101562 " fill-opacity="1" fill-rule="nonzero"/></g><path fill="#131313" d="M 944.683594 76.761719 C 939.734375 96.21875 935.183594 115.390625 931.289062 134.769531 C 931.042969 134.648438 930.972656 134.636719 930.960938 134.601562 C 929.226562 130.386719 926.136719 127.238281 922.664062 124.496094 C 916.71875 119.804688 914.460938 113.289062 913.167969 106.242188 C 912.988281 105.25 913.167969 104.238281 913.300781 103.238281 C 914.019531 97.671875 915.851562 92.527344 919.035156 87.867188 C 921.738281 83.902344 925.683594 81.859375 930.113281 80.539062 C 931.070312 80.253906 932.070312 80.085938 933.066406 79.902344 C 936.902344 79.207031 940.832031 78.890625 944.691406 76.769531 Z M 944.683594 76.761719 " fill-opacity="1" fill-rule="nonzero"/><path fill="#131313" d="M 951.84375 81.472656 C 951.933594 81.53125 952.074219 81.566406 952.113281 81.648438 C 953.863281 85.4375 956.40625 88.691406 959.0625 91.863281 C 960.476562 93.554688 961.585938 95.402344 962.285156 97.496094 C 962.515625 98.179688 962.761719 98.871094 963.078125 99.519531 C 965.328125 104.140625 965.574219 109.085938 965.363281 114.078125 C 965.214844 117.460938 963.878906 120.457031 961.636719 123.023438 C 960.753906 124.035156 959.867188 125.035156 958.992188 126.050781 C 955.632812 129.980469 951.324219 132.285156 946.328125 133.371094 C 943.976562 133.882812 941.671875 134.550781 939.382812 135.285156 C 939.015625 135.402344 938.644531 135.550781 938.238281 135.464844 C 938.195312 135.429688 938.148438 135.394531 938.113281 135.355469 C 938.085938 135.3125 938.042969 135.257812 938.054688 135.214844 C 942.894531 117.566406 947.417969 99.839844 951.542969 82.019531 C 951.589844 81.816406 951.613281 81.59375 951.84375 81.480469 Z M 951.84375 81.472656 " fill-opacity="1" fill-rule="nonzero"/><path fill="#fefdfc" d="M 936.574219 125.464844 C 936.511719 124.511719 936.707031 123.609375 936.980469 122.777344 C 938.382812 118.417969 939.183594 113.917969 940.210938 109.464844 C 940.558594 107.9375 941.097656 106.46875 941.636719 105.003906 C 941.734375 104.746094 941.839844 104.480469 941.976562 104.246094 C 942.214844 103.839844 942.539062 103.492188 943.054688 103.707031 C 943.480469 103.882812 943.535156 104.292969 943.46875 104.707031 C 943.433594 104.921875 943.363281 105.136719 943.292969 105.347656 C 942.160156 108.976562 941.710938 112.75 940.894531 116.441406 C 940.230469 119.429688 939.40625 122.386719 938.644531 125.355469 C 938.515625 125.835938 938.34375 126.316406 938.132812 126.769531 C 937.957031 127.140625 937.652344 127.40625 937.1875 127.292969 C 936.734375 127.191406 936.59375 126.828125 936.582031 126.40625 C 936.566406 126.074219 936.582031 125.738281 936.582031 125.457031 Z M 936.574219 125.464844 " fill-opacity="1" fill-rule="nonzero"/><path fill="#fffefd" d="M 971.453125 108.660156 C 971.4375 109.289062 971.554688 110.078125 971.289062 110.832031 C 971.058594 111.488281 970.71875 112.054688 969.894531 112.046875 C 969.128906 112.039062 968.878906 111.503906 968.664062 110.886719 C 968.496094 110.40625 968.410156 109.917969 968.402344 109.414062 C 968.367188 106.296875 967.964844 103.21875 967.300781 100.167969 C 967.242188 99.898438 967.160156 99.617188 967.179688 99.351562 C 967.234375 98.683594 967.867188 98.410156 968.375 98.871094 C 968.914062 99.359375 969.269531 100 969.613281 100.636719 C 970.941406 103.09375 971.390625 105.757812 971.445312 108.65625 Z M 971.453125 108.660156 " fill-opacity="1" fill-rule="nonzero"/><path fill="#fefdfb" d="M 954.050781 62.765625 C 953.835938 65.25 953.421875 67.710938 952.722656 70.121094 C 952.582031 70.59375 952.332031 71.042969 952.074219 71.464844 C 951.871094 71.792969 951.5625 72.121094 951.113281 71.960938 C 950.703125 71.816406 950.613281 71.425781 950.570312 71.011719 C 950.429688 69.597656 950.863281 68.25 951.074219 66.882812 C 951.332031 65.179688 951.765625 63.511719 952.136719 61.828125 C 952.207031 61.507812 952.3125 61.179688 952.449219 60.886719 C 952.605469 60.566406 952.898438 60.390625 953.269531 60.433594 C 953.652344 60.476562 953.871094 60.746094 953.925781 61.089844 C 954.003906 61.632812 954.015625 62.191406 954.050781 62.773438 Z M 954.050781 62.765625 " fill-opacity="1" fill-rule="nonzero"/><path fill="#fcf8f3" d="M 920.292969 81.089844 C 920.390625 81.640625 920.070312 82.058594 919.710938 82.386719 C 917.34375 84.605469 916.015625 87.515625 914.390625 90.238281 C 913.992188 90.910156 913.566406 91.558594 913.121094 92.199219 C 913.042969 92.3125 912.832031 92.382812 912.691406 92.375 C 912.40625 92.359375 912.359375 92.089844 912.371094 91.878906 C 912.390625 91.550781 912.421875 91.203125 912.539062 90.902344 C 913.714844 87.875 915.273438 85.054688 917.335938 82.535156 C 917.910156 81.835938 918.628906 81.304688 919.496094 81.007812 C 919.769531 80.914062 920.035156 80.878906 920.292969 81.089844 Z M 920.292969 81.089844 " fill-opacity="1" fill-rule="nonzero"/><path fill="#fefbf8" d="M 908.6875 109.414062 C 908.6875 109.347656 908.652344 109.117188 908.6875 108.898438 C 908.835938 108.074219 909.378906 107.839844 909.960938 108.390625 C 910.734375 109.121094 911.324219 110.023438 911.628906 111.054688 C 911.882812 111.898438 911.539062 112.679688 910.882812 112.875 C 910.058594 113.121094 909.652344 112.535156 909.300781 111.957031 C 908.863281 111.230469 908.617188 110.433594 908.679688 109.414062 Z M 908.6875 109.414062 " fill-opacity="1" fill-rule="nonzero"/><path fill="#fdfaf6" d="M 957.839844 132.492188 C 957.09375 132.492188 956.632812 132.082031 956.636719 131.417969 C 956.636719 130.65625 957.6875 129.804688 958.660156 129.777344 C 959.324219 129.757812 959.714844 130.066406 959.734375 130.75 C 959.757812 131.59375 958.761719 132.492188 957.839844 132.492188 Z M 957.839844 132.492188 " fill-opacity="1" fill-rule="nonzero"/><path fill="#fbf6ec" d="M 932.503906 150.519531 C 932.503906 151.335938 932.148438 152.019531 931.738281 152.6875 C 931.589844 152.925781 931.378906 153.136719 931.058594 153.066406 C 930.679688 152.980469 930.511719 152.703125 930.484375 152.347656 C 930.414062 151.558594 930.484375 150.785156 930.90625 150.09375 C 931.164062 149.667969 931.441406 149.152344 932.050781 149.375 C 932.554688 149.554688 932.519531 150.070312 932.511719 150.527344 Z M 932.503906 150.519531 " fill-opacity="1" fill-rule="nonzero"/><path fill="#f8f1e1" d="M 936.089844 134.246094 C 935.859375 134.832031 936.023438 135.558594 935.628906 136.144531 C 935.378906 136.511719 935.09375 136.925781 934.5625 136.714844 C 934.085938 136.535156 934.148438 136.058594 934.238281 135.703125 C 934.40625 135.0625 934.664062 134.441406 934.910156 133.820312 C 935.035156 133.5 935.246094 133.171875 935.636719 133.269531 C 936.089844 133.378906 936.167969 133.785156 936.097656 134.246094 Z M 936.089844 134.246094 " fill-opacity="1" fill-rule="nonzero"/><path fill="#f9f9f9" d="M 928.304688 87.566406 C 928.925781 87.566406 929.367188 87.671875 929.582031 88.132812 C 929.773438 88.550781 929.511719 88.886719 929.234375 89.164062 C 927.714844 90.71875 926.199219 92.285156 924.453125 93.589844 C 924.03125 93.902344 923.5625 94.152344 923.074219 93.824219 C 922.578125 93.492188 922.597656 92.9375 922.796875 92.464844 C 923.746094 90.121094 925.394531 88.480469 927.800781 87.636719 C 928.003906 87.566406 928.242188 87.574219 928.3125 87.558594 Z M 928.304688 87.566406 " fill-opacity="1" fill-rule="nonzero"/><path fill="#dbdbdb" d="M 923.269531 117.851562 C 923.269531 118.160156 923.039062 118.4375 922.570312 118.425781 C 921.976562 118.402344 921.3125 117.613281 921.269531 116.902344 C 921.242188 116.394531 921.433594 116.015625 921.976562 115.976562 C 922.507812 115.933594 923.25 116.960938 923.269531 117.851562 Z M 923.269531 117.851562 " fill-opacity="1" fill-rule="nonzero"/><path fill="#e2e2e2" d="M 954.972656 122.652344 C 954.777344 121.789062 955.164062 121.265625 955.464844 120.785156 C 957.226562 117.984375 957.945312 114.824219 958.691406 111.675781 C 959.34375 108.949219 959.265625 106.261719 958.121094 103.636719 C 957.847656 103.007812 957.511719 102.351562 957.519531 101.566406 C 958.300781 101.621094 958.46875 102.226562 958.75 102.667969 C 960.308594 105.136719 960.664062 107.894531 960.421875 110.71875 C 960.148438 113.867188 959.175781 116.839844 957.644531 119.605469 C 957.007812 120.75 956.21875 121.800781 954.96875 122.652344 Z M 954.972656 122.652344 " fill-opacity="1" fill-rule="nonzero"/><path fill="#d4d4d4" d="M 946.480469 129.074219 C 945.941406 129.054688 945.605469 128.753906 945.613281 128.152344 C 945.613281 127.53125 946.523438 126.777344 947.257812 126.769531 C 947.722656 126.765625 947.976562 127.007812 947.96875 127.484375 C 947.960938 128.207031 947.1875 129.058594 946.480469 129.082031 Z M 946.480469 129.074219 " fill-opacity="1" fill-rule="nonzero"/></svg>