<svg xmlns="http://www.w3.org/2000/svg" xmlns:xlink="http://www.w3.org/1999/xlink" width="500" zoomAndPan="magnify" viewBox="0 0 375 374.999991" height="500" preserveAspectRatio="xMidYMid meet" version="1.0"><defs><filter x="0%" y="0%" width="100%" height="100%" id="ecd6a1d5c7"><feColorMatrix values="0 0 0 0 1 0 0 0 0 1 0 0 0 0 1 0 0 0 1 0" color-interpolation-filters="sRGB"/></filter><g/><clipPath id="484be05250"><path d="M 204.605469 141.058594 L 260 141.058594 L 260 224 L 204.605469 224 Z M 204.605469 141.058594 " clip-rule="nonzero"/></clipPath><mask id="faa419eaca"><g filter="url(#ecd6a1d5c7)"><rect x="-37.5" width="450" fill="#000000" y="-37.499999" height="449.999989" fill-opacity="0.2"/></g></mask><clipPath id="44574f0b46"><path d="M 0.320312 0 L 39.921875 0 L 39.921875 65 L 0.320312 65 Z M 0.320312 0 " clip-rule="nonzero"/></clipPath><clipPath id="322b5f667b"><rect x="0" width="40" y="0" height="66"/></clipPath><mask id="b1a780b732"><g filter="url(#ecd6a1d5c7)"><rect x="-37.5" width="450" fill="#000000" y="-37.499999" height="449.999989" fill-opacity="0.2"/></g></mask><clipPath id="1ec8a3493f"><path d="M 1 0.121094 L 60 0.121094 L 60 10.921875 L 1 10.921875 Z M 1 0.121094 " clip-rule="nonzero"/></clipPath><clipPath id="5f83000bf8"><rect x="0" width="60" y="0" height="11"/></clipPath><clipPath id="db527bacb9"><path d="M 215 145 L 374.855469 145 L 374.855469 219 L 215 219 Z M 215 145 " clip-rule="nonzero"/></clipPath><clipPath id="2d13fc7991"><path d="M 215 156 L 374.855469 156 L 374.855469 208 L 215 208 Z M 215 156 " clip-rule="nonzero"/></clipPath><clipPath id="fb82da2018"><path d="M 215 162 L 374.855469 162 L 374.855469 202 L 215 202 Z M 215 162 " clip-rule="nonzero"/></clipPath><mask id="8e29b1568b"><g filter="url(#ecd6a1d5c7)"><rect x="-37.5" width="450" fill="#000000" y="-37.499999" height="449.999989" fill-opacity="0.15"/></g></mask><clipPath id="379dd9cbee"><path d="M 0.398438 1 L 120.640625 1 L 120.640625 28.640625 L 0.398438 28.640625 Z M 0.398438 1 " clip-rule="nonzero"/></clipPath><clipPath id="4a21456db8"><rect x="0" width="121" y="0" height="29"/></clipPath><clipPath id="b2c9b825df"><path d="M 214 174 L 374.855469 174 L 374.855469 220 L 214 220 Z M 214 174 " clip-rule="nonzero"/></clipPath><mask id="eb804df833"><g filter="url(#ecd6a1d5c7)"><rect x="-37.5" width="450" fill="#000000" y="-37.499999" height="449.999989" fill-opacity="0.2"/></g></mask><clipPath id="4182aecd1e"><path d="M 0.800781 0.238281 L 160.855469 0.238281 L 160.855469 45 L 0.800781 45 Z M 0.800781 0.238281 " clip-rule="nonzero"/></clipPath><clipPath id="abab6332e1"><rect x="0" width="161" y="0" height="46"/></clipPath><clipPath id="c811f21a56"><path d="M 4.464844 167.347656 L 137.03125 167.347656 L 137.03125 198.65625 L 4.464844 198.65625 Z M 4.464844 167.347656 " clip-rule="nonzero"/></clipPath><clipPath id="f84607d835"><path d="M 137.03125 198.65625 L 4.582031 198.65625 L 13.339844 183 L 4.582031 167.347656 L 137.03125 167.347656 Z M 137.03125 198.65625 " clip-rule="nonzero"/></clipPath><clipPath id="dd4e194016"><path d="M 4.28125 167.347656 L 137.019531 167.347656 L 137.019531 198.847656 L 4.28125 198.847656 Z M 4.28125 167.347656 " clip-rule="nonzero"/></clipPath><clipPath id="0a5b9dfec1"><path d="M 137.019531 198.648438 L 4.597656 198.648438 L 13.355469 182.996094 L 4.597656 167.347656 L 137.019531 167.347656 Z M 137.019531 198.648438 " clip-rule="nonzero"/></clipPath></defs><path stroke-linecap="butt" transform="matrix(0.75, -0.000000000000000186, 0.000000000000000186, 0.75, 137.0379, 182.249988)" fill="none" stroke-linejoin="miter" d="M 0.0015496 1.000016 L 131.209892 1.000016 " stroke="#5271ff" stroke-width="2" stroke-opacity="1" stroke-miterlimit="4"/><path fill="#2f1166" d="M 333.582031 213.484375 L 337.859375 225.253906 C 338.652344 227.449219 337.519531 229.871094 335.363281 230.664062 C 334.90625 230.816406 334.417969 230.929688 333.925781 230.929688 L 269.9375 230.929688 C 268.800781 230.929688 267.855469 229.984375 267.855469 228.847656 C 267.855469 228.207031 268.15625 227.601562 268.648438 227.222656 L 282.535156 216.285156 Z M 333.582031 213.484375 " fill-opacity="1" fill-rule="nonzero"/><g clip-path="url(#484be05250)"><path fill="#2f1166" d="M 259.871094 158.730469 L 226.230469 142.195312 L 205.078125 141.058594 L 229.710938 173.449219 C 250.257812 164.972656 259.871094 158.730469 259.871094 158.730469 Z M 259.71875 205.804688 L 225.964844 222.113281 L 204.773438 223.097656 L 229.636719 190.855469 C 250.144531 199.445312 259.71875 205.804688 259.71875 205.804688 Z M 259.71875 205.804688 " fill-opacity="1" fill-rule="nonzero"/></g><g mask="url(#faa419eaca)"><g transform="matrix(1, 0, 0, 1, 220, 150)"><g clip-path="url(#322b5f667b)"><g clip-path="url(#44574f0b46)"><path fill="#000000" d="M 22.84375 0.367188 C 16.144531 3.433594 7.628906 7.519531 0.707031 11.644531 L 9.671875 23.449219 C 30.222656 14.972656 39.832031 8.730469 39.832031 8.730469 Z M 9.636719 40.855469 L 0.628906 52.550781 C 6.230469 56.9375 13.382812 61.746094 21.0625 64.808594 L 39.71875 55.804688 C 39.71875 55.804688 30.144531 49.445312 9.636719 40.855469 Z M 9.636719 40.855469 " fill-opacity="1" fill-rule="nonzero"/></g></g></g></g><path fill="#5271ff" d="M 281.742188 221.054688 C 281.210938 221.054688 280.757812 221.507812 280.757812 222.039062 L 280.757812 225.519531 C 280.757812 226.046875 281.210938 226.503906 281.742188 226.503906 L 284.464844 226.503906 C 284.996094 226.503906 285.449219 226.046875 285.449219 225.519531 L 285.449219 222.039062 C 285.449219 221.507812 284.996094 221.054688 284.464844 221.054688 Z M 288.476562 221.054688 C 287.949219 221.054688 287.492188 221.507812 287.492188 222.039062 L 287.492188 225.519531 C 287.492188 226.046875 287.949219 226.503906 288.476562 226.503906 L 291.203125 226.503906 C 291.730469 226.503906 292.1875 226.046875 292.1875 225.519531 L 292.1875 222.039062 C 292.1875 221.507812 291.730469 221.054688 291.203125 221.054688 Z M 295.175781 221.054688 C 294.644531 221.054688 294.191406 221.507812 294.191406 222.039062 L 294.191406 225.519531 C 294.191406 226.046875 294.644531 226.503906 295.175781 226.503906 L 297.898438 226.503906 C 298.429688 226.503906 298.882812 226.046875 298.882812 225.519531 L 298.882812 222.039062 C 298.882812 221.507812 298.429688 221.054688 297.898438 221.054688 Z M 301.910156 221.054688 C 301.382812 221.054688 300.925781 221.507812 300.925781 222.039062 L 300.925781 225.519531 C 300.925781 226.046875 301.382812 226.503906 301.910156 226.503906 L 304.636719 226.503906 C 305.164062 226.503906 305.621094 226.046875 305.621094 225.519531 L 305.621094 222.039062 C 305.621094 221.507812 305.164062 221.054688 304.636719 221.054688 Z M 308.609375 221.054688 C 308.078125 221.054688 307.625 221.507812 307.625 222.039062 L 307.625 225.519531 C 307.625 226.046875 308.078125 226.503906 308.609375 226.503906 L 311.332031 226.503906 C 311.863281 226.503906 312.316406 226.046875 312.316406 225.519531 L 312.316406 222.039062 C 312.316406 221.507812 311.863281 221.054688 311.332031 221.054688 Z M 315.34375 221.054688 C 314.816406 221.054688 314.359375 221.507812 314.359375 222.039062 L 314.359375 225.519531 C 314.359375 226.046875 314.816406 226.503906 315.34375 226.503906 L 318.070312 226.503906 C 318.597656 226.503906 319.054688 226.046875 319.054688 225.519531 L 319.054688 222.039062 C 319.054688 221.507812 318.597656 221.054688 318.070312 221.054688 Z M 322.042969 221.054688 C 321.511719 221.054688 321.058594 221.507812 321.058594 222.039062 L 321.058594 225.519531 C 321.058594 226.046875 321.511719 226.503906 322.042969 226.503906 L 324.765625 226.503906 C 325.296875 226.503906 325.75 226.046875 325.75 225.519531 L 325.75 222.039062 C 325.75 221.507812 325.296875 221.054688 324.765625 221.054688 Z M 328.777344 221.054688 C 328.25 221.054688 327.792969 221.507812 327.792969 222.039062 L 327.792969 225.519531 C 327.792969 226.046875 328.25 226.503906 328.777344 226.503906 L 331.503906 226.503906 C 332.03125 226.503906 332.484375 226.046875 332.484375 225.519531 L 332.484375 222.039062 C 332.484375 221.507812 332.03125 221.054688 331.503906 221.054688 Z M 328.777344 221.054688 " fill-opacity="1" fill-rule="nonzero"/><g mask="url(#b1a780b732)"><g transform="matrix(1, 0, 0, 1, 276, 213)"><g clip-path="url(#5f83000bf8)"><g clip-path="url(#1ec8a3493f)"><path fill="#000000" d="M 57.582031 0.484375 L 6.5 3.246094 L 1.238281 7.371094 C 8.542969 8.886719 20.613281 10.855469 33.101562 10.4375 C 43.808594 10.058594 53.269531 8.28125 59.855469 6.691406 Z M 57.582031 0.484375 " fill-opacity="1" fill-rule="nonzero"/></g></g></g></g><g clip-path="url(#db527bacb9)"><path fill="#5271ff" d="M 374.828125 182.152344 C 374.828125 202.472656 349.589844 218.933594 305.46875 218.933594 C 261.347656 218.933594 215.03125 202.472656 215.03125 182.152344 C 215.03125 161.832031 261.347656 145.371094 305.46875 145.371094 C 349.589844 145.371094 374.828125 161.832031 374.828125 182.152344 Z M 374.828125 182.152344 " fill-opacity="1" fill-rule="nonzero"/></g><g clip-path="url(#2d13fc7991)"><path fill="#2f1166" d="M 374.828125 182.152344 C 374.828125 196.417969 349.589844 208 305.46875 208 C 261.347656 208 215.03125 196.417969 215.03125 182.152344 C 215.03125 167.886719 261.347656 156.308594 305.46875 156.308594 C 349.589844 156.308594 374.828125 167.851562 374.828125 182.152344 Z M 374.828125 182.152344 " fill-opacity="1" fill-rule="nonzero"/></g><g clip-path="url(#fb82da2018)"><path fill="#5271ff" d="M 374.828125 182.152344 C 374.828125 193.089844 349.589844 201.980469 305.46875 201.980469 C 261.347656 201.980469 215.03125 193.128906 215.03125 182.152344 C 215.03125 171.21875 261.347656 162.324219 305.46875 162.324219 C 349.589844 162.324219 374.828125 171.21875 374.828125 182.152344 Z M 374.828125 182.152344 " fill-opacity="1" fill-rule="nonzero"/></g><g mask="url(#8e29b1568b)"><g transform="matrix(1, 0, 0, 1, 236, 148)"><g clip-path="url(#4a21456db8)"><g clip-path="url(#379dd9cbee)"><path fill="#ffffff" d="M 118.699219 15.308594 C 108.179688 5.585938 89.070312 -2.398438 53.308594 2.972656 C 17.550781 8.347656 -0.992188 19.207031 0.675781 23.179688 C 2.378906 27.152344 77.640625 30.027344 95.425781 27.570312 C 113.210938 25.109375 124.414062 24.617188 118.699219 15.308594 Z M 118.699219 15.308594 " fill-opacity="1" fill-rule="nonzero"/></g></g></g></g><g clip-path="url(#b2c9b825df)"><g mask="url(#eb804df833)"><g transform="matrix(1, 0, 0, 1, 214, 174)"><g clip-path="url(#abab6332e1)"><g clip-path="url(#4182aecd1e)"><path fill="#000000" d="M 3.261719 0.472656 C 1.785156 2.96875 0.992188 5.542969 0.992188 8.152344 C 0.992188 28.472656 47.308594 44.933594 91.429688 44.933594 C 135.550781 44.933594 160.792969 28.472656 160.792969 8.152344 C 160.792969 5.769531 160.414062 3.421875 159.730469 1.152344 C 148.117188 11.824219 120.71875 33.089844 86.699219 33.089844 C 45.152344 33.089844 21.199219 20.980469 3.261719 0.472656 Z M 3.261719 0.472656 " fill-opacity="1" fill-rule="nonzero"/></g></g></g></g></g><g clip-path="url(#c811f21a56)"><g clip-path="url(#f84607d835)"><path fill="#5e17eb" d="M 137.03125 167.347656 L 137.03125 198.65625 L 4.585938 198.65625 L 4.585938 167.347656 Z M 137.03125 167.347656 " fill-opacity="1" fill-rule="nonzero"/></g></g><g clip-path="url(#dd4e194016)"><g clip-path="url(#0a5b9dfec1)"><path stroke-linecap="butt" transform="matrix(0, 0.75, -0.75, 0, 137.020352, 167.347079)" fill="none" stroke-linejoin="miter" d="M 41.735151 0.00109367 L 41.735151 176.563617 L 20.865356 164.886532 L 0.000770186 176.563617 L 0.000770186 0.00109367 Z M 41.735151 0.00109367 " stroke="#2f1166" stroke-width="6" stroke-opacity="1" stroke-miterlimit="4"/></g></g><g fill="#ffffff" fill-opacity="1"><g transform="translate(24.176603, 189.32755)"><g><path d="M 9.546875 -2.375 L 4.53125 -2.375 L 3.734375 0 L 0.3125 0 L 5.15625 -13.421875 L 8.953125 -13.421875 L 13.8125 0 L 10.34375 0 Z M 8.703125 -4.890625 L 7.03125 -9.8125 L 5.390625 -4.890625 Z M 8.703125 -4.890625 "/></g></g></g><g fill="#ffffff" fill-opacity="1"><g transform="translate(38.263968, 189.32755)"><g><path d="M 4.453125 -9.15625 C 4.765625 -9.65625 5.207031 -10.054688 5.78125 -10.359375 C 6.351562 -10.671875 7.007812 -10.828125 7.75 -10.828125 C 8.625 -10.828125 9.414062 -10.601562 10.125 -10.15625 C 10.84375 -9.707031 11.410156 -9.066406 11.828125 -8.234375 C 12.242188 -7.410156 12.453125 -6.453125 12.453125 -5.359375 C 12.453125 -4.253906 12.242188 -3.285156 11.828125 -2.453125 C 11.410156 -1.617188 10.84375 -0.972656 10.125 -0.515625 C 9.414062 -0.0664062 8.625 0.15625 7.75 0.15625 C 7 0.15625 6.34375 0.00390625 5.78125 -0.296875 C 5.21875 -0.597656 4.773438 -0.992188 4.453125 -1.484375 L 4.453125 0 L 1.1875 0 L 1.1875 -14.15625 L 4.453125 -14.15625 Z M 9.125 -5.359375 C 9.125 -6.171875 8.894531 -6.804688 8.4375 -7.265625 C 7.988281 -7.734375 7.429688 -7.96875 6.765625 -7.96875 C 6.117188 -7.96875 5.566406 -7.734375 5.109375 -7.265625 C 4.660156 -6.796875 4.4375 -6.148438 4.4375 -5.328125 C 4.4375 -4.515625 4.660156 -3.875 5.109375 -3.40625 C 5.566406 -2.9375 6.117188 -2.703125 6.765625 -2.703125 C 7.421875 -2.703125 7.976562 -2.9375 8.4375 -3.40625 C 8.894531 -3.882812 9.125 -4.535156 9.125 -5.359375 Z M 9.125 -5.359375 "/></g></g></g><g fill="#ffffff" fill-opacity="1"><g transform="translate(51.242697, 189.32755)"><g><path d="M 6.046875 0.15625 C 4.992188 0.15625 4.050781 -0.0664062 3.21875 -0.515625 C 2.382812 -0.960938 1.726562 -1.597656 1.25 -2.421875 C 0.769531 -3.253906 0.53125 -4.222656 0.53125 -5.328125 C 0.53125 -6.429688 0.769531 -7.398438 1.25 -8.234375 C 1.738281 -9.066406 2.40625 -9.707031 3.25 -10.15625 C 4.09375 -10.601562 5.035156 -10.828125 6.078125 -10.828125 C 7.128906 -10.828125 8.070312 -10.601562 8.90625 -10.15625 C 9.75 -9.707031 10.410156 -9.066406 10.890625 -8.234375 C 11.378906 -7.398438 11.625 -6.429688 11.625 -5.328125 C 11.625 -4.234375 11.378906 -3.269531 10.890625 -2.4375 C 10.398438 -1.601562 9.726562 -0.960938 8.875 -0.515625 C 8.03125 -0.0664062 7.085938 0.15625 6.046875 0.15625 Z M 6.046875 -2.671875 C 6.671875 -2.671875 7.203125 -2.898438 7.640625 -3.359375 C 8.078125 -3.816406 8.296875 -4.472656 8.296875 -5.328125 C 8.296875 -6.191406 8.082031 -6.851562 7.65625 -7.3125 C 7.226562 -7.769531 6.703125 -8 6.078125 -8 C 5.441406 -8 4.910156 -7.769531 4.484375 -7.3125 C 4.066406 -6.863281 3.859375 -6.203125 3.859375 -5.328125 C 3.859375 -4.472656 4.066406 -3.816406 4.484375 -3.359375 C 4.898438 -2.898438 5.421875 -2.671875 6.046875 -2.671875 Z M 6.046875 -2.671875 "/></g></g></g><g fill="#ffffff" fill-opacity="1"><g transform="translate(63.418623, 189.32755)"><g><path d="M 11.71875 -10.671875 L 11.71875 0 L 8.453125 0 L 8.453125 -1.453125 C 8.117188 -0.984375 7.664062 -0.601562 7.09375 -0.3125 C 6.53125 -0.03125 5.90625 0.109375 5.21875 0.109375 C 4.40625 0.109375 3.6875 -0.0664062 3.0625 -0.421875 C 2.4375 -0.785156 1.953125 -1.3125 1.609375 -2 C 1.265625 -2.695312 1.09375 -3.507812 1.09375 -4.4375 L 1.09375 -10.671875 L 4.34375 -10.671875 L 4.34375 -4.875 C 4.34375 -4.164062 4.523438 -3.613281 4.890625 -3.21875 C 5.265625 -2.820312 5.765625 -2.625 6.390625 -2.625 C 7.023438 -2.625 7.523438 -2.820312 7.890625 -3.21875 C 8.265625 -3.613281 8.453125 -4.164062 8.453125 -4.875 L 8.453125 -10.671875 Z M 11.71875 -10.671875 "/></g></g></g><g fill="#ffffff" fill-opacity="1"><g transform="translate(76.301779, 189.32755)"><g><path d="M 7.140625 -2.765625 L 7.140625 0 L 5.46875 0 C 4.28125 0 3.351562 -0.285156 2.6875 -0.859375 C 2.03125 -1.441406 1.703125 -2.390625 1.703125 -3.703125 L 1.703125 -7.953125 L 0.40625 -7.953125 L 0.40625 -10.671875 L 1.703125 -10.671875 L 1.703125 -13.265625 L 4.96875 -13.265625 L 4.96875 -10.671875 L 7.109375 -10.671875 L 7.109375 -7.953125 L 4.96875 -7.953125 L 4.96875 -3.671875 C 4.96875 -3.347656 5.046875 -3.113281 5.203125 -2.96875 C 5.359375 -2.832031 5.613281 -2.765625 5.96875 -2.765625 Z M 7.140625 -2.765625 "/></g></g></g><g fill="#ffffff" fill-opacity="1"><g transform="translate(84.062262, 189.32755)"><g/></g></g><g fill="#ffffff" fill-opacity="1"><g transform="translate(88.114532, 189.32755)"><g><path d="M 16.390625 -13.421875 L 16.390625 0 L 13.125 0 L 13.125 -8.046875 L 10.109375 0 L 7.484375 0 L 4.453125 -8.078125 L 4.453125 0 L 1.1875 0 L 1.1875 -13.421875 L 5.046875 -13.421875 L 8.8125 -4.125 L 12.546875 -13.421875 Z M 16.390625 -13.421875 "/></g></g></g><g fill="#ffffff" fill-opacity="1"><g transform="translate(105.661627, 189.32755)"><g><path d="M 11.25 -5.515625 C 11.25 -5.203125 11.226562 -4.878906 11.1875 -4.546875 L 3.78125 -4.546875 C 3.832031 -3.890625 4.046875 -3.382812 4.421875 -3.03125 C 4.796875 -2.675781 5.257812 -2.5 5.8125 -2.5 C 6.625 -2.5 7.191406 -2.84375 7.515625 -3.53125 L 11 -3.53125 C 10.820312 -2.832031 10.5 -2.203125 10.03125 -1.640625 C 9.5625 -1.078125 8.976562 -0.632812 8.28125 -0.3125 C 7.582031 0 6.796875 0.15625 5.921875 0.15625 C 4.878906 0.15625 3.945312 -0.0664062 3.125 -0.515625 C 2.3125 -0.960938 1.675781 -1.597656 1.21875 -2.421875 C 0.757812 -3.253906 0.53125 -4.222656 0.53125 -5.328125 C 0.53125 -6.441406 0.753906 -7.410156 1.203125 -8.234375 C 1.660156 -9.066406 2.296875 -9.707031 3.109375 -10.15625 C 3.929688 -10.601562 4.867188 -10.828125 5.921875 -10.828125 C 6.960938 -10.828125 7.882812 -10.609375 8.6875 -10.171875 C 9.488281 -9.742188 10.113281 -9.125 10.5625 -8.3125 C 11.019531 -7.507812 11.25 -6.578125 11.25 -5.515625 Z M 7.90625 -6.375 C 7.90625 -6.925781 7.710938 -7.367188 7.328125 -7.703125 C 6.941406 -8.035156 6.460938 -8.203125 5.890625 -8.203125 C 5.335938 -8.203125 4.875 -8.039062 4.5 -7.71875 C 4.125 -7.40625 3.894531 -6.957031 3.8125 -6.375 Z M 7.90625 -6.375 "/></g></g></g></svg>