<svg xmlns="http://www.w3.org/2000/svg" xmlns:xlink="http://www.w3.org/1999/xlink" width="1366" zoomAndPan="magnify" viewBox="0 0 1024.5 576" height="768" preserveAspectRatio="xMidYMid meet" version="1.0"><defs><clipPath id="614029b7b4"><path d="M 123 64.585938 L 526 64.585938 L 526 240 L 123 240 Z M 123 64.585938 " clip-rule="nonzero"/></clipPath><clipPath id="78e403b791"><path d="M 716 95.03125 L 1024 95.03125 L 1024 237 L 716 237 Z M 716 95.03125 " clip-rule="nonzero"/></clipPath><clipPath id="21e80ffd8f"><path d="M 466 95.03125 L 871.925781 95.03125 L 871.925781 237 L 466 237 Z M 466 95.03125 " clip-rule="nonzero"/></clipPath><clipPath id="1bff7c582c"><path d="M 0 30.328125 L 315 30.328125 L 315 206 L 0 206 Z M 0 30.328125 " clip-rule="nonzero"/></clipPath><clipPath id="5c01fcdfe4"><path d="M 777 84.585938 L 1024 84.585938 L 1024 227 L 777 227 Z M 777 84.585938 " clip-rule="nonzero"/></clipPath><clipPath id="703cf197fc"><path d="M 0 61.253906 L 357 61.253906 L 357 237 L 0 237 Z M 0 61.253906 " clip-rule="nonzero"/></clipPath><clipPath id="45e163c195"><path d="M 273 67.957031 L 676 67.957031 L 676 244 L 273 244 Z M 273 67.957031 " clip-rule="nonzero"/></clipPath><clipPath id="ef6b5274cf"><path d="M 551 95.03125 L 956.8125 95.03125 L 956.8125 237 L 551 237 Z M 551 95.03125 " clip-rule="nonzero"/></clipPath><clipPath id="5f5ebb642c"><path d="M 645.285156 79.113281 L 1024 79.113281 L 1024 221 L 645.285156 221 Z M 645.285156 79.113281 " clip-rule="nonzero"/></clipPath><clipPath id="43595d27e0"><path d="M 229.230469 40.292969 L 635 40.292969 L 635 182 L 229.230469 182 Z M 229.230469 40.292969 " clip-rule="nonzero"/></clipPath><clipPath id="e3bf1e2a92"><path d="M 492 4.59375 L 894 4.59375 L 894 180 L 492 180 Z M 492 4.59375 " clip-rule="nonzero"/></clipPath><clipPath id="ceefe64c4b"><path d="M 678.351562 50.328125 L 1024 50.328125 L 1024 192 L 678.351562 192 Z M 678.351562 50.328125 " clip-rule="nonzero"/></clipPath><clipPath id="5adf1dd281"><path d="M 41 9.847656 L 444 9.847656 L 444 186 L 41 186 Z M 41 9.847656 " clip-rule="nonzero"/></clipPath><clipPath id="6c92578088"><path d="M 0 30.328125 L 160 30.328125 L 160 206 L 0 206 Z M 0 30.328125 " clip-rule="nonzero"/></clipPath><clipPath id="57d82d5e27"><path d="M 322 20.292969 L 724 20.292969 L 724 196 L 322 196 Z M 322 20.292969 " clip-rule="nonzero"/></clipPath><clipPath id="40046b5326"><path d="M 0 0.140625 L 332 0.140625 L 332 175 L 0 175 Z M 0 0.140625 " clip-rule="nonzero"/></clipPath><clipPath id="6d91654c3e"><path d="M 0 0.140625 L 1024 0.140625 L 1024 79.351562 L 0 79.351562 Z M 0 0.140625 " clip-rule="nonzero"/></clipPath></defs><g clip-path="url(#614029b7b4)"><path fill="#222e70" d="M 127.019531 97.464844 C 133.804688 78.933594 154.054688 64.65625 174.816406 64.65625 C 271.828125 64.554688 368.839844 64.65625 465.851562 64.351562 C 477.292969 64.351562 487.523438 67.792969 497.75 71.84375 C 508.992188 77.007812 515.773438 87.035156 521.75 96.753906 C 527.824219 106.679688 525.191406 117.109375 520.535156 126.933594 C 520.433594 128.046875 520.332031 129.160156 520.230469 130.171875 C 519.320312 132.804688 520.027344 135.945312 517.394531 137.96875 C 506.761719 154.476562 493.292969 166.832031 472.332031 167.742188 C 466.257812 167.945312 466.460938 172.097656 466.558594 176.351562 C 466.660156 183.742188 466.660156 191.132812 460.890625 197.007812 C 459.167969 201.261719 456.027344 203.792969 451.675781 205.007812 C 442.964844 210.882812 433.851562 211.183594 424.433594 207.03125 C 417.546875 199.335938 416.332031 199.132812 412.382812 204.804688 L 412.382812 204.601562 C 408.738281 212.601562 402.964844 218.375 394.964844 222.019531 C 353.546875 255.742188 287.320312 239.4375 264.335938 189.515625 C 260.386719 180.90625 258.5625 176.449219 247.828125 183.335938 C 233.246094 192.753906 212.890625 184.753906 205.398438 169.058594 C 203.980469 166.121094 202.460938 163.285156 200.941406 160.449219 C 180.992188 171.691406 158.917969 170.070312 142.714844 156.199219 C 125.296875 141.414062 119.222656 118.730469 127.019531 97.464844 Z M 127.019531 97.464844 " fill-opacity="1" fill-rule="nonzero"/></g><path fill="#222e70" d="M -132.695312 154.773438 C -136.949219 150.628906 -138.4375 143.929688 -137.160156 135.109375 C -136.523438 128.730469 -131.527344 126.390625 -126.847656 123.628906 C -125.574219 123.203125 -124.296875 122.882812 -122.914062 123.414062 C -119.195312 123.519531 -115.472656 123.734375 -111.753906 123.839844 C -6.832031 123.945312 97.984375 123.945312 202.910156 124.050781 C 215.347656 128.730469 216.730469 138.191406 215.132812 146.164062 C 213.113281 156.15625 206.734375 161.367188 195.574219 161.152344 C 190.367188 161.046875 187.707031 162.214844 187.28125 167.742188 C 186.964844 172.316406 184.199219 176.25 182.710938 180.5 C 180.902344 181.882812 179.203125 183.371094 177.503906 184.964844 C 176.121094 186.242188 174.738281 187.621094 173.355469 188.898438 C 171.867188 190.386719 170.273438 191.769531 168.464844 192.9375 C 157.304688 200.0625 145.609375 199.742188 134.023438 194.214844 C 130.089844 192.300781 129.347656 193.042969 128.496094 196.871094 C 122.863281 220.578125 108.617188 237.585938 85.761719 245.453125 C 73.109375 249.8125 59.503906 249.597656 45.578125 245.773438 C 30.90625 241.625 22.617188 231.421875 14.324219 220.683594 C 10.710938 215.898438 8.902344 215.898438 4.4375 219.40625 C -6.511719 228.019531 -24.582031 223.449219 -29.261719 210.054688 C -31.917969 202.1875 -35.851562 198.996094 -43.503906 197.722656 C -49.035156 196.765625 -54.136719 193.574219 -60.089844 195.0625 C -62.960938 195.597656 -65.722656 196.019531 -68.382812 196.128906 C -84.113281 198.785156 -99.632812 190.175781 -106.226562 174.652344 C -107.074219 172.738281 -107.714844 170.933594 -108.140625 168.914062 C -108.140625 168.914062 -108.140625 168.914062 -108.140625 168.808594 C -108.246094 168.277344 -108.351562 167.742188 -108.5625 167.210938 C -109.519531 162.746094 -110.050781 160.089844 -113.5625 159.664062 C -114.515625 159.558594 -115.582031 159.558594 -116.960938 159.769531 C -117.28125 159.769531 -117.492188 159.878906 -117.8125 159.878906 C -123.980469 161.046875 -129.292969 158.8125 -132.695312 154.773438 Z M -192.226562 223.023438 C -191.589844 230.570312 -185.421875 235.566406 -176.917969 234.078125 C -172.558594 233.335938 -171.601562 234.824219 -170.222656 238.117188 C -162.566406 256.402344 -144.707031 259.058594 -131.101562 245.132812 C -126.316406 240.242188 -119.089844 236.949219 -112.390625 234.929688 C -104.523438 232.484375 -99.101562 228.019531 -99.632812 221.320312 C -100.167969 215.15625 -106.011719 210.371094 -113.773438 210.265625 C -124.402344 210.160156 -135.035156 210.265625 -145.664062 210.265625 C -156.613281 210.265625 -167.457031 210.054688 -178.40625 210.265625 C -187.550781 210.371094 -192.863281 215.476562 -192.226562 223.023438 Z M -114.835938 159.664062 C -114.304688 159.664062 -113.878906 159.664062 -113.453125 159.664062 C -114.410156 159.558594 -115.472656 159.558594 -116.855469 159.769531 C -116.21875 159.769531 -115.582031 159.769531 -114.835938 159.664062 Z M -114.835938 159.664062 " fill-opacity="1" fill-rule="nonzero"/><g clip-path="url(#78e403b791)"><path fill="#222e70" d="M 717.535156 123.160156 C 722.996094 133.792969 730.46875 140.980469 743.691406 138.011719 C 747.140625 137.242188 748.289062 138.96875 748.769531 142.035156 C 751.738281 163.785156 765.058594 175.570312 785.753906 180.167969 C 788.148438 181.894531 790.546875 181.894531 792.941406 180.167969 C 795.046875 179.691406 797.15625 179.210938 799.265625 178.828125 C 800.894531 179.402344 802.332031 179.59375 803 178.253906 C 808.75 177.964844 812.964844 172.597656 818.714844 172.3125 C 825.902344 184.382812 835.675781 190.898438 850.140625 186.683594 C 854.742188 185.34375 855.796875 188.410156 856.945312 191.476562 C 859.914062 199.8125 864.417969 207.285156 870.457031 213.703125 C 892.109375 236.507812 926.027344 245.707031 960.714844 225.011719 C 963.492188 223.191406 967.515625 222.804688 968.570312 218.78125 C 972.402344 214.375 976.234375 209.96875 980.164062 205.464844 C 981.890625 203.546875 984.1875 201.726562 984.761719 199.332031 C 986.582031 191.378906 990.992188 192.050781 997.027344 194.445312 C 1002.871094 196.839844 1008.910156 196.167969 1014.65625 193.199219 C 1014.847656 192.914062 1015.136719 192.71875 1015.425781 192.433594 C 1019.160156 192.71875 1020.886719 189.460938 1023.183594 187.164062 C 1023.761719 186.683594 1024.335938 186.300781 1024.910156 185.820312 C 1028.742188 176.71875 1034.585938 175.378906 1043.59375 179.210938 C 1047.714844 180.933594 1053.175781 182.851562 1058.15625 179.882812 C 1077.417969 175.1875 1091.886719 165.507812 1094.757812 144.046875 C 1095.335938 140.023438 1097.824219 139.253906 1101.371094 138.394531 C 1119.480469 133.890625 1124.941406 122.679688 1117.753906 105.71875 C 1113.539062 95.660156 1104.53125 95.371094 1095.71875 95.371094 C 977.960938 95.277344 860.105469 95.371094 742.351562 95.277344 C 737.75 95.277344 733.246094 95.371094 729.414062 98.34375 C 723.953125 101.695312 720.695312 106.871094 717.726562 112.332031 C 715.523438 116.066406 715.425781 119.613281 717.535156 123.160156 Z M 1099.933594 100.449219 C 1099.933594 100.738281 1099.839844 101.023438 1099.839844 101.3125 C 1099.644531 101.023438 1099.453125 100.738281 1099.359375 100.355469 C 1099.453125 100.355469 1099.742188 100.355469 1099.933594 100.449219 Z M 1099.933594 100.449219 " fill-opacity="1" fill-rule="nonzero"/></g><path fill="#222e70" d="M -139.726562 88.902344 C -134.265625 99.535156 -126.789062 106.722656 -113.566406 103.753906 C -110.117188 102.984375 -108.96875 104.710938 -108.488281 107.777344 C -105.519531 129.527344 -92.199219 141.3125 -71.503906 145.910156 C -69.109375 147.636719 -66.714844 147.636719 -64.320312 145.910156 C -62.210938 145.433594 -60.101562 144.953125 -57.996094 144.570312 C -56.367188 145.144531 -54.929688 145.335938 -54.257812 143.996094 C -48.507812 143.707031 -44.292969 138.339844 -38.542969 138.054688 C -31.359375 150.128906 -21.585938 156.640625 -7.117188 152.425781 C -2.519531 151.085938 -1.464844 154.152344 -0.3125 157.21875 C 2.65625 165.554688 7.160156 173.027344 13.195312 179.445312 C 34.851562 202.25 68.769531 211.449219 103.453125 190.753906 C 106.234375 188.933594 110.257812 188.550781 111.3125 184.523438 C 115.144531 180.117188 118.976562 175.710938 122.90625 171.207031 C 124.628906 169.289062 126.929688 167.46875 127.503906 165.074219 C 129.324219 157.121094 133.730469 157.792969 139.769531 160.1875 C 145.613281 162.582031 151.648438 161.914062 157.398438 158.941406 C 157.589844 158.65625 157.878906 158.464844 158.164062 158.175781 C 161.902344 158.464844 163.625 155.207031 165.925781 152.90625 C 166.5 152.425781 167.074219 152.042969 167.652344 151.5625 C 171.484375 142.460938 177.328125 141.121094 186.335938 144.953125 C 190.453125 146.679688 195.917969 148.59375 200.898438 145.625 C 220.15625 140.929688 234.625 131.25 237.5 109.789062 C 238.074219 105.765625 240.566406 104.996094 244.113281 104.136719 C 262.222656 99.632812 267.683594 88.421875 260.496094 71.460938 C 256.28125 61.402344 247.273438 61.113281 238.457031 61.113281 C 120.703125 61.019531 2.847656 61.113281 -114.910156 61.019531 C -119.507812 61.019531 -124.011719 61.113281 -127.84375 64.085938 C -133.304688 67.4375 -136.5625 72.613281 -139.535156 78.074219 C -141.738281 81.8125 -141.832031 85.355469 -139.726562 88.902344 Z M 242.675781 66.191406 C 242.675781 66.480469 242.578125 66.765625 242.578125 67.054688 C 242.386719 66.765625 242.195312 66.480469 242.101562 66.097656 C 242.195312 66.097656 242.484375 66.097656 242.675781 66.191406 Z M 242.675781 66.191406 " fill-opacity="1" fill-rule="nonzero"/><g clip-path="url(#21e80ffd8f)"><path fill="#222e70" d="M 870.070312 123.160156 C 864.609375 133.792969 857.136719 140.980469 843.914062 138.011719 C 840.464844 137.242188 839.316406 138.96875 838.835938 142.035156 C 835.867188 163.785156 822.546875 175.570312 801.851562 180.167969 C 799.457031 181.894531 797.058594 181.894531 794.664062 180.167969 C 792.558594 179.691406 790.449219 179.210938 788.339844 178.828125 C 786.710938 179.402344 785.273438 179.59375 784.605469 178.253906 C 778.855469 177.964844 774.640625 172.597656 768.890625 172.3125 C 761.703125 184.382812 751.929688 190.898438 737.464844 186.683594 C 732.863281 185.34375 731.808594 188.410156 730.660156 191.476562 C 727.691406 199.8125 723.1875 207.285156 717.148438 213.703125 C 695.496094 236.507812 661.578125 245.707031 626.890625 225.011719 C 624.113281 223.191406 620.089844 222.804688 619.035156 218.78125 C 615.203125 214.375 611.371094 209.96875 607.441406 205.464844 C 605.714844 203.546875 603.417969 201.726562 602.84375 199.332031 C 601.023438 191.378906 596.613281 192.050781 590.578125 194.445312 C 584.734375 196.839844 578.695312 196.167969 572.949219 193.199219 C 572.757812 192.914062 572.46875 192.71875 572.179688 192.433594 C 568.445312 192.71875 566.71875 189.460938 564.417969 187.164062 C 563.84375 186.683594 563.269531 186.300781 562.695312 185.820312 C 558.863281 176.71875 553.019531 175.378906 544.011719 179.210938 C 539.890625 180.933594 534.429688 182.851562 529.445312 179.882812 C 510.1875 175.1875 495.71875 165.507812 492.84375 144.046875 C 492.269531 140.023438 489.78125 139.253906 486.234375 138.394531 C 468.125 133.890625 462.664062 122.679688 469.851562 105.71875 C 474.066406 95.660156 483.074219 95.371094 491.886719 95.371094 C 609.644531 95.277344 727.5 95.371094 845.253906 95.277344 C 849.855469 95.277344 854.359375 95.371094 858.191406 98.34375 C 863.652344 101.695312 866.910156 106.871094 869.878906 112.332031 C 872.082031 116.066406 872.179688 119.613281 870.070312 123.160156 Z M 487.671875 100.449219 C 487.671875 100.738281 487.765625 101.023438 487.765625 101.3125 C 487.960938 101.023438 488.152344 100.738281 488.246094 100.355469 C 488.152344 100.355469 487.863281 100.355469 487.671875 100.449219 Z M 487.671875 100.449219 " fill-opacity="1" fill-rule="nonzero"/></g><g clip-path="url(#1bff7c582c)"><path fill="#222e70" d="M -84.105469 63.207031 C -77.320312 44.675781 -57.066406 30.398438 -36.308594 30.398438 C 60.703125 30.296875 157.714844 30.398438 254.726562 30.09375 C 266.171875 30.09375 276.398438 33.535156 286.625 37.585938 C 297.867188 42.75 304.652344 52.777344 310.625 62.496094 C 316.703125 72.421875 314.070312 82.851562 309.410156 92.675781 C 309.308594 93.789062 309.207031 94.902344 309.109375 95.914062 C 308.195312 98.546875 308.90625 101.6875 306.273438 103.710938 C 295.640625 120.21875 282.171875 132.574219 261.210938 133.484375 C 255.132812 133.6875 255.335938 137.839844 255.4375 142.09375 C 255.539062 149.484375 255.539062 156.878906 249.765625 162.75 C 248.042969 167.003906 244.90625 169.535156 240.550781 170.75 C 231.84375 176.625 222.730469 176.925781 213.3125 172.777344 C 206.425781 165.078125 205.210938 164.875 201.261719 170.546875 L 201.261719 170.34375 C 197.613281 178.34375 191.84375 184.117188 183.84375 187.761719 C 142.425781 221.484375 76.199219 205.179688 53.210938 155.257812 C 49.261719 146.648438 47.4375 142.195312 36.703125 149.078125 C 22.121094 158.496094 1.769531 150.496094 -5.726562 134.800781 C -7.144531 131.863281 -8.660156 129.027344 -10.179688 126.195312 C -30.128906 137.433594 -52.207031 135.8125 -68.410156 121.941406 C -85.824219 107.15625 -91.902344 84.472656 -84.105469 63.207031 Z M -84.105469 63.207031 " fill-opacity="1" fill-rule="nonzero"/></g><g clip-path="url(#5c01fcdfe4)"><path fill="#222e70" d="M 778.664062 112.714844 C 784.125 123.347656 791.601562 130.535156 804.824219 127.5625 C 808.273438 126.796875 809.421875 128.523438 809.902344 131.589844 C 812.871094 153.339844 826.191406 165.125 846.886719 169.722656 C 849.28125 171.449219 851.675781 171.449219 854.070312 169.722656 C 856.179688 169.242188 858.289062 168.765625 860.394531 168.382812 C 862.023438 168.957031 863.460938 169.148438 864.132812 167.808594 C 869.882812 167.519531 874.097656 162.152344 879.847656 161.867188 C 887.03125 173.9375 896.804688 180.453125 911.273438 176.238281 C 915.875 174.898438 916.925781 177.964844 918.078125 181.03125 C 921.046875 189.367188 925.550781 196.839844 931.585938 203.257812 C 953.242188 226.0625 987.160156 235.261719 1021.84375 214.566406 C 1024.625 212.746094 1028.648438 212.359375 1029.703125 208.335938 C 1033.535156 203.929688 1037.367188 199.523438 1041.296875 195.019531 C 1043.019531 193.101562 1045.320312 191.28125 1045.894531 188.886719 C 1047.714844 180.933594 1052.121094 181.605469 1058.160156 184 C 1064.003906 186.394531 1070.039062 185.722656 1075.789062 182.753906 C 1075.980469 182.464844 1076.269531 182.273438 1076.554688 181.988281 C 1080.292969 182.273438 1082.015625 179.015625 1084.316406 176.71875 C 1084.890625 176.238281 1085.46875 175.855469 1086.042969 175.375 C 1089.875 166.273438 1095.71875 164.933594 1104.726562 168.765625 C 1108.847656 170.488281 1114.308594 172.40625 1119.289062 169.4375 C 1138.546875 164.742188 1153.015625 155.0625 1155.890625 133.601562 C 1156.464844 129.578125 1158.957031 128.808594 1162.503906 127.949219 C 1180.613281 123.445312 1186.074219 112.234375 1178.886719 95.273438 C 1174.671875 85.214844 1165.664062 84.925781 1156.847656 84.925781 C 1039.09375 84.832031 921.238281 84.925781 803.480469 84.832031 C 798.882812 84.832031 794.378906 84.925781 790.546875 87.898438 C 785.085938 91.25 781.828125 96.425781 778.855469 101.886719 C 776.652344 105.621094 776.558594 109.167969 778.664062 112.714844 Z M 1161.066406 90.003906 C 1161.066406 90.292969 1160.96875 90.578125 1160.96875 90.867188 C 1160.777344 90.578125 1160.585938 90.292969 1160.492188 89.910156 C 1160.585938 89.910156 1160.875 89.910156 1161.066406 90.003906 Z M 1161.066406 90.003906 " fill-opacity="1" fill-rule="nonzero"/></g><g clip-path="url(#703cf197fc)"><path fill="#222e70" d="M -41.464844 94.132812 C -34.683594 75.601562 -14.429688 61.324219 6.332031 61.324219 C 103.34375 61.222656 200.355469 61.324219 297.367188 61.019531 C 308.808594 61.019531 319.035156 64.460938 329.265625 68.511719 C 340.503906 73.675781 347.289062 83.703125 353.265625 93.421875 C 359.339844 103.347656 356.707031 113.777344 352.050781 123.601562 C 351.949219 124.714844 351.847656 125.828125 351.746094 126.839844 C 350.835938 129.472656 351.542969 132.613281 348.910156 134.636719 C 338.277344 151.144531 324.808594 163.5 303.847656 164.410156 C 297.769531 164.613281 297.972656 168.765625 298.074219 173.019531 C 298.175781 180.410156 298.175781 187.800781 292.40625 193.675781 C 290.683594 197.929688 287.542969 200.460938 283.1875 201.675781 C 274.480469 207.550781 265.367188 207.851562 255.949219 203.699219 C 249.0625 196.003906 247.847656 195.800781 243.898438 201.472656 L 243.898438 201.269531 C 240.253906 209.269531 234.480469 215.042969 226.480469 218.6875 C 185.0625 252.410156 118.835938 236.105469 95.847656 186.183594 C 91.898438 177.574219 90.078125 173.117188 79.34375 180.003906 C 64.761719 189.421875 44.40625 181.421875 36.914062 165.726562 C 35.496094 162.789062 33.976562 159.953125 32.457031 157.117188 C 12.507812 168.359375 -9.566406 166.738281 -25.769531 152.867188 C -43.1875 138.082031 -49.265625 115.398438 -41.464844 94.132812 Z M -41.464844 94.132812 " fill-opacity="1" fill-rule="nonzero"/></g><g clip-path="url(#45e163c195)"><path fill="#222e70" d="M 276.75 100.835938 C 283.535156 82.304688 303.785156 68.023438 324.546875 68.023438 C 421.558594 67.921875 518.570312 68.023438 615.582031 67.722656 C 627.023438 67.722656 637.253906 71.164062 647.480469 75.214844 C 658.71875 80.378906 665.503906 90.40625 671.480469 100.125 C 677.554688 110.050781 674.921875 120.480469 670.265625 130.304688 C 670.164062 131.417969 670.0625 132.53125 669.960938 133.542969 C 669.050781 136.175781 669.757812 139.316406 667.125 141.339844 C 656.492188 157.847656 643.023438 170.203125 622.0625 171.113281 C 615.988281 171.316406 616.1875 175.46875 616.289062 179.71875 C 616.390625 187.113281 616.390625 194.503906 610.621094 200.378906 C 608.898438 204.632812 605.757812 207.164062 601.40625 208.378906 C 592.695312 214.25 583.582031 214.554688 574.164062 210.402344 C 567.277344 202.707031 566.0625 202.503906 562.113281 208.175781 L 562.113281 207.972656 C 558.46875 215.972656 552.695312 221.746094 544.695312 225.390625 C 503.277344 259.113281 437.050781 242.808594 414.0625 192.886719 C 410.113281 184.277344 408.292969 179.820312 397.558594 186.707031 C 382.976562 196.125 362.621094 188.125 355.128906 172.429688 C 353.710938 169.492188 352.191406 166.65625 350.671875 163.820312 C 330.722656 175.0625 308.648438 173.441406 292.445312 159.570312 C 275.027344 144.785156 268.953125 122.101562 276.75 100.835938 Z M 276.75 100.835938 " fill-opacity="1" fill-rule="nonzero"/></g><g clip-path="url(#ef6b5274cf)"><path fill="#222e70" d="M 954.957031 123.160156 C 949.496094 133.792969 942.023438 140.980469 928.800781 138.011719 C 925.351562 137.242188 924.199219 138.96875 923.722656 142.035156 C 920.75 163.785156 907.433594 175.570312 886.738281 180.167969 C 884.339844 181.894531 881.945312 181.894531 879.550781 180.167969 C 877.441406 179.691406 875.335938 179.210938 873.226562 178.828125 C 871.597656 179.402344 870.160156 179.59375 869.492188 178.253906 C 863.742188 177.964844 859.527344 172.597656 853.777344 172.3125 C 846.589844 184.382812 836.816406 190.898438 822.347656 186.683594 C 817.75 185.34375 816.695312 188.410156 815.546875 191.476562 C 812.574219 199.8125 808.074219 207.285156 802.035156 213.703125 C 780.382812 236.507812 746.464844 245.707031 711.777344 225.011719 C 709 223.191406 704.976562 222.804688 703.921875 218.78125 C 700.089844 214.375 696.253906 209.96875 692.328125 205.464844 C 690.601562 203.546875 688.304688 201.726562 687.726562 199.332031 C 685.90625 191.378906 681.5 192.050781 675.464844 194.445312 C 669.617188 196.839844 663.582031 196.167969 657.832031 193.199219 C 657.640625 192.914062 657.355469 192.71875 657.066406 192.433594 C 653.332031 192.71875 651.605469 189.460938 649.304688 187.164062 C 648.730469 186.683594 648.15625 186.300781 647.582031 185.820312 C 643.75 176.71875 637.902344 175.378906 628.898438 179.210938 C 624.777344 180.933594 619.316406 182.851562 614.332031 179.882812 C 595.074219 175.1875 580.605469 165.507812 577.730469 144.046875 C 577.15625 140.023438 574.664062 139.253906 571.121094 138.394531 C 553.011719 133.890625 547.550781 122.679688 554.734375 105.71875 C 558.953125 95.660156 567.957031 95.371094 576.773438 95.371094 C 694.53125 95.277344 812.382812 95.371094 930.140625 95.277344 C 934.742188 95.277344 939.242188 95.371094 943.078125 98.34375 C 948.539062 101.695312 951.796875 106.871094 954.765625 112.332031 C 956.96875 116.066406 957.066406 119.613281 954.957031 123.160156 Z M 572.558594 100.449219 C 572.558594 100.738281 572.652344 101.023438 572.652344 101.3125 C 572.84375 101.023438 573.035156 100.738281 573.132812 100.355469 C 573.035156 100.355469 572.75 100.355469 572.558594 100.449219 Z M 572.558594 100.449219 " fill-opacity="1" fill-rule="nonzero"/></g><g clip-path="url(#5f5ebb642c)"><path fill="#222e70" d="M 647.140625 107.242188 C 652.601562 117.875 660.074219 125.0625 673.296875 122.09375 C 676.746094 121.328125 677.898438 123.050781 678.375 126.117188 C 681.347656 147.867188 694.664062 159.652344 715.359375 164.25 C 717.757812 165.976562 720.152344 165.976562 722.546875 164.25 C 724.65625 163.773438 726.761719 163.292969 728.871094 162.910156 C 730.5 163.484375 731.9375 163.675781 732.605469 162.335938 C 738.355469 162.046875 742.570312 156.683594 748.320312 156.394531 C 755.507812 168.46875 765.28125 174.984375 779.75 170.765625 C 784.347656 169.425781 785.402344 172.492188 786.550781 175.558594 C 789.523438 183.894531 794.023438 191.367188 800.0625 197.789062 C 821.714844 220.589844 855.632812 229.789062 890.320312 209.09375 C 893.097656 207.273438 897.121094 206.890625 898.175781 202.867188 C 902.007812 198.457031 905.84375 194.050781 909.769531 189.546875 C 911.496094 187.628906 913.792969 185.808594 914.371094 183.414062 C 916.191406 175.460938 920.597656 176.132812 926.632812 178.527344 C 932.480469 180.921875 938.515625 180.253906 944.265625 177.28125 C 944.457031 176.996094 944.742188 176.804688 945.03125 176.515625 C 948.765625 176.804688 950.492188 173.546875 952.792969 171.246094 C 953.367188 170.765625 953.941406 170.382812 954.515625 169.90625 C 958.347656 160.800781 964.195312 159.460938 973.199219 163.292969 C 977.320312 165.019531 982.78125 166.933594 987.765625 163.964844 C 1007.023438 159.269531 1021.492188 149.59375 1024.367188 128.128906 C 1024.941406 124.105469 1027.433594 123.339844 1030.976562 122.476562 C 1049.085938 117.972656 1054.546875 106.761719 1047.363281 89.804688 C 1043.144531 79.742188 1034.140625 79.453125 1025.324219 79.453125 C 907.566406 79.359375 789.714844 79.453125 671.957031 79.359375 C 667.355469 79.359375 662.855469 79.453125 659.019531 82.425781 C 653.558594 85.777344 650.300781 90.953125 647.332031 96.414062 C 645.128906 100.152344 645.03125 103.695312 647.140625 107.242188 Z M 1029.539062 84.53125 C 1029.539062 84.820312 1029.445312 85.109375 1029.445312 85.394531 C 1029.253906 85.109375 1029.0625 84.820312 1028.964844 84.4375 C 1029.0625 84.4375 1029.347656 84.4375 1029.539062 84.53125 Z M 1029.539062 84.53125 " fill-opacity="1" fill-rule="nonzero"/></g><g clip-path="url(#43595d27e0)"><path fill="#3345a2" d="M 231.082031 68.421875 C 236.546875 79.054688 244.019531 86.242188 257.242188 83.273438 C 260.691406 82.503906 261.839844 84.230469 262.320312 87.296875 C 265.289062 109.046875 278.609375 120.832031 299.304688 125.429688 C 301.699219 127.15625 304.09375 127.15625 306.492188 125.429688 C 308.597656 124.953125 310.707031 124.472656 312.8125 124.089844 C 314.441406 124.664062 315.878906 124.855469 316.550781 123.515625 C 322.300781 123.226562 326.515625 117.863281 332.265625 117.574219 C 339.449219 129.648438 349.222656 136.164062 363.691406 131.945312 C 368.292969 130.605469 369.34375 133.671875 370.496094 136.738281 C 373.464844 145.074219 377.96875 152.546875 384.003906 158.964844 C 405.660156 181.769531 439.578125 190.96875 474.265625 170.273438 C 477.042969 168.453125 481.066406 168.070312 482.121094 164.042969 C 485.953125 159.636719 489.785156 155.230469 493.714844 150.726562 C 495.4375 148.808594 497.738281 146.988281 498.3125 144.59375 C 500.132812 136.640625 504.542969 137.3125 510.578125 139.707031 C 516.421875 142.101562 522.457031 141.433594 528.207031 138.460938 C 528.398438 138.175781 528.6875 137.984375 528.972656 137.695312 C 532.710938 137.984375 534.4375 134.726562 536.734375 132.425781 C 537.308594 131.945312 537.886719 131.5625 538.460938 131.085938 C 542.292969 121.980469 548.136719 120.640625 557.144531 124.472656 C 561.265625 126.199219 566.726562 128.113281 571.707031 125.144531 C 590.96875 120.449219 605.433594 110.769531 608.308594 89.308594 C 608.882812 85.285156 611.375 84.519531 614.921875 83.65625 C 633.03125 79.152344 638.492188 67.941406 631.304688 50.984375 C 627.089844 40.921875 618.082031 40.632812 609.269531 40.632812 C 491.511719 40.539062 373.65625 40.632812 255.898438 40.539062 C 251.300781 40.539062 246.796875 40.632812 242.964844 43.605469 C 237.503906 46.957031 234.246094 52.132812 231.273438 57.59375 C 229.070312 61.332031 228.976562 64.875 231.082031 68.421875 Z M 613.484375 45.710938 C 613.484375 46 613.386719 46.289062 613.386719 46.574219 C 613.195312 46.289062 613.003906 46 612.910156 45.617188 C 613.003906 45.617188 613.292969 45.617188 613.484375 45.710938 Z M 613.484375 45.710938 " fill-opacity="1" fill-rule="nonzero"/></g><g clip-path="url(#e3bf1e2a92)"><path fill="#3345a2" d="M 495.601562 37.472656 C 502.386719 18.941406 522.636719 4.664062 543.398438 4.664062 C 640.410156 4.5625 737.421875 4.664062 834.433594 4.359375 C 845.875 4.359375 856.105469 7.800781 866.332031 11.851562 C 877.570312 17.015625 884.355469 27.042969 890.332031 36.765625 C 896.40625 46.6875 893.773438 57.117188 889.117188 66.941406 C 889.015625 68.054688 888.914062 69.167969 888.8125 70.179688 C 887.902344 72.8125 888.609375 75.953125 885.976562 77.980469 C 875.34375 94.484375 861.875 106.839844 840.914062 107.75 C 834.839844 107.953125 835.039062 112.105469 835.140625 116.359375 C 835.242188 123.75 835.242188 131.144531 829.472656 137.015625 C 827.75 141.269531 824.609375 143.800781 820.257812 145.015625 C 811.546875 150.890625 802.433594 151.191406 793.015625 147.042969 C 786.128906 139.34375 784.914062 139.144531 780.964844 144.8125 L 780.964844 144.609375 C 777.320312 152.609375 771.546875 158.382812 763.546875 162.027344 C 722.128906 195.75 655.902344 179.445312 632.914062 129.523438 C 628.964844 120.914062 627.144531 116.460938 616.410156 123.34375 C 601.828125 132.761719 581.472656 124.761719 573.980469 109.066406 C 572.5625 106.128906 571.042969 103.296875 569.523438 100.460938 C 549.574219 111.699219 527.5 110.078125 511.296875 96.207031 C 493.878906 81.421875 487.804688 58.738281 495.601562 37.472656 Z M 495.601562 37.472656 " fill-opacity="1" fill-rule="nonzero"/></g><g clip-path="url(#ceefe64c4b)"><path fill="#3345a2" d="M 680.203125 78.457031 C 685.664062 89.089844 693.140625 96.277344 706.359375 93.308594 C 709.8125 92.539062 710.960938 94.265625 711.4375 97.332031 C 714.410156 119.082031 727.726562 130.867188 748.425781 135.464844 C 750.820312 137.191406 753.214844 137.191406 755.609375 135.464844 C 757.71875 134.988281 759.828125 134.507812 761.933594 134.125 C 763.5625 134.699219 765 134.890625 765.671875 133.550781 C 771.421875 133.261719 775.636719 127.894531 781.386719 127.609375 C 788.570312 139.683594 798.34375 146.195312 812.8125 141.980469 C 817.410156 140.640625 818.464844 143.707031 819.617188 146.773438 C 822.585938 155.109375 827.089844 162.582031 833.125 169 C 854.78125 191.804688 888.699219 201.003906 923.382812 180.308594 C 926.164062 178.488281 930.1875 178.105469 931.242188 174.078125 C 935.074219 169.671875 938.90625 165.265625 942.835938 160.761719 C 944.558594 158.84375 946.859375 157.023438 947.433594 154.628906 C 949.253906 146.675781 953.660156 147.347656 959.699219 149.742188 C 965.542969 152.136719 971.578125 151.46875 977.328125 148.496094 C 977.519531 148.210938 977.808594 148.019531 978.09375 147.730469 C 981.832031 148.019531 983.554688 144.761719 985.855469 142.460938 C 986.429688 141.980469 987.003906 141.597656 987.578125 141.117188 C 991.414062 132.015625 997.257812 130.675781 1006.265625 134.507812 C 1010.382812 136.230469 1015.84375 138.148438 1020.828125 135.179688 C 1040.085938 130.484375 1054.554688 120.804688 1057.429688 99.34375 C 1058.003906 95.320312 1060.496094 94.550781 1064.039062 93.691406 C 1082.148438 89.1875 1087.613281 77.976562 1080.425781 61.015625 C 1076.210938 50.957031 1067.203125 50.667969 1058.386719 50.667969 C 940.628906 50.574219 822.777344 50.667969 705.019531 50.574219 C 700.421875 50.574219 695.917969 50.667969 692.085938 53.640625 C 686.625 56.992188 683.367188 62.167969 680.394531 67.628906 C 678.191406 71.363281 678.09375 74.910156 680.203125 78.457031 Z M 1062.605469 55.746094 C 1062.605469 56.035156 1062.507812 56.320312 1062.507812 56.609375 C 1062.316406 56.320312 1062.125 56.035156 1062.027344 55.652344 C 1062.125 55.652344 1062.410156 55.652344 1062.605469 55.746094 Z M 1062.605469 55.746094 " fill-opacity="1" fill-rule="nonzero"/></g><g clip-path="url(#5adf1dd281)"><path fill="#3345a2" d="M 44.765625 42.726562 C 51.550781 24.195312 71.804688 9.917969 92.5625 9.917969 C 189.578125 9.816406 286.589844 9.917969 383.601562 9.613281 C 395.042969 9.613281 405.269531 13.054688 415.5 17.105469 C 426.738281 22.269531 433.523438 32.296875 439.5 42.019531 C 445.574219 51.941406 442.941406 62.371094 438.285156 72.195312 C 438.183594 73.308594 438.082031 74.421875 437.980469 75.433594 C 437.066406 78.066406 437.777344 81.207031 435.144531 83.234375 C 424.511719 99.738281 411.042969 112.09375 390.082031 113.003906 C 384.003906 113.207031 384.207031 117.359375 384.308594 121.613281 C 384.410156 129.003906 384.410156 136.398438 378.636719 142.269531 C 376.917969 146.523438 373.777344 149.054688 369.421875 150.269531 C 360.714844 156.144531 351.601562 156.449219 342.183594 152.296875 C 335.296875 144.597656 334.082031 144.398438 330.132812 150.066406 L 330.132812 149.863281 C 326.488281 157.863281 320.714844 163.636719 312.714844 167.28125 C 271.296875 201.003906 205.070312 184.699219 182.082031 134.777344 C 178.132812 126.167969 176.308594 121.714844 165.578125 128.597656 C 150.996094 138.015625 130.640625 130.015625 123.144531 114.320312 C 121.730469 111.382812 120.210938 108.550781 118.691406 105.714844 C 98.742188 116.953125 76.664062 115.332031 60.464844 101.460938 C 43.046875 86.675781 36.96875 63.992188 44.765625 42.726562 Z M 44.765625 42.726562 " fill-opacity="1" fill-rule="nonzero"/></g><g clip-path="url(#6c92578088)"><path fill="#3345a2" d="M -238.671875 63.207031 C -231.886719 44.675781 -211.632812 30.398438 -190.875 30.398438 C -93.863281 30.296875 3.152344 30.398438 100.164062 30.09375 C 111.605469 30.09375 121.832031 33.535156 132.0625 37.585938 C 143.300781 42.75 150.085938 52.777344 156.0625 62.496094 C 162.136719 72.421875 159.503906 82.851562 154.84375 92.675781 C 154.746094 93.789062 154.644531 94.902344 154.542969 95.914062 C 153.628906 98.546875 154.339844 101.6875 151.707031 103.710938 C 141.074219 120.21875 127.605469 132.574219 106.644531 133.484375 C 100.566406 133.6875 100.769531 137.839844 100.871094 142.09375 C 100.972656 149.484375 100.972656 156.878906 95.199219 162.75 C 93.480469 167.003906 90.339844 169.535156 85.984375 170.75 C 77.277344 176.625 68.164062 176.925781 58.746094 172.777344 C 51.859375 165.078125 50.644531 164.875 46.695312 170.546875 L 46.695312 170.34375 C 43.046875 178.34375 37.277344 184.117188 29.277344 187.761719 C -12.140625 221.484375 -78.367188 205.179688 -101.355469 155.257812 C -105.304688 146.648438 -107.128906 142.195312 -117.859375 149.078125 C -132.445312 158.496094 -152.796875 150.496094 -160.292969 134.800781 C -161.710938 131.863281 -163.226562 129.027344 -164.746094 126.195312 C -184.695312 137.433594 -206.773438 135.8125 -222.972656 121.941406 C -240.390625 107.15625 -246.46875 84.472656 -238.671875 63.207031 Z M -238.671875 63.207031 " fill-opacity="1" fill-rule="nonzero"/></g><g clip-path="url(#57d82d5e27)"><path fill="#3345a2" d="M 325.496094 53.171875 C 332.28125 34.640625 352.535156 20.363281 373.292969 20.363281 C 470.304688 20.261719 567.316406 20.363281 664.328125 20.058594 C 675.769531 20.058594 686 23.5 696.226562 27.550781 C 707.46875 32.714844 714.253906 42.742188 720.226562 52.464844 C 726.300781 62.386719 723.667969 72.816406 719.011719 82.640625 C 718.910156 83.753906 718.808594 84.867188 718.707031 85.878906 C 717.796875 88.515625 718.503906 91.652344 715.871094 93.679688 C 705.238281 110.183594 691.769531 122.539062 670.808594 123.449219 C 664.734375 123.652344 664.9375 127.804688 665.039062 132.058594 C 665.136719 139.449219 665.136719 146.84375 659.367188 152.714844 C 657.644531 156.96875 654.503906 159.5 650.152344 160.714844 C 641.441406 166.589844 632.328125 166.894531 622.910156 162.742188 C 616.023438 155.042969 614.808594 154.84375 610.859375 160.511719 L 610.859375 160.3125 C 607.214844 168.3125 601.441406 174.082031 593.441406 177.726562 C 552.027344 211.449219 485.796875 195.144531 462.8125 145.222656 C 458.863281 136.613281 457.039062 132.160156 446.304688 139.046875 C 431.722656 148.460938 411.367188 140.460938 403.875 124.765625 C 402.457031 121.828125 400.9375 118.996094 399.417969 116.160156 C 379.46875 127.398438 357.394531 125.777344 341.191406 111.90625 C 323.773438 97.121094 317.699219 74.4375 325.496094 53.171875 Z M 325.496094 53.171875 " fill-opacity="1" fill-rule="nonzero"/></g><g clip-path="url(#40046b5326)"><path fill="#3345a2" d="M -66.363281 32.691406 C -59.578125 14.160156 -39.328125 -0.117188 -18.566406 -0.117188 C 78.445312 -0.21875 175.457031 -0.117188 272.46875 -0.421875 C 283.910156 -0.421875 294.140625 3.023438 304.367188 7.070312 C 315.605469 12.238281 322.390625 22.261719 328.367188 31.984375 C 334.441406 41.90625 331.808594 52.335938 327.152344 62.160156 C 327.050781 63.273438 326.949219 64.386719 326.847656 65.402344 C 325.9375 68.035156 326.644531 71.171875 324.011719 73.199219 C 313.378906 89.703125 299.910156 102.058594 278.949219 102.96875 C 272.875 103.171875 273.074219 107.324219 273.175781 111.578125 C 273.277344 118.96875 273.277344 126.363281 267.507812 132.234375 C 265.785156 136.488281 262.644531 139.019531 258.292969 140.234375 C 249.582031 146.109375 240.46875 146.414062 231.050781 142.261719 C 224.164062 134.566406 222.949219 134.363281 219 140.035156 L 219 139.832031 C 215.355469 147.832031 209.582031 153.601562 201.582031 157.25 C 160.164062 190.96875 93.9375 174.664062 70.949219 124.742188 C 67 116.132812 65.179688 111.679688 54.445312 118.566406 C 39.863281 127.984375 19.507812 119.984375 12.015625 104.285156 C 10.597656 101.351562 9.078125 98.515625 7.558594 95.679688 C -12.390625 106.917969 -34.464844 105.300781 -50.667969 91.425781 C -68.085938 76.640625 -74.160156 53.957031 -66.363281 32.691406 Z M -66.363281 32.691406 " fill-opacity="1" fill-rule="nonzero"/></g><g clip-path="url(#6d91654c3e)"><path fill="#3345a2" d="M 1043.46875 79.351562 L -16.4375 79.351562 L -16.4375 -93.363281 L 1043.46875 -93.363281 Z M 1043.46875 79.351562 " fill-opacity="1" fill-rule="nonzero"/></g></svg>