<svg xmlns="http://www.w3.org/2000/svg" xmlns:xlink="http://www.w3.org/1999/xlink" width="1366" zoomAndPan="magnify" viewBox="0 0 1024.5 576" height="768" preserveAspectRatio="xMidYMid meet" version="1.0"><defs><clipPath id="9226f3c2e6"><path d="M 74 0.140625 L 477 0.140625 L 477 140 L 74 140 Z M 74 0.140625 " clip-rule="nonzero"/></clipPath><clipPath id="d77b19482e"><path d="M 0 0.140625 L 230 0.140625 L 230 140 L 0 140 Z M 0 0.140625 " clip-rule="nonzero"/></clipPath><clipPath id="dacae8d6b5"><path d="M 600 0.140625 L 1003 0.140625 L 1003 107 L 600 107 Z M 600 0.140625 " clip-rule="nonzero"/></clipPath><clipPath id="bb98c2e450"><path d="M 575 0.140625 L 978 0.140625 L 978 154 L 575 154 Z M 575 0.140625 " clip-rule="nonzero"/></clipPath><clipPath id="b59461bed8"><path d="M 876 0.140625 L 1024 0.140625 L 1024 140 L 876 140 Z M 876 0.140625 " clip-rule="nonzero"/></clipPath><clipPath id="da30501a35"><path d="M 381 0.140625 L 783 0.140625 L 783 148 L 381 148 Z M 381 0.140625 " clip-rule="nonzero"/></clipPath><clipPath id="1569812e65"><path d="M 719 0.140625 L 1024 0.140625 L 1024 128 L 719 128 Z M 719 0.140625 " clip-rule="nonzero"/></clipPath><clipPath id="2908fd6197"><path d="M 223 0.140625 L 626 0.140625 L 626 123 L 223 123 Z M 223 0.140625 " clip-rule="nonzero"/></clipPath><clipPath id="8d9036e29b"><path d="M 0 0.140625 L 993.207031 0.140625 L 993.207031 42.460938 L 0 42.460938 Z M 0 0.140625 " clip-rule="nonzero"/></clipPath><clipPath id="d3551a8555"><path d="M 523.28125 0.140625 L 929 0.140625 L 929 86 L 523.28125 86 Z M 523.28125 0.140625 " clip-rule="nonzero"/></clipPath><clipPath id="30a2360146"><path d="M 0 0.140625 L 243 0.140625 L 243 79 L 0 79 Z M 0 0.140625 " clip-rule="nonzero"/></clipPath><clipPath id="5b704003d5"><path d="M 16.375 0.140625 L 422 0.140625 L 422 39 L 16.375 39 Z M 16.375 0.140625 " clip-rule="nonzero"/></clipPath><clipPath id="1ec7876a9e"><path d="M 657 0.140625 L 1024 0.140625 L 1024 75 L 657 75 Z M 657 0.140625 " clip-rule="nonzero"/></clipPath><clipPath id="c82debaf48"><path d="M 878 0.140625 L 1024 0.140625 L 1024 140 L 878 140 Z M 878 0.140625 " clip-rule="nonzero"/></clipPath><clipPath id="4316799265"><path d="M 415 0.140625 L 818 0.140625 L 818 58 L 415 58 Z M 415 0.140625 " clip-rule="nonzero"/></clipPath><clipPath id="e169ec81eb"><path d="M 107 0.140625 L 509 0.140625 L 509 73 L 107 73 Z M 107 0.140625 " clip-rule="nonzero"/></clipPath><clipPath id="63706ffd1c"><path d="M 211 0.140625 L 613 0.140625 L 613 64 L 211 64 Z M 211 0.140625 " clip-rule="nonzero"/></clipPath></defs><g clip-path="url(#9226f3c2e6)"><path fill="#5f72d6" d="M 472.800781 -3.214844 C 466.015625 -21.746094 445.761719 -36.023438 425.003906 -36.023438 C 327.992188 -36.125 230.980469 -36.023438 133.96875 -36.328125 C 122.523438 -36.328125 112.296875 -32.886719 102.070312 -28.835938 C 90.828125 -23.671875 84.042969 -13.644531 78.070312 -3.925781 C 71.992188 6 74.625 16.429688 79.285156 26.253906 C 79.386719 27.367188 79.488281 28.480469 79.585938 29.492188 C 80.5 32.125 79.789062 35.265625 82.421875 37.289062 C 93.054688 53.796875 106.523438 66.152344 127.484375 67.0625 C 133.5625 67.265625 133.359375 71.417969 133.257812 75.671875 C 133.15625 83.0625 133.15625 90.453125 138.929688 96.328125 C 140.652344 100.582031 143.789062 103.113281 148.144531 104.328125 C 156.851562 110.203125 165.96875 110.503906 175.382812 106.355469 C 182.269531 98.65625 183.484375 98.453125 187.433594 104.125 L 187.433594 103.921875 C 191.082031 111.921875 196.851562 117.695312 204.851562 121.339844 C 246.269531 155.0625 312.496094 138.757812 335.484375 88.835938 C 339.433594 80.226562 341.257812 75.773438 351.992188 82.65625 C 366.574219 92.074219 386.925781 84.074219 394.421875 68.378906 C 395.839844 65.441406 397.359375 62.605469 398.875 59.773438 C 418.824219 71.011719 440.902344 69.390625 457.105469 55.519531 C 474.523438 40.734375 480.597656 18.050781 472.800781 -3.214844 Z M 472.800781 -3.214844 " fill-opacity="1" fill-rule="nonzero"/></g><g clip-path="url(#d77b19482e)"><path fill="#5f72d6" d="M -174.011719 26.355469 C -168.550781 36.988281 -161.078125 44.175781 -147.855469 41.207031 C -144.40625 40.4375 -143.253906 42.164062 -142.777344 45.230469 C -139.804688 66.980469 -126.488281 78.765625 -105.792969 83.363281 C -103.394531 85.089844 -101 85.089844 -98.605469 83.363281 C -96.496094 82.886719 -94.390625 82.40625 -92.28125 82.023438 C -90.652344 82.597656 -89.214844 82.789062 -88.542969 81.449219 C -82.796875 81.160156 -78.578125 75.796875 -72.832031 75.507812 C -65.644531 87.582031 -55.871094 94.097656 -41.402344 89.878906 C -36.804688 88.539062 -35.75 91.605469 -34.601562 94.671875 C -31.628906 103.007812 -27.125 110.480469 -21.089844 116.898438 C 0.5625 139.703125 34.484375 148.902344 69.167969 128.207031 C 71.945312 126.386719 75.972656 126.003906 77.023438 121.976562 C 80.859375 117.570312 84.691406 113.164062 88.617188 108.660156 C 90.34375 106.742188 92.644531 104.921875 93.21875 102.527344 C 95.039062 94.574219 99.445312 95.246094 105.480469 97.640625 C 111.328125 100.035156 117.363281 99.367188 123.113281 96.394531 C 123.304688 96.109375 123.589844 95.917969 123.878906 95.628906 C 127.617188 95.917969 129.339844 92.660156 131.640625 90.359375 C 132.214844 89.878906 132.789062 89.496094 133.363281 89.019531 C 137.195312 79.914062 143.042969 78.574219 152.046875 82.40625 C 156.167969 84.132812 161.628906 86.046875 166.613281 83.078125 C 185.871094 78.382812 200.339844 68.703125 203.214844 47.242188 C 203.789062 43.21875 206.28125 42.453125 209.824219 41.589844 C 227.933594 37.085938 233.394531 25.875 226.210938 8.914062 C 221.992188 -1.144531 212.988281 -1.433594 204.171875 -1.433594 C 86.414062 -1.527344 -31.4375 -1.433594 -149.195312 -1.527344 C -153.792969 -1.527344 -158.296875 -1.433594 -162.128906 1.539062 C -167.59375 4.890625 -170.851562 10.066406 -173.820312 15.527344 C -176.023438 19.265625 -176.121094 22.808594 -174.011719 26.355469 Z M 208.386719 3.644531 C 208.386719 3.933594 208.292969 4.222656 208.292969 4.507812 C 208.101562 4.222656 207.910156 3.933594 207.8125 3.550781 C 207.910156 3.550781 208.195312 3.550781 208.386719 3.644531 Z M 208.386719 3.644531 " fill-opacity="1" fill-rule="nonzero"/></g><g clip-path="url(#dacae8d6b5)"><path fill="#5f72d6" d="M 998.8125 -35.382812 C 992.027344 -53.914062 971.773438 -68.191406 951.015625 -68.191406 C 854.003906 -68.292969 756.992188 -68.191406 659.980469 -68.496094 C 648.535156 -68.496094 638.308594 -65.054688 628.082031 -61.003906 C 616.839844 -55.839844 610.054688 -45.8125 604.082031 -36.089844 C 598.003906 -26.167969 600.636719 -15.738281 605.296875 -5.914062 C 605.398438 -4.800781 605.5 -3.6875 605.601562 -2.675781 C 606.511719 -0.0429688 605.804688 3.097656 608.4375 5.125 C 619.070312 21.628906 632.535156 33.984375 653.5 34.894531 C 659.574219 35.097656 659.371094 39.25 659.269531 43.503906 C 659.167969 50.894531 659.167969 58.289062 664.941406 64.160156 C 666.664062 68.414062 669.800781 70.945312 674.15625 72.160156 C 682.867188 78.035156 691.980469 78.335938 701.398438 74.1875 C 708.28125 66.488281 709.5 66.289062 713.449219 71.957031 L 713.449219 71.753906 C 717.09375 79.753906 722.863281 85.527344 730.863281 89.171875 C 772.28125 122.894531 838.511719 106.589844 861.496094 56.667969 C 865.445312 48.058594 867.269531 43.605469 878.003906 50.488281 C 892.585938 59.90625 912.941406 51.90625 920.433594 36.210938 C 921.851562 33.273438 923.371094 30.4375 924.890625 27.605469 C 944.839844 38.84375 966.914062 37.222656 983.117188 23.351562 C 1000.535156 8.566406 1006.609375 -14.117188 998.8125 -35.382812 Z M 998.8125 -35.382812 " fill-opacity="1" fill-rule="nonzero"/></g><g clip-path="url(#bb98c2e450)"><path fill="#5f72d6" d="M 974.222656 11.105469 C 967.4375 -7.425781 947.183594 -21.703125 926.425781 -21.703125 C 829.414062 -21.804688 732.402344 -21.703125 635.390625 -22.007812 C 623.945312 -22.007812 613.71875 -18.566406 603.492188 -14.515625 C 592.25 -9.351562 585.464844 0.675781 579.492188 10.398438 C 573.414062 20.320312 576.046875 30.75 580.707031 40.574219 C 580.808594 41.6875 580.910156 42.800781 581.011719 43.8125 C 581.921875 46.445312 581.210938 49.585938 583.84375 51.613281 C 594.476562 68.117188 607.945312 80.472656 628.910156 81.382812 C 634.984375 81.585938 634.78125 85.738281 634.679688 89.992188 C 634.578125 97.382812 634.578125 104.777344 640.351562 110.648438 C 642.074219 114.902344 645.210938 117.433594 649.566406 118.648438 C 658.277344 124.523438 667.390625 124.828125 676.808594 120.675781 C 683.691406 112.976562 684.90625 112.777344 688.859375 118.445312 L 688.859375 118.242188 C 692.503906 126.242188 698.273438 132.015625 706.273438 135.660156 C 747.691406 169.382812 813.917969 153.078125 836.90625 103.15625 C 840.855469 94.546875 842.679688 90.09375 853.414062 96.976562 C 867.996094 106.394531 888.347656 98.394531 895.84375 82.699219 C 897.261719 79.761719 898.78125 76.929688 900.300781 74.09375 C 920.25 85.332031 942.324219 83.710938 958.527344 69.839844 C 975.945312 55.054688 982.019531 32.371094 974.222656 11.105469 Z M 974.222656 11.105469 " fill-opacity="1" fill-rule="nonzero"/></g><g clip-path="url(#b59461bed8)"><path fill="#5f72d6" d="M 1274.8125 -3.214844 C 1268.03125 -21.746094 1247.777344 -36.023438 1227.015625 -36.023438 C 1130.003906 -36.125 1032.992188 -36.023438 935.980469 -36.328125 C 924.539062 -36.328125 914.3125 -32.886719 904.082031 -28.835938 C 892.84375 -23.671875 886.058594 -13.644531 880.082031 -3.925781 C 874.007812 6 876.640625 16.429688 881.296875 26.253906 C 881.398438 27.367188 881.5 28.480469 881.601562 29.492188 C 882.511719 32.125 881.804688 35.265625 884.4375 37.289062 C 895.070312 53.796875 908.539062 66.152344 929.5 67.0625 C 935.578125 67.265625 935.375 71.417969 935.273438 75.671875 C 935.171875 83.0625 935.171875 90.453125 940.945312 96.328125 C 942.664062 100.582031 945.804688 103.113281 950.160156 104.328125 C 958.867188 110.203125 967.980469 110.503906 977.398438 106.355469 C 984.285156 98.65625 985.5 98.453125 989.449219 104.125 L 989.449219 103.921875 C 993.09375 111.921875 998.867188 117.695312 1006.867188 121.339844 C 1048.285156 155.0625 1114.511719 138.757812 1137.5 88.835938 C 1141.449219 80.226562 1143.269531 75.773438 1154.003906 82.65625 C 1168.585938 92.074219 1188.941406 84.074219 1196.433594 68.378906 C 1197.851562 65.441406 1199.371094 62.605469 1200.890625 59.773438 C 1220.839844 71.011719 1242.914062 69.390625 1259.117188 55.519531 C 1276.535156 40.734375 1282.613281 18.050781 1274.8125 -3.214844 Z M 1274.8125 -3.214844 " fill-opacity="1" fill-rule="nonzero"/></g><g clip-path="url(#da30501a35)"><path fill="#5f72d6" d="M 779.558594 5.578125 C 772.773438 -12.953125 752.523438 -27.234375 731.761719 -27.234375 C 634.75 -27.335938 537.738281 -27.234375 440.726562 -27.535156 C 429.285156 -27.535156 419.054688 -24.09375 408.828125 -20.042969 C 397.585938 -14.878906 390.804688 -4.851562 384.828125 4.867188 C 378.753906 14.792969 381.386719 25.222656 386.042969 35.046875 C 386.144531 36.160156 386.246094 37.273438 386.347656 38.285156 C 387.257812 40.917969 386.550781 44.058594 389.183594 46.082031 C 399.816406 62.589844 413.285156 74.945312 434.246094 75.855469 C 440.320312 76.058594 440.117188 80.210938 440.015625 84.460938 C 439.917969 91.855469 439.917969 99.246094 445.6875 105.121094 C 447.410156 109.375 450.550781 111.90625 454.902344 113.121094 C 463.613281 118.992188 472.726562 119.296875 482.144531 115.144531 C 489.03125 107.449219 490.246094 107.246094 494.195312 112.917969 L 494.195312 112.714844 C 497.839844 120.714844 503.613281 126.488281 511.613281 130.132812 C 553.03125 163.855469 619.257812 147.550781 642.242188 97.628906 C 646.191406 89.019531 648.015625 84.5625 658.75 91.449219 C 673.332031 100.867188 693.6875 92.867188 701.179688 77.171875 C 702.597656 74.234375 704.117188 71.398438 705.636719 68.5625 C 725.585938 79.804688 747.660156 78.183594 763.863281 64.3125 C 781.28125 49.527344 787.355469 26.84375 779.558594 5.578125 Z M 779.558594 5.578125 " fill-opacity="1" fill-rule="nonzero"/></g><g clip-path="url(#1569812e65)"><path fill="#5f72d6" d="M 1117.671875 -14.902344 C 1110.886719 -33.433594 1090.636719 -47.710938 1069.875 -47.710938 C 972.863281 -47.8125 875.851562 -47.710938 778.839844 -48.015625 C 767.398438 -48.015625 757.167969 -44.574219 746.941406 -40.523438 C 735.699219 -35.359375 728.914062 -25.332031 722.941406 -15.613281 C 716.867188 -5.6875 719.5 4.742188 724.15625 14.566406 C 724.257812 15.679688 724.359375 16.792969 724.460938 17.804688 C 725.371094 20.4375 724.664062 23.578125 727.296875 25.601562 C 737.929688 42.109375 751.398438 54.464844 772.359375 55.375 C 778.433594 55.578125 778.230469 59.730469 778.128906 63.984375 C 778.03125 71.375 778.03125 78.765625 783.800781 84.640625 C 785.523438 88.894531 788.664062 91.425781 793.015625 92.640625 C 801.726562 98.515625 810.839844 98.816406 820.257812 94.664062 C 827.144531 86.96875 828.359375 86.765625 832.308594 92.4375 L 832.308594 92.234375 C 835.953125 100.234375 841.726562 106.007812 849.726562 109.652344 C 891.144531 143.375 957.371094 127.070312 980.355469 77.148438 C 984.304688 68.539062 986.128906 64.082031 996.863281 70.96875 C 1011.445312 80.386719 1031.800781 72.386719 1039.292969 56.691406 C 1040.710938 53.753906 1042.230469 50.917969 1043.75 48.082031 C 1063.699219 59.324219 1085.773438 57.703125 1101.976562 43.832031 C 1119.394531 29.046875 1125.46875 6.363281 1117.671875 -14.902344 Z M 1117.671875 -14.902344 " fill-opacity="1" fill-rule="nonzero"/></g><g clip-path="url(#2908fd6197)"><path fill="#5f72d6" d="M 622.183594 -20.117188 C 615.398438 -38.648438 595.144531 -52.929688 574.386719 -52.929688 C 477.375 -53.027344 380.363281 -52.929688 283.351562 -53.230469 C 271.90625 -53.230469 261.679688 -49.789062 251.453125 -45.738281 C 240.210938 -40.574219 233.425781 -30.546875 227.453125 -20.828125 C 221.375 -10.902344 224.007812 -0.472656 228.667969 9.351562 C 228.769531 10.464844 228.871094 11.578125 228.972656 12.589844 C 229.882812 15.222656 229.171875 18.363281 231.804688 20.386719 C 242.4375 36.894531 255.90625 49.25 276.867188 50.160156 C 282.945312 50.363281 282.742188 54.515625 282.640625 58.765625 C 282.539062 66.160156 282.539062 73.550781 288.3125 79.425781 C 290.035156 83.679688 293.171875 86.210938 297.527344 87.425781 C 306.234375 93.300781 315.351562 93.601562 324.765625 89.449219 C 331.652344 81.753906 332.867188 81.550781 336.816406 87.222656 L 336.816406 87.019531 C 340.464844 95.019531 346.234375 100.792969 354.234375 104.4375 C 395.652344 138.160156 461.878906 121.855469 484.867188 71.933594 C 488.816406 63.324219 490.640625 58.867188 501.375 65.753906 C 515.957031 75.171875 536.308594 67.171875 543.804688 51.476562 C 545.222656 48.539062 546.742188 45.703125 548.257812 42.867188 C 568.207031 54.109375 590.285156 52.488281 606.488281 38.617188 C 623.90625 23.832031 629.980469 1.148438 622.183594 -20.117188 Z M 622.183594 -20.117188 " fill-opacity="1" fill-rule="nonzero"/></g><g clip-path="url(#8d9036e29b)"><path fill="#5f72d6" d="M 993.207031 42.460938 L -80.011719 42.460938 L -80.011719 -143.425781 L 993.207031 -143.425781 Z M 993.207031 42.460938 " fill-opacity="1" fill-rule="nonzero"/></g><g clip-path="url(#d3551a8555)"><path fill="#93a4ff" d="M 525.132812 -28.382812 C 530.597656 -17.746094 538.070312 -10.5625 551.292969 -13.53125 C 554.742188 -14.296875 555.890625 -12.574219 556.371094 -9.507812 C 559.339844 12.242188 572.660156 24.027344 593.355469 28.628906 C 595.75 30.351562 598.144531 30.351562 600.542969 28.628906 C 602.648438 28.148438 604.757812 27.667969 606.867188 27.285156 C 608.492188 27.859375 609.929688 28.050781 610.601562 26.710938 C 616.351562 26.421875 620.566406 21.058594 626.316406 20.769531 C 633.503906 32.84375 643.273438 39.359375 657.742188 35.144531 C 662.34375 33.800781 663.394531 36.867188 664.546875 39.933594 C 667.515625 48.269531 672.019531 55.742188 678.054688 62.164062 C 699.710938 84.964844 733.628906 94.164062 768.316406 73.46875 C 771.09375 71.648438 775.117188 71.265625 776.171875 67.242188 C 780.003906 62.832031 783.835938 58.425781 787.765625 53.921875 C 789.488281 52.007812 791.789062 50.1875 792.363281 47.789062 C 794.183594 39.835938 798.59375 40.507812 804.628906 42.902344 C 810.472656 45.300781 816.507812 44.628906 822.257812 41.65625 C 822.449219 41.371094 822.738281 41.179688 823.023438 40.890625 C 826.761719 41.179688 828.488281 37.921875 830.785156 35.621094 C 831.359375 35.144531 831.9375 34.757812 832.511719 34.28125 C 836.34375 25.179688 842.1875 23.835938 851.195312 27.667969 C 855.316406 29.394531 860.777344 31.308594 865.757812 28.339844 C 885.019531 23.644531 899.484375 13.96875 902.359375 -7.496094 C 902.933594 -11.519531 905.425781 -12.285156 908.972656 -13.148438 C 927.082031 -17.652344 932.542969 -28.863281 925.355469 -45.820312 C 921.140625 -55.882812 912.132812 -56.167969 903.320312 -56.167969 C 785.5625 -56.265625 667.707031 -56.167969 549.949219 -56.265625 C 545.351562 -56.265625 540.847656 -56.167969 537.015625 -53.199219 C 531.554688 -49.847656 528.296875 -44.671875 525.324219 -39.210938 C 523.121094 -35.472656 523.027344 -31.929688 525.132812 -28.382812 Z M 907.535156 -51.089844 C 907.535156 -50.804688 907.4375 -50.515625 907.4375 -50.230469 C 907.246094 -50.515625 907.054688 -50.804688 906.960938 -51.1875 C 907.054688 -51.1875 907.34375 -51.1875 907.535156 -51.089844 Z M 907.535156 -51.089844 " fill-opacity="1" fill-rule="nonzero"/></g><g clip-path="url(#30a2360146)"><path fill="#93a4ff" d="M -155.433594 -64.113281 C -148.648438 -82.644531 -128.398438 -96.921875 -107.636719 -96.921875 C -10.625 -97.023438 86.386719 -96.921875 183.398438 -97.226562 C 194.839844 -97.226562 205.070312 -93.78125 215.296875 -89.730469 C 226.535156 -84.566406 233.320312 -74.542969 239.296875 -64.820312 C 245.371094 -54.898438 242.738281 -44.464844 238.082031 -34.644531 C 237.980469 -33.53125 237.878906 -32.414062 237.777344 -31.402344 C 236.867188 -28.769531 237.574219 -25.632812 234.941406 -23.605469 C 224.308594 -7.097656 210.839844 5.253906 189.878906 6.167969 C 183.804688 6.367188 184.003906 10.519531 184.105469 14.773438 C 184.207031 22.167969 184.207031 29.558594 178.4375 35.433594 C 176.714844 39.683594 173.574219 42.214844 169.21875 43.433594 C 160.511719 49.304688 151.398438 49.609375 141.980469 45.457031 C 135.09375 37.761719 133.878906 37.558594 129.929688 43.230469 L 129.929688 43.027344 C 126.285156 51.027344 120.511719 56.796875 112.511719 60.445312 C 71.09375 94.164062 4.867188 77.863281 -18.121094 27.9375 C -22.070312 19.332031 -23.890625 14.875 -34.625 21.761719 C -49.207031 31.179688 -69.5625 23.179688 -77.054688 7.484375 C -78.472656 4.546875 -79.992188 1.710938 -81.511719 -1.125 C -101.460938 10.117188 -123.535156 8.496094 -139.738281 -5.378906 C -157.15625 -20.164062 -163.234375 -42.847656 -155.433594 -64.113281 Z M -155.433594 -64.113281 " fill-opacity="1" fill-rule="nonzero"/></g><g clip-path="url(#5b704003d5)"><path fill="#93a4ff" d="M 18.226562 -74.871094 C 23.691406 -64.234375 31.164062 -57.050781 44.386719 -60.019531 C 47.835938 -60.785156 48.984375 -59.0625 49.464844 -55.996094 C 52.433594 -34.246094 65.753906 -22.460938 86.449219 -17.863281 C 88.84375 -16.136719 91.238281 -16.136719 93.636719 -17.863281 C 95.742188 -18.339844 97.851562 -18.820312 99.957031 -19.203125 C 101.585938 -18.628906 103.023438 -18.4375 103.695312 -19.777344 C 109.445312 -20.066406 113.660156 -25.429688 119.410156 -25.71875 C 126.59375 -13.644531 136.367188 -7.128906 150.835938 -11.347656 C 155.4375 -12.6875 156.488281 -9.621094 157.640625 -6.554688 C 160.609375 1.78125 165.113281 9.253906 171.148438 15.675781 C 192.804688 38.476562 226.722656 47.675781 261.40625 26.980469 C 264.1875 25.160156 268.210938 24.777344 269.265625 20.753906 C 273.097656 16.34375 276.929688 11.9375 280.859375 7.433594 C 282.582031 5.515625 284.882812 3.695312 285.457031 1.300781 C 287.277344 -6.652344 291.6875 -5.980469 297.722656 -3.585938 C 303.566406 -1.191406 309.601562 -1.859375 315.351562 -4.832031 C 315.542969 -5.117188 315.832031 -5.308594 316.117188 -5.597656 C 319.855469 -5.308594 321.582031 -8.566406 323.878906 -10.867188 C 324.453125 -11.347656 325.03125 -11.730469 325.605469 -12.207031 C 329.4375 -21.3125 335.28125 -22.652344 344.289062 -18.820312 C 348.410156 -17.09375 353.871094 -15.179688 358.851562 -18.148438 C 378.113281 -22.84375 392.578125 -32.519531 395.453125 -53.984375 C 396.027344 -58.007812 398.519531 -58.773438 402.066406 -59.636719 C 420.175781 -64.140625 425.636719 -75.351562 418.449219 -92.308594 C 414.234375 -102.371094 405.226562 -102.660156 396.414062 -102.660156 C 278.65625 -102.753906 160.800781 -102.660156 43.042969 -102.753906 C 38.445312 -102.753906 33.941406 -102.660156 30.109375 -99.6875 C 24.648438 -96.335938 21.390625 -91.160156 18.417969 -85.699219 C 16.214844 -81.960938 16.121094 -78.417969 18.226562 -74.871094 Z M 400.628906 -97.578125 C 400.628906 -97.292969 400.53125 -97.003906 400.53125 -96.71875 C 400.339844 -97.003906 400.148438 -97.292969 400.054688 -97.675781 C 400.148438 -97.675781 400.4375 -97.675781 400.628906 -97.578125 Z M 400.628906 -97.578125 " fill-opacity="1" fill-rule="nonzero"/></g><g clip-path="url(#1ec7876a9e)"><path fill="#93a4ff" d="M 1005.4375 -25.054688 C 1009.691406 -29.199219 1011.179688 -35.894531 1009.902344 -44.71875 C 1009.265625 -51.097656 1004.269531 -53.4375 999.589844 -56.199219 C 998.316406 -56.625 997.039062 -56.945312 995.65625 -56.414062 C 991.9375 -56.304688 988.214844 -56.09375 984.496094 -55.988281 C 879.570312 -55.882812 774.753906 -55.882812 669.832031 -55.773438 C 657.394531 -51.097656 656.011719 -41.636719 657.605469 -33.664062 C 659.628906 -23.671875 666.003906 -18.460938 677.167969 -18.675781 C 682.375 -18.78125 685.035156 -17.613281 685.460938 -12.082031 C 685.777344 -7.511719 688.542969 -3.578125 690.03125 0.671875 C 691.835938 2.054688 693.539062 3.542969 695.238281 5.136719 C 696.621094 6.414062 698.003906 7.796875 699.386719 9.070312 C 700.875 10.558594 702.46875 11.941406 704.273438 13.109375 C 715.4375 20.234375 727.132812 19.914062 738.71875 14.386719 C 742.652344 12.472656 743.394531 13.21875 744.246094 17.042969 C 749.878906 40.75 764.125 57.757812 786.980469 65.625 C 799.632812 69.984375 813.238281 69.769531 827.164062 65.945312 C 841.832031 61.796875 850.125 51.59375 858.417969 40.855469 C 862.03125 36.074219 863.839844 36.074219 868.304688 39.582031 C 879.253906 48.191406 897.324219 43.621094 902.003906 30.226562 C 904.660156 22.359375 908.59375 19.167969 916.246094 17.894531 C 921.773438 16.9375 926.878906 13.75 932.832031 15.238281 C 935.703125 15.769531 938.464844 16.195312 941.121094 16.300781 C 956.855469 18.957031 972.375 10.347656 978.96875 -5.175781 C 979.816406 -7.085938 980.457031 -8.894531 980.878906 -10.914062 C 980.878906 -10.914062 980.878906 -10.914062 980.878906 -11.019531 C 980.988281 -11.550781 981.09375 -12.082031 981.304688 -12.617188 C 982.261719 -17.082031 982.792969 -19.738281 986.300781 -20.164062 C 987.257812 -20.269531 988.320312 -20.269531 989.703125 -20.058594 C 990.023438 -20.058594 990.234375 -19.949219 990.554688 -19.949219 C 996.71875 -18.78125 1002.035156 -21.011719 1005.4375 -25.054688 Z M 1064.96875 43.195312 C 1064.332031 50.742188 1058.164062 55.738281 1049.660156 54.25 C 1045.300781 53.507812 1044.34375 54.996094 1042.964844 58.289062 C 1035.308594 76.574219 1017.449219 79.230469 1003.84375 65.304688 C 999.058594 60.417969 991.832031 57.121094 985.132812 55.101562 C 977.265625 52.65625 971.84375 48.191406 972.375 41.492188 C 972.90625 35.328125 978.753906 30.542969 986.515625 30.4375 C 997.144531 30.332031 1007.777344 30.4375 1018.40625 30.4375 C 1029.355469 30.4375 1040.199219 30.226562 1051.148438 30.4375 C 1060.289062 30.542969 1065.605469 35.648438 1064.96875 43.195312 Z M 987.578125 -20.164062 C 987.046875 -20.164062 986.621094 -20.164062 986.195312 -20.164062 C 987.152344 -20.269531 988.214844 -20.269531 989.597656 -20.058594 C 988.960938 -20.058594 988.320312 -20.058594 987.578125 -20.164062 Z M 987.578125 -20.164062 " fill-opacity="1" fill-rule="nonzero"/></g><g clip-path="url(#c82debaf48)"><path fill="#93a4ff" d="M 881.804688 -3.214844 C 888.589844 -21.746094 908.84375 -36.023438 929.601562 -36.023438 C 1026.613281 -36.125 1123.625 -36.023438 1220.636719 -36.328125 C 1232.082031 -36.328125 1242.308594 -32.886719 1252.535156 -28.835938 C 1263.777344 -23.671875 1270.5625 -13.644531 1276.535156 -3.925781 C 1282.613281 6 1279.980469 16.429688 1275.320312 26.253906 C 1275.21875 27.367188 1275.117188 28.480469 1275.015625 29.492188 C 1274.105469 32.125 1274.8125 35.265625 1272.179688 37.289062 C 1261.546875 53.796875 1248.082031 66.152344 1227.117188 67.0625 C 1221.042969 67.265625 1221.246094 71.417969 1221.347656 75.671875 C 1221.449219 83.0625 1221.449219 90.453125 1215.675781 96.328125 C 1213.953125 100.582031 1210.816406 103.113281 1206.460938 104.328125 C 1197.75 110.203125 1188.636719 110.503906 1179.21875 106.355469 C 1172.335938 98.65625 1171.117188 98.453125 1167.167969 104.125 L 1167.167969 103.921875 C 1163.523438 111.921875 1157.753906 117.695312 1149.753906 121.339844 C 1108.335938 155.0625 1042.105469 138.757812 1019.121094 88.835938 C 1015.171875 80.226562 1013.347656 75.773438 1002.613281 82.65625 C 988.03125 92.074219 967.675781 84.074219 960.183594 68.378906 C 958.765625 65.441406 957.246094 62.605469 955.726562 59.773438 C 935.777344 71.011719 913.703125 69.390625 897.5 55.519531 C 880.082031 40.734375 874.007812 18.050781 881.804688 -3.214844 Z M 881.804688 -3.214844 " fill-opacity="1" fill-rule="nonzero"/></g><g clip-path="url(#4316799265)"><path fill="#93a4ff" d="M 419.21875 -84.589844 C 426.003906 -103.125 446.257812 -117.402344 467.015625 -117.402344 C 564.027344 -117.503906 661.039062 -117.402344 758.050781 -117.707031 C 769.496094 -117.707031 779.722656 -114.261719 789.949219 -110.210938 C 801.191406 -105.046875 807.976562 -95.023438 813.949219 -85.300781 C 820.027344 -75.375 817.394531 -64.945312 812.734375 -55.125 C 812.632812 -54.007812 812.53125 -52.894531 812.429688 -51.882812 C 811.519531 -49.25 812.230469 -46.109375 809.597656 -44.085938 C 798.964844 -27.578125 785.496094 -15.226562 764.53125 -14.3125 C 758.457031 -14.109375 758.660156 -9.960938 758.761719 -5.707031 C 758.863281 1.6875 758.863281 9.078125 753.089844 14.953125 C 751.367188 19.203125 748.230469 21.738281 743.875 22.953125 C 735.167969 28.824219 726.050781 29.128906 716.636719 24.976562 C 709.75 17.28125 708.535156 17.078125 704.585938 22.75 L 704.585938 22.546875 C 700.9375 30.546875 695.167969 36.320312 687.167969 39.964844 C 645.75 73.683594 579.523438 57.382812 556.535156 7.457031 C 552.585938 -1.148438 550.761719 -5.605469 540.027344 1.28125 C 525.445312 10.699219 505.09375 2.699219 497.597656 -12.996094 C 496.179688 -15.933594 494.660156 -18.769531 493.144531 -21.605469 C 473.195312 -10.363281 451.117188 -11.984375 434.914062 -25.859375 C 417.496094 -40.644531 411.421875 -63.324219 419.21875 -84.589844 Z M 419.21875 -84.589844 " fill-opacity="1" fill-rule="nonzero"/></g><g clip-path="url(#e169ec81eb)"><path fill="#93a4ff" d="M 110.691406 -70.011719 C 117.476562 -88.542969 137.730469 -102.824219 158.488281 -102.824219 C 255.5 -102.925781 352.511719 -102.824219 449.523438 -103.125 C 460.96875 -103.125 471.195312 -99.683594 481.421875 -95.632812 C 492.664062 -90.46875 499.449219 -80.441406 505.421875 -70.722656 C 511.5 -60.796875 508.867188 -50.367188 504.207031 -40.542969 C 504.105469 -39.429688 504.003906 -38.316406 503.902344 -37.304688 C 502.992188 -34.671875 503.703125 -31.53125 501.070312 -29.507812 C 490.4375 -13 476.96875 -0.644531 456.003906 0.265625 C 449.929688 0.46875 450.132812 4.621094 450.234375 8.871094 C 450.335938 16.265625 450.335938 23.65625 444.5625 29.53125 C 442.839844 33.785156 439.703125 36.316406 435.347656 37.53125 C 426.640625 43.402344 417.523438 43.707031 408.105469 39.554688 C 401.222656 31.859375 400.007812 31.65625 396.058594 37.328125 L 396.058594 37.125 C 392.410156 45.125 386.640625 50.898438 378.640625 54.542969 C 337.222656 88.265625 270.996094 71.960938 248.007812 22.039062 C 244.058594 13.429688 242.234375 8.972656 231.5 15.859375 C 216.917969 25.277344 196.566406 17.277344 189.070312 1.582031 C 187.652344 -1.355469 186.132812 -4.191406 184.617188 -7.027344 C 164.667969 4.214844 142.589844 2.59375 126.386719 -11.277344 C 108.96875 -26.0625 102.894531 -48.746094 110.691406 -70.011719 Z M 110.691406 -70.011719 " fill-opacity="1" fill-rule="nonzero"/></g><g clip-path="url(#63706ffd1c)"><path fill="#93a4ff" d="M 214.417969 -78.992188 C 221.203125 -97.523438 241.457031 -111.804688 262.214844 -111.804688 C 359.226562 -111.902344 456.238281 -111.804688 553.253906 -112.105469 C 564.695312 -112.105469 574.921875 -108.664062 585.152344 -104.613281 C 596.390625 -99.449219 603.175781 -89.421875 609.152344 -79.703125 C 615.226562 -69.777344 612.59375 -59.347656 607.933594 -49.523438 C 607.832031 -48.410156 607.734375 -47.296875 607.632812 -46.285156 C 606.71875 -43.652344 607.429688 -40.511719 604.796875 -38.488281 C 594.164062 -21.980469 580.695312 -9.625 559.734375 -8.714844 C 553.65625 -8.511719 553.859375 -4.359375 553.960938 -0.105469 C 554.0625 7.285156 554.0625 14.675781 548.289062 20.550781 C 546.570312 24.804688 543.429688 27.335938 539.074219 28.550781 C 530.367188 34.425781 521.253906 34.726562 511.835938 30.574219 C 504.949219 22.878906 503.734375 22.675781 499.785156 28.347656 L 499.785156 28.144531 C 496.136719 36.144531 490.367188 41.917969 482.367188 45.5625 C 440.949219 79.285156 374.722656 62.980469 351.734375 13.058594 C 347.785156 4.449219 345.960938 -0.0078125 335.226562 6.878906 C 320.644531 16.296875 300.292969 8.296875 292.796875 -7.398438 C 291.378906 -10.335938 289.863281 -13.171875 288.34375 -16.007812 C 268.394531 -4.765625 246.316406 -6.386719 230.117188 -20.257812 C 212.699219 -35.042969 206.621094 -57.726562 214.417969 -78.992188 Z M 214.417969 -78.992188 " fill-opacity="1" fill-rule="nonzero"/></g></svg>