<svg xmlns="http://www.w3.org/2000/svg" xmlns:xlink="http://www.w3.org/1999/xlink" width="1366" zoomAndPan="magnify" viewBox="0 0 1024.5 576" height="768" preserveAspectRatio="xMidYMid meet" version="1.0"><defs><clipPath id="9fe5c4a6d7"><path d="M 871 249 L 889 249 L 889 267 L 871 267 Z M 871 249 " clip-rule="nonzero"/></clipPath><clipPath id="b43acdab04"><path d="M 882.207031 242.378906 L 894.878906 260.042969 L 876.609375 273.152344 L 863.933594 255.492188 Z M 882.207031 242.378906 " clip-rule="nonzero"/></clipPath><clipPath id="b768783733"><path d="M 882.207031 242.378906 L 894.878906 260.042969 L 876.609375 273.152344 L 863.933594 255.492188 Z M 882.207031 242.378906 " clip-rule="nonzero"/></clipPath><clipPath id="b52dfaa2e8"><path d="M 882.207031 242.378906 L 894.878906 260.042969 L 876.609375 273.152344 L 863.933594 255.492188 Z M 882.207031 242.378906 " clip-rule="nonzero"/></clipPath><clipPath id="44a8c33b3d"><path d="M 868 258 L 871 258 L 871 263 L 868 263 Z M 868 258 " clip-rule="nonzero"/></clipPath><clipPath id="3be23f8790"><path d="M 882.207031 242.378906 L 894.878906 260.042969 L 876.609375 273.152344 L 863.933594 255.492188 Z M 882.207031 242.378906 " clip-rule="nonzero"/></clipPath><clipPath id="62dd70b8c6"><path d="M 882.207031 242.378906 L 894.878906 260.042969 L 876.609375 273.152344 L 863.933594 255.492188 Z M 882.207031 242.378906 " clip-rule="nonzero"/></clipPath><clipPath id="45d3f20ebb"><path d="M 882.207031 242.378906 L 894.878906 260.042969 L 876.609375 273.152344 L 863.933594 255.492188 Z M 882.207031 242.378906 " clip-rule="nonzero"/></clipPath><clipPath id="3c287377c9"><path d="M 875 246 L 881 246 L 881 251 L 875 251 Z M 875 246 " clip-rule="nonzero"/></clipPath><clipPath id="8aed635809"><path d="M 882.207031 242.378906 L 894.878906 260.042969 L 876.609375 273.152344 L 863.933594 255.492188 Z M 882.207031 242.378906 " clip-rule="nonzero"/></clipPath><clipPath id="98ef918877"><path d="M 882.207031 242.378906 L 894.878906 260.042969 L 876.609375 273.152344 L 863.933594 255.492188 Z M 882.207031 242.378906 " clip-rule="nonzero"/></clipPath><clipPath id="ba6c93bf2a"><path d="M 882.207031 242.378906 L 894.878906 260.042969 L 876.609375 273.152344 L 863.933594 255.492188 Z M 882.207031 242.378906 " clip-rule="nonzero"/></clipPath><clipPath id="93b0e3d29b"><path d="M 875 267 L 881 267 L 881 270 L 875 270 Z M 875 267 " clip-rule="nonzero"/></clipPath><clipPath id="0924b0843c"><path d="M 882.207031 242.378906 L 894.878906 260.042969 L 876.609375 273.152344 L 863.933594 255.492188 Z M 882.207031 242.378906 " clip-rule="nonzero"/></clipPath><clipPath id="4085d4be4d"><path d="M 882.207031 242.378906 L 894.878906 260.042969 L 876.609375 273.152344 L 863.933594 255.492188 Z M 882.207031 242.378906 " clip-rule="nonzero"/></clipPath><clipPath id="d8f29931a3"><path d="M 882.207031 242.378906 L 894.878906 260.042969 L 876.609375 273.152344 L 863.933594 255.492188 Z M 882.207031 242.378906 " clip-rule="nonzero"/></clipPath><clipPath id="6a68f541d4"><path d="M 880 264 L 886 264 L 886 268 L 880 268 Z M 880 264 " clip-rule="nonzero"/></clipPath><clipPath id="572ceae6c4"><path d="M 882.207031 242.378906 L 894.878906 260.042969 L 876.609375 273.152344 L 863.933594 255.492188 Z M 882.207031 242.378906 " clip-rule="nonzero"/></clipPath><clipPath id="6093c9ba4e"><path d="M 882.207031 242.378906 L 894.878906 260.042969 L 876.609375 273.152344 L 863.933594 255.492188 Z M 882.207031 242.378906 " clip-rule="nonzero"/></clipPath><clipPath id="118ee2b3ed"><path d="M 882.207031 242.378906 L 894.878906 260.042969 L 876.609375 273.152344 L 863.933594 255.492188 Z M 882.207031 242.378906 " clip-rule="nonzero"/></clipPath><clipPath id="57a5382918"><path d="M 870 259 L 872 259 L 872 263 L 870 263 Z M 870 259 " clip-rule="nonzero"/></clipPath><clipPath id="af367ac60a"><path d="M 882.207031 242.378906 L 894.878906 260.042969 L 876.609375 273.152344 L 863.933594 255.492188 Z M 882.207031 242.378906 " clip-rule="nonzero"/></clipPath><clipPath id="3c1ffb9203"><path d="M 882.207031 242.378906 L 894.878906 260.042969 L 876.609375 273.152344 L 863.933594 255.492188 Z M 882.207031 242.378906 " clip-rule="nonzero"/></clipPath><clipPath id="f31eba987a"><path d="M 882.207031 242.378906 L 894.878906 260.042969 L 876.609375 273.152344 L 863.933594 255.492188 Z M 882.207031 242.378906 " clip-rule="nonzero"/></clipPath><clipPath id="1b68dd7f8e"><path d="M 871 259 L 873 259 L 873 263 L 871 263 Z M 871 259 " clip-rule="nonzero"/></clipPath><clipPath id="7d90360161"><path d="M 882.207031 242.378906 L 894.878906 260.042969 L 876.609375 273.152344 L 863.933594 255.492188 Z M 882.207031 242.378906 " clip-rule="nonzero"/></clipPath><clipPath id="b9ec14851b"><path d="M 882.207031 242.378906 L 894.878906 260.042969 L 876.609375 273.152344 L 863.933594 255.492188 Z M 882.207031 242.378906 " clip-rule="nonzero"/></clipPath><clipPath id="67ba7cdef0"><path d="M 882.207031 242.378906 L 894.878906 260.042969 L 876.609375 273.152344 L 863.933594 255.492188 Z M 882.207031 242.378906 " clip-rule="nonzero"/></clipPath><clipPath id="2b0c9019a2"><path d="M 875 267 L 879 267 L 879 268 L 875 268 Z M 875 267 " clip-rule="nonzero"/></clipPath><clipPath id="eaae191779"><path d="M 882.207031 242.378906 L 894.878906 260.042969 L 876.609375 273.152344 L 863.933594 255.492188 Z M 882.207031 242.378906 " clip-rule="nonzero"/></clipPath><clipPath id="5d4d617914"><path d="M 882.207031 242.378906 L 894.878906 260.042969 L 876.609375 273.152344 L 863.933594 255.492188 Z M 882.207031 242.378906 " clip-rule="nonzero"/></clipPath><clipPath id="67434c7a2f"><path d="M 882.207031 242.378906 L 894.878906 260.042969 L 876.609375 273.152344 L 863.933594 255.492188 Z M 882.207031 242.378906 " clip-rule="nonzero"/></clipPath><clipPath id="c87e48a6a6"><path d="M 875 266 L 879 266 L 879 268 L 875 268 Z M 875 266 " clip-rule="nonzero"/></clipPath><clipPath id="65a7f8e1a0"><path d="M 882.207031 242.378906 L 894.878906 260.042969 L 876.609375 273.152344 L 863.933594 255.492188 Z M 882.207031 242.378906 " clip-rule="nonzero"/></clipPath><clipPath id="4af5271675"><path d="M 882.207031 242.378906 L 894.878906 260.042969 L 876.609375 273.152344 L 863.933594 255.492188 Z M 882.207031 242.378906 " clip-rule="nonzero"/></clipPath><clipPath id="29036c02ee"><path d="M 882.207031 242.378906 L 894.878906 260.042969 L 876.609375 273.152344 L 863.933594 255.492188 Z M 882.207031 242.378906 " clip-rule="nonzero"/></clipPath><clipPath id="78b71f34e4"><path d="M 876 249 L 879 249 L 879 251 L 876 251 Z M 876 249 " clip-rule="nonzero"/></clipPath><clipPath id="e4dd78d179"><path d="M 882.207031 242.378906 L 894.878906 260.042969 L 876.609375 273.152344 L 863.933594 255.492188 Z M 882.207031 242.378906 " clip-rule="nonzero"/></clipPath><clipPath id="2c23243f3b"><path d="M 882.207031 242.378906 L 894.878906 260.042969 L 876.609375 273.152344 L 863.933594 255.492188 Z M 882.207031 242.378906 " clip-rule="nonzero"/></clipPath><clipPath id="18de5520ac"><path d="M 882.207031 242.378906 L 894.878906 260.042969 L 876.609375 273.152344 L 863.933594 255.492188 Z M 882.207031 242.378906 " clip-rule="nonzero"/></clipPath><clipPath id="467044e601"><path d="M 881 263 L 885 263 L 885 265 L 881 265 Z M 881 263 " clip-rule="nonzero"/></clipPath><clipPath id="999d964a74"><path d="M 882.207031 242.378906 L 894.878906 260.042969 L 876.609375 273.152344 L 863.933594 255.492188 Z M 882.207031 242.378906 " clip-rule="nonzero"/></clipPath><clipPath id="9b3425d44c"><path d="M 882.207031 242.378906 L 894.878906 260.042969 L 876.609375 273.152344 L 863.933594 255.492188 Z M 882.207031 242.378906 " clip-rule="nonzero"/></clipPath><clipPath id="06667d858a"><path d="M 882.207031 242.378906 L 894.878906 260.042969 L 876.609375 273.152344 L 863.933594 255.492188 Z M 882.207031 242.378906 " clip-rule="nonzero"/></clipPath><clipPath id="e6f91d481a"><path d="M 875 266 L 879 266 L 879 268 L 875 268 Z M 875 266 " clip-rule="nonzero"/></clipPath><clipPath id="adef60bf9b"><path d="M 882.207031 242.378906 L 894.878906 260.042969 L 876.609375 273.152344 L 863.933594 255.492188 Z M 882.207031 242.378906 " clip-rule="nonzero"/></clipPath><clipPath id="6910adf7bf"><path d="M 882.207031 242.378906 L 894.878906 260.042969 L 876.609375 273.152344 L 863.933594 255.492188 Z M 882.207031 242.378906 " clip-rule="nonzero"/></clipPath><clipPath id="c00ef47f3b"><path d="M 882.207031 242.378906 L 894.878906 260.042969 L 876.609375 273.152344 L 863.933594 255.492188 Z M 882.207031 242.378906 " clip-rule="nonzero"/></clipPath><clipPath id="36da359a71"><path d="M 871 259 L 872 259 L 872 263 L 871 263 Z M 871 259 " clip-rule="nonzero"/></clipPath><clipPath id="0cdbec8837"><path d="M 882.207031 242.378906 L 894.878906 260.042969 L 876.609375 273.152344 L 863.933594 255.492188 Z M 882.207031 242.378906 " clip-rule="nonzero"/></clipPath><clipPath id="5842d9e1e4"><path d="M 882.207031 242.378906 L 894.878906 260.042969 L 876.609375 273.152344 L 863.933594 255.492188 Z M 882.207031 242.378906 " clip-rule="nonzero"/></clipPath><clipPath id="4dfe328ac4"><path d="M 882.207031 242.378906 L 894.878906 260.042969 L 876.609375 273.152344 L 863.933594 255.492188 Z M 882.207031 242.378906 " clip-rule="nonzero"/></clipPath><clipPath id="33f20c4284"><path d="M 881 250 L 889 250 L 889 257 L 881 257 Z M 881 250 " clip-rule="nonzero"/></clipPath><clipPath id="9e1723478f"><path d="M 882.207031 242.378906 L 894.878906 260.042969 L 876.609375 273.152344 L 863.933594 255.492188 Z M 882.207031 242.378906 " clip-rule="nonzero"/></clipPath><clipPath id="3013abd848"><path d="M 882.207031 242.378906 L 894.878906 260.042969 L 876.609375 273.152344 L 863.933594 255.492188 Z M 882.207031 242.378906 " clip-rule="nonzero"/></clipPath><clipPath id="b1a7a07293"><path d="M 882.207031 242.378906 L 894.878906 260.042969 L 876.609375 273.152344 L 863.933594 255.492188 Z M 882.207031 242.378906 " clip-rule="nonzero"/></clipPath><clipPath id="30e04ec805"><path d="M 877 255 L 883 255 L 883 261 L 877 261 Z M 877 255 " clip-rule="nonzero"/></clipPath><clipPath id="5af58fe206"><path d="M 882.207031 242.378906 L 894.878906 260.042969 L 876.609375 273.152344 L 863.933594 255.492188 Z M 882.207031 242.378906 " clip-rule="nonzero"/></clipPath><clipPath id="a1375a5e3e"><path d="M 882.207031 242.378906 L 894.878906 260.042969 L 876.609375 273.152344 L 863.933594 255.492188 Z M 882.207031 242.378906 " clip-rule="nonzero"/></clipPath><clipPath id="70bd6d52ee"><path d="M 882.207031 242.378906 L 894.878906 260.042969 L 876.609375 273.152344 L 863.933594 255.492188 Z M 882.207031 242.378906 " clip-rule="nonzero"/></clipPath><clipPath id="db074b1916"><path d="M 881 253 L 885 253 L 885 258 L 881 258 Z M 881 253 " clip-rule="nonzero"/></clipPath><clipPath id="dd24e7f6ad"><path d="M 882.207031 242.378906 L 894.878906 260.042969 L 876.609375 273.152344 L 863.933594 255.492188 Z M 882.207031 242.378906 " clip-rule="nonzero"/></clipPath><clipPath id="fea8e7f9fd"><path d="M 882.207031 242.378906 L 894.878906 260.042969 L 876.609375 273.152344 L 863.933594 255.492188 Z M 882.207031 242.378906 " clip-rule="nonzero"/></clipPath><clipPath id="0a889f3ade"><path d="M 882.207031 242.378906 L 894.878906 260.042969 L 876.609375 273.152344 L 863.933594 255.492188 Z M 882.207031 242.378906 " clip-rule="nonzero"/></clipPath><clipPath id="7237744637"><path d="M 880 254 L 885 254 L 885 258 L 880 258 Z M 880 254 " clip-rule="nonzero"/></clipPath><clipPath id="c5fa66cfe5"><path d="M 882.207031 242.378906 L 894.878906 260.042969 L 876.609375 273.152344 L 863.933594 255.492188 Z M 882.207031 242.378906 " clip-rule="nonzero"/></clipPath><clipPath id="cd651921a4"><path d="M 882.207031 242.378906 L 894.878906 260.042969 L 876.609375 273.152344 L 863.933594 255.492188 Z M 882.207031 242.378906 " clip-rule="nonzero"/></clipPath><clipPath id="bff56e7611"><path d="M 882.207031 242.378906 L 894.878906 260.042969 L 876.609375 273.152344 L 863.933594 255.492188 Z M 882.207031 242.378906 " clip-rule="nonzero"/></clipPath><clipPath id="5aa113b284"><path d="M 872 258 L 875 258 L 875 260 L 872 260 Z M 872 258 " clip-rule="nonzero"/></clipPath><clipPath id="c19b3d0810"><path d="M 882.207031 242.378906 L 894.878906 260.042969 L 876.609375 273.152344 L 863.933594 255.492188 Z M 882.207031 242.378906 " clip-rule="nonzero"/></clipPath><clipPath id="17b0e003b4"><path d="M 882.207031 242.378906 L 894.878906 260.042969 L 876.609375 273.152344 L 863.933594 255.492188 Z M 882.207031 242.378906 " clip-rule="nonzero"/></clipPath><clipPath id="5b0c8997a4"><path d="M 882.207031 242.378906 L 894.878906 260.042969 L 876.609375 273.152344 L 863.933594 255.492188 Z M 882.207031 242.378906 " clip-rule="nonzero"/></clipPath><clipPath id="60a606a0dc"><path d="M 877 258 L 881 258 L 881 261 L 877 261 Z M 877 258 " clip-rule="nonzero"/></clipPath><clipPath id="7f4041d22d"><path d="M 882.207031 242.378906 L 894.878906 260.042969 L 876.609375 273.152344 L 863.933594 255.492188 Z M 882.207031 242.378906 " clip-rule="nonzero"/></clipPath><clipPath id="0201cb7960"><path d="M 882.207031 242.378906 L 894.878906 260.042969 L 876.609375 273.152344 L 863.933594 255.492188 Z M 882.207031 242.378906 " clip-rule="nonzero"/></clipPath><clipPath id="9b0856eea3"><path d="M 882.207031 242.378906 L 894.878906 260.042969 L 876.609375 273.152344 L 863.933594 255.492188 Z M 882.207031 242.378906 " clip-rule="nonzero"/></clipPath><clipPath id="505b150b52"><path d="M 877 263 L 879 263 L 879 266 L 877 266 Z M 877 263 " clip-rule="nonzero"/></clipPath><clipPath id="5bbdab9140"><path d="M 882.207031 242.378906 L 894.878906 260.042969 L 876.609375 273.152344 L 863.933594 255.492188 Z M 882.207031 242.378906 " clip-rule="nonzero"/></clipPath><clipPath id="89f45693b9"><path d="M 882.207031 242.378906 L 894.878906 260.042969 L 876.609375 273.152344 L 863.933594 255.492188 Z M 882.207031 242.378906 " clip-rule="nonzero"/></clipPath><clipPath id="7436b0f168"><path d="M 882.207031 242.378906 L 894.878906 260.042969 L 876.609375 273.152344 L 863.933594 255.492188 Z M 882.207031 242.378906 " clip-rule="nonzero"/></clipPath><clipPath id="3fa14c96b2"><path d="M 879 253 L 881 253 L 881 254 L 879 254 Z M 879 253 " clip-rule="nonzero"/></clipPath><clipPath id="68b5256a6c"><path d="M 882.207031 242.378906 L 894.878906 260.042969 L 876.609375 273.152344 L 863.933594 255.492188 Z M 882.207031 242.378906 " clip-rule="nonzero"/></clipPath><clipPath id="4240783694"><path d="M 882.207031 242.378906 L 894.878906 260.042969 L 876.609375 273.152344 L 863.933594 255.492188 Z M 882.207031 242.378906 " clip-rule="nonzero"/></clipPath><clipPath id="0eebf5f9f5"><path d="M 882.207031 242.378906 L 894.878906 260.042969 L 876.609375 273.152344 L 863.933594 255.492188 Z M 882.207031 242.378906 " clip-rule="nonzero"/></clipPath><clipPath id="d06f6f0216"><path d="M 883 258 L 885 258 L 885 260 L 883 260 Z M 883 258 " clip-rule="nonzero"/></clipPath><clipPath id="0453446deb"><path d="M 882.207031 242.378906 L 894.878906 260.042969 L 876.609375 273.152344 L 863.933594 255.492188 Z M 882.207031 242.378906 " clip-rule="nonzero"/></clipPath><clipPath id="07775e5388"><path d="M 882.207031 242.378906 L 894.878906 260.042969 L 876.609375 273.152344 L 863.933594 255.492188 Z M 882.207031 242.378906 " clip-rule="nonzero"/></clipPath><clipPath id="aa664a144a"><path d="M 882.207031 242.378906 L 894.878906 260.042969 L 876.609375 273.152344 L 863.933594 255.492188 Z M 882.207031 242.378906 " clip-rule="nonzero"/></clipPath><clipPath id="127d9019b0"><path d="M 880 258 L 882 258 L 882 260 L 880 260 Z M 880 258 " clip-rule="nonzero"/></clipPath><clipPath id="277e5b6874"><path d="M 882.207031 242.378906 L 894.878906 260.042969 L 876.609375 273.152344 L 863.933594 255.492188 Z M 882.207031 242.378906 " clip-rule="nonzero"/></clipPath><clipPath id="089e3fc60f"><path d="M 882.207031 242.378906 L 894.878906 260.042969 L 876.609375 273.152344 L 863.933594 255.492188 Z M 882.207031 242.378906 " clip-rule="nonzero"/></clipPath><clipPath id="8d8555e48d"><path d="M 882.207031 242.378906 L 894.878906 260.042969 L 876.609375 273.152344 L 863.933594 255.492188 Z M 882.207031 242.378906 " clip-rule="nonzero"/></clipPath><clipPath id="a084f0acdc"><path d="M 881 257 L 883 257 L 883 259 L 881 259 Z M 881 257 " clip-rule="nonzero"/></clipPath><clipPath id="e98f88668c"><path d="M 882.207031 242.378906 L 894.878906 260.042969 L 876.609375 273.152344 L 863.933594 255.492188 Z M 882.207031 242.378906 " clip-rule="nonzero"/></clipPath><clipPath id="c2b3dc0045"><path d="M 882.207031 242.378906 L 894.878906 260.042969 L 876.609375 273.152344 L 863.933594 255.492188 Z M 882.207031 242.378906 " clip-rule="nonzero"/></clipPath><clipPath id="0f50178320"><path d="M 882.207031 242.378906 L 894.878906 260.042969 L 876.609375 273.152344 L 863.933594 255.492188 Z M 882.207031 242.378906 " clip-rule="nonzero"/></clipPath><clipPath id="d72a9033be"><path d="M 880 259 L 881 259 L 881 260 L 880 260 Z M 880 259 " clip-rule="nonzero"/></clipPath><clipPath id="b80642e210"><path d="M 882.207031 242.378906 L 894.878906 260.042969 L 876.609375 273.152344 L 863.933594 255.492188 Z M 882.207031 242.378906 " clip-rule="nonzero"/></clipPath><clipPath id="7fd3225a08"><path d="M 882.207031 242.378906 L 894.878906 260.042969 L 876.609375 273.152344 L 863.933594 255.492188 Z M 882.207031 242.378906 " clip-rule="nonzero"/></clipPath><clipPath id="e72c99ba39"><path d="M 882.207031 242.378906 L 894.878906 260.042969 L 876.609375 273.152344 L 863.933594 255.492188 Z M 882.207031 242.378906 " clip-rule="nonzero"/></clipPath><clipPath id="5278ce7b31"><path d="M 877 267 L 878 267 L 878 268 L 877 268 Z M 877 267 " clip-rule="nonzero"/></clipPath><clipPath id="591d8bf18f"><path d="M 882.207031 242.378906 L 894.878906 260.042969 L 876.609375 273.152344 L 863.933594 255.492188 Z M 882.207031 242.378906 " clip-rule="nonzero"/></clipPath><clipPath id="b7b4922dfc"><path d="M 882.207031 242.378906 L 894.878906 260.042969 L 876.609375 273.152344 L 863.933594 255.492188 Z M 882.207031 242.378906 " clip-rule="nonzero"/></clipPath><clipPath id="c3227f8ba5"><path d="M 882.207031 242.378906 L 894.878906 260.042969 L 876.609375 273.152344 L 863.933594 255.492188 Z M 882.207031 242.378906 " clip-rule="nonzero"/></clipPath><clipPath id="87dee1b586"><path d="M 877 266 L 878 266 L 878 267 L 877 267 Z M 877 266 " clip-rule="nonzero"/></clipPath><clipPath id="2f63e90ac7"><path d="M 882.207031 242.378906 L 894.878906 260.042969 L 876.609375 273.152344 L 863.933594 255.492188 Z M 882.207031 242.378906 " clip-rule="nonzero"/></clipPath><clipPath id="c0b0a561c6"><path d="M 882.207031 242.378906 L 894.878906 260.042969 L 876.609375 273.152344 L 863.933594 255.492188 Z M 882.207031 242.378906 " clip-rule="nonzero"/></clipPath><clipPath id="766e01cded"><path d="M 882.207031 242.378906 L 894.878906 260.042969 L 876.609375 273.152344 L 863.933594 255.492188 Z M 882.207031 242.378906 " clip-rule="nonzero"/></clipPath><clipPath id="b7de588d29"><path d="M 882 263 L 884 263 L 884 265 L 882 265 Z M 882 263 " clip-rule="nonzero"/></clipPath><clipPath id="25279f24e1"><path d="M 882.207031 242.378906 L 894.878906 260.042969 L 876.609375 273.152344 L 863.933594 255.492188 Z M 882.207031 242.378906 " clip-rule="nonzero"/></clipPath><clipPath id="c23076e94a"><path d="M 882.207031 242.378906 L 894.878906 260.042969 L 876.609375 273.152344 L 863.933594 255.492188 Z M 882.207031 242.378906 " clip-rule="nonzero"/></clipPath><clipPath id="3a964e6165"><path d="M 882.207031 242.378906 L 894.878906 260.042969 L 876.609375 273.152344 L 863.933594 255.492188 Z M 882.207031 242.378906 " clip-rule="nonzero"/></clipPath><clipPath id="721437c776"><path d="M 883 251 L 887 251 L 887 253 L 883 253 Z M 883 251 " clip-rule="nonzero"/></clipPath><clipPath id="722489be37"><path d="M 882.207031 242.378906 L 894.878906 260.042969 L 876.609375 273.152344 L 863.933594 255.492188 Z M 882.207031 242.378906 " clip-rule="nonzero"/></clipPath><clipPath id="e64e0b1eab"><path d="M 882.207031 242.378906 L 894.878906 260.042969 L 876.609375 273.152344 L 863.933594 255.492188 Z M 882.207031 242.378906 " clip-rule="nonzero"/></clipPath><clipPath id="93354e6f7d"><path d="M 882.207031 242.378906 L 894.878906 260.042969 L 876.609375 273.152344 L 863.933594 255.492188 Z M 882.207031 242.378906 " clip-rule="nonzero"/></clipPath><clipPath id="f0e54b36ae"><path d="M 882 251 L 884 251 L 884 253 L 882 253 Z M 882 251 " clip-rule="nonzero"/></clipPath><clipPath id="3967a10987"><path d="M 882.207031 242.378906 L 894.878906 260.042969 L 876.609375 273.152344 L 863.933594 255.492188 Z M 882.207031 242.378906 " clip-rule="nonzero"/></clipPath><clipPath id="65a6907534"><path d="M 882.207031 242.378906 L 894.878906 260.042969 L 876.609375 273.152344 L 863.933594 255.492188 Z M 882.207031 242.378906 " clip-rule="nonzero"/></clipPath><clipPath id="da9424ac9b"><path d="M 882.207031 242.378906 L 894.878906 260.042969 L 876.609375 273.152344 L 863.933594 255.492188 Z M 882.207031 242.378906 " clip-rule="nonzero"/></clipPath><clipPath id="877b6e9d6a"><path d="M 879 256 L 881 256 L 881 259 L 879 259 Z M 879 256 " clip-rule="nonzero"/></clipPath><clipPath id="64ec282577"><path d="M 882.207031 242.378906 L 894.878906 260.042969 L 876.609375 273.152344 L 863.933594 255.492188 Z M 882.207031 242.378906 " clip-rule="nonzero"/></clipPath><clipPath id="8d9b5ae352"><path d="M 882.207031 242.378906 L 894.878906 260.042969 L 876.609375 273.152344 L 863.933594 255.492188 Z M 882.207031 242.378906 " clip-rule="nonzero"/></clipPath><clipPath id="d3553aeb3a"><path d="M 882.207031 242.378906 L 894.878906 260.042969 L 876.609375 273.152344 L 863.933594 255.492188 Z M 882.207031 242.378906 " clip-rule="nonzero"/></clipPath><clipPath id="698bb81478"><path d="M 879 255 L 881 255 L 881 257 L 879 257 Z M 879 255 " clip-rule="nonzero"/></clipPath><clipPath id="5c174d65a2"><path d="M 882.207031 242.378906 L 894.878906 260.042969 L 876.609375 273.152344 L 863.933594 255.492188 Z M 882.207031 242.378906 " clip-rule="nonzero"/></clipPath><clipPath id="f674c04f76"><path d="M 882.207031 242.378906 L 894.878906 260.042969 L 876.609375 273.152344 L 863.933594 255.492188 Z M 882.207031 242.378906 " clip-rule="nonzero"/></clipPath><clipPath id="2edc0c8f52"><path d="M 882.207031 242.378906 L 894.878906 260.042969 L 876.609375 273.152344 L 863.933594 255.492188 Z M 882.207031 242.378906 " clip-rule="nonzero"/></clipPath><clipPath id="b5b593a5b4"><path d="M 880 256 L 882 256 L 882 258 L 880 258 Z M 880 256 " clip-rule="nonzero"/></clipPath><clipPath id="8d89e916f4"><path d="M 882.207031 242.378906 L 894.878906 260.042969 L 876.609375 273.152344 L 863.933594 255.492188 Z M 882.207031 242.378906 " clip-rule="nonzero"/></clipPath><clipPath id="4ebfa04538"><path d="M 882.207031 242.378906 L 894.878906 260.042969 L 876.609375 273.152344 L 863.933594 255.492188 Z M 882.207031 242.378906 " clip-rule="nonzero"/></clipPath><clipPath id="c5f4bce409"><path d="M 882.207031 242.378906 L 894.878906 260.042969 L 876.609375 273.152344 L 863.933594 255.492188 Z M 882.207031 242.378906 " clip-rule="nonzero"/></clipPath><clipPath id="a82087f0a1"><path d="M 878 257 L 881 257 L 881 260 L 878 260 Z M 878 257 " clip-rule="nonzero"/></clipPath><clipPath id="c25b5e1936"><path d="M 882.207031 242.378906 L 894.878906 260.042969 L 876.609375 273.152344 L 863.933594 255.492188 Z M 882.207031 242.378906 " clip-rule="nonzero"/></clipPath><clipPath id="485999eb15"><path d="M 882.207031 242.378906 L 894.878906 260.042969 L 876.609375 273.152344 L 863.933594 255.492188 Z M 882.207031 242.378906 " clip-rule="nonzero"/></clipPath><clipPath id="2b0ea01252"><path d="M 882.207031 242.378906 L 894.878906 260.042969 L 876.609375 273.152344 L 863.933594 255.492188 Z M 882.207031 242.378906 " clip-rule="nonzero"/></clipPath><clipPath id="39ae6b43a3"><path d="M 878 257 L 880 257 L 880 260 L 878 260 Z M 878 257 " clip-rule="nonzero"/></clipPath><clipPath id="1eb188ea50"><path d="M 882.207031 242.378906 L 894.878906 260.042969 L 876.609375 273.152344 L 863.933594 255.492188 Z M 882.207031 242.378906 " clip-rule="nonzero"/></clipPath><clipPath id="55383f57d3"><path d="M 882.207031 242.378906 L 894.878906 260.042969 L 876.609375 273.152344 L 863.933594 255.492188 Z M 882.207031 242.378906 " clip-rule="nonzero"/></clipPath><clipPath id="226aa4df43"><path d="M 882.207031 242.378906 L 894.878906 260.042969 L 876.609375 273.152344 L 863.933594 255.492188 Z M 882.207031 242.378906 " clip-rule="nonzero"/></clipPath><clipPath id="4a0d456f50"><path d="M 881 257 L 882 257 L 882 259 L 881 259 Z M 881 257 " clip-rule="nonzero"/></clipPath><clipPath id="3183cdc102"><path d="M 882.207031 242.378906 L 894.878906 260.042969 L 876.609375 273.152344 L 863.933594 255.492188 Z M 882.207031 242.378906 " clip-rule="nonzero"/></clipPath><clipPath id="a16671ef8e"><path d="M 882.207031 242.378906 L 894.878906 260.042969 L 876.609375 273.152344 L 863.933594 255.492188 Z M 882.207031 242.378906 " clip-rule="nonzero"/></clipPath><clipPath id="eb4b9494d3"><path d="M 882.207031 242.378906 L 894.878906 260.042969 L 876.609375 273.152344 L 863.933594 255.492188 Z M 882.207031 242.378906 " clip-rule="nonzero"/></clipPath><clipPath id="313e80a86a"><path d="M 879 255 L 881 255 L 881 257 L 879 257 Z M 879 255 " clip-rule="nonzero"/></clipPath><clipPath id="a39d8305fd"><path d="M 882.207031 242.378906 L 894.878906 260.042969 L 876.609375 273.152344 L 863.933594 255.492188 Z M 882.207031 242.378906 " clip-rule="nonzero"/></clipPath><clipPath id="42d88426e2"><path d="M 882.207031 242.378906 L 894.878906 260.042969 L 876.609375 273.152344 L 863.933594 255.492188 Z M 882.207031 242.378906 " clip-rule="nonzero"/></clipPath><clipPath id="9eb7eee576"><path d="M 882.207031 242.378906 L 894.878906 260.042969 L 876.609375 273.152344 L 863.933594 255.492188 Z M 882.207031 242.378906 " clip-rule="nonzero"/></clipPath><clipPath id="cdbb9681fe"><path d="M 880 253 L 881 253 L 881 254 L 880 254 Z M 880 253 " clip-rule="nonzero"/></clipPath><clipPath id="8359be56ef"><path d="M 882.207031 242.378906 L 894.878906 260.042969 L 876.609375 273.152344 L 863.933594 255.492188 Z M 882.207031 242.378906 " clip-rule="nonzero"/></clipPath><clipPath id="c088285a05"><path d="M 882.207031 242.378906 L 894.878906 260.042969 L 876.609375 273.152344 L 863.933594 255.492188 Z M 882.207031 242.378906 " clip-rule="nonzero"/></clipPath><clipPath id="1248258898"><path d="M 882.207031 242.378906 L 894.878906 260.042969 L 876.609375 273.152344 L 863.933594 255.492188 Z M 882.207031 242.378906 " clip-rule="nonzero"/></clipPath><clipPath id="1082d64c79"><path d="M 884 258 L 885 258 L 885 259 L 884 259 Z M 884 258 " clip-rule="nonzero"/></clipPath><clipPath id="7e1f707939"><path d="M 882.207031 242.378906 L 894.878906 260.042969 L 876.609375 273.152344 L 863.933594 255.492188 Z M 882.207031 242.378906 " clip-rule="nonzero"/></clipPath><clipPath id="3089d5194d"><path d="M 882.207031 242.378906 L 894.878906 260.042969 L 876.609375 273.152344 L 863.933594 255.492188 Z M 882.207031 242.378906 " clip-rule="nonzero"/></clipPath><clipPath id="54e588ec3e"><path d="M 882.207031 242.378906 L 894.878906 260.042969 L 876.609375 273.152344 L 863.933594 255.492188 Z M 882.207031 242.378906 " clip-rule="nonzero"/></clipPath><clipPath id="174bae31f2"><path d="M 880 256 L 881 256 L 881 257 L 880 257 Z M 880 256 " clip-rule="nonzero"/></clipPath><clipPath id="fcf0e909ba"><path d="M 882.207031 242.378906 L 894.878906 260.042969 L 876.609375 273.152344 L 863.933594 255.492188 Z M 882.207031 242.378906 " clip-rule="nonzero"/></clipPath><clipPath id="1b3b9322d1"><path d="M 882.207031 242.378906 L 894.878906 260.042969 L 876.609375 273.152344 L 863.933594 255.492188 Z M 882.207031 242.378906 " clip-rule="nonzero"/></clipPath><clipPath id="e39e8538fe"><path d="M 882.207031 242.378906 L 894.878906 260.042969 L 876.609375 273.152344 L 863.933594 255.492188 Z M 882.207031 242.378906 " clip-rule="nonzero"/></clipPath><clipPath id="50191f3c1b"><path d="M 881 257 L 882 257 L 882 258 L 881 258 Z M 881 257 " clip-rule="nonzero"/></clipPath><clipPath id="adde348cd7"><path d="M 882.207031 242.378906 L 894.878906 260.042969 L 876.609375 273.152344 L 863.933594 255.492188 Z M 882.207031 242.378906 " clip-rule="nonzero"/></clipPath><clipPath id="915f1edcae"><path d="M 882.207031 242.378906 L 894.878906 260.042969 L 876.609375 273.152344 L 863.933594 255.492188 Z M 882.207031 242.378906 " clip-rule="nonzero"/></clipPath><clipPath id="d7c347accf"><path d="M 882.207031 242.378906 L 894.878906 260.042969 L 876.609375 273.152344 L 863.933594 255.492188 Z M 882.207031 242.378906 " clip-rule="nonzero"/></clipPath><clipPath id="2a9862cb42"><path d="M 873 259 L 874 259 L 874 260 L 873 260 Z M 873 259 " clip-rule="nonzero"/></clipPath><clipPath id="e53acce0a7"><path d="M 882.207031 242.378906 L 894.878906 260.042969 L 876.609375 273.152344 L 863.933594 255.492188 Z M 882.207031 242.378906 " clip-rule="nonzero"/></clipPath><clipPath id="e17fc8fdc1"><path d="M 882.207031 242.378906 L 894.878906 260.042969 L 876.609375 273.152344 L 863.933594 255.492188 Z M 882.207031 242.378906 " clip-rule="nonzero"/></clipPath><clipPath id="a764e8fc0d"><path d="M 882.207031 242.378906 L 894.878906 260.042969 L 876.609375 273.152344 L 863.933594 255.492188 Z M 882.207031 242.378906 " clip-rule="nonzero"/></clipPath><clipPath id="741d687a44"><path d="M 878 264 L 879 264 L 879 265 L 878 265 Z M 878 264 " clip-rule="nonzero"/></clipPath><clipPath id="bfa7dc5720"><path d="M 882.207031 242.378906 L 894.878906 260.042969 L 876.609375 273.152344 L 863.933594 255.492188 Z M 882.207031 242.378906 " clip-rule="nonzero"/></clipPath><clipPath id="b2ed3db603"><path d="M 882.207031 242.378906 L 894.878906 260.042969 L 876.609375 273.152344 L 863.933594 255.492188 Z M 882.207031 242.378906 " clip-rule="nonzero"/></clipPath><clipPath id="09c7026534"><path d="M 882.207031 242.378906 L 894.878906 260.042969 L 876.609375 273.152344 L 863.933594 255.492188 Z M 882.207031 242.378906 " clip-rule="nonzero"/></clipPath><clipPath id="ba805391f1"><path d="M 871 259 L 872 259 L 872 261 L 871 261 Z M 871 259 " clip-rule="nonzero"/></clipPath><clipPath id="6bf702a8d9"><path d="M 882.207031 242.378906 L 894.878906 260.042969 L 876.609375 273.152344 L 863.933594 255.492188 Z M 882.207031 242.378906 " clip-rule="nonzero"/></clipPath><clipPath id="e527a0fa99"><path d="M 882.207031 242.378906 L 894.878906 260.042969 L 876.609375 273.152344 L 863.933594 255.492188 Z M 882.207031 242.378906 " clip-rule="nonzero"/></clipPath><clipPath id="bef9bc3281"><path d="M 882.207031 242.378906 L 894.878906 260.042969 L 876.609375 273.152344 L 863.933594 255.492188 Z M 882.207031 242.378906 " clip-rule="nonzero"/></clipPath><clipPath id="1828927903"><path d="M 870 259 L 872 259 L 872 261 L 870 261 Z M 870 259 " clip-rule="nonzero"/></clipPath><clipPath id="20594ac13e"><path d="M 882.207031 242.378906 L 894.878906 260.042969 L 876.609375 273.152344 L 863.933594 255.492188 Z M 882.207031 242.378906 " clip-rule="nonzero"/></clipPath><clipPath id="6b13fb9fb2"><path d="M 882.207031 242.378906 L 894.878906 260.042969 L 876.609375 273.152344 L 863.933594 255.492188 Z M 882.207031 242.378906 " clip-rule="nonzero"/></clipPath><clipPath id="7e9a19bfb0"><path d="M 882.207031 242.378906 L 894.878906 260.042969 L 876.609375 273.152344 L 863.933594 255.492188 Z M 882.207031 242.378906 " clip-rule="nonzero"/></clipPath><clipPath id="55f7f5aad1"><path d="M 877 249 L 879 249 L 879 250 L 877 250 Z M 877 249 " clip-rule="nonzero"/></clipPath><clipPath id="cd040d7245"><path d="M 882.207031 242.378906 L 894.878906 260.042969 L 876.609375 273.152344 L 863.933594 255.492188 Z M 882.207031 242.378906 " clip-rule="nonzero"/></clipPath><clipPath id="439310b769"><path d="M 882.207031 242.378906 L 894.878906 260.042969 L 876.609375 273.152344 L 863.933594 255.492188 Z M 882.207031 242.378906 " clip-rule="nonzero"/></clipPath><clipPath id="67fd3c8a9b"><path d="M 882.207031 242.378906 L 894.878906 260.042969 L 876.609375 273.152344 L 863.933594 255.492188 Z M 882.207031 242.378906 " clip-rule="nonzero"/></clipPath><clipPath id="8f06b56242"><path d="M 230.585938 29 L 262.820312 29 L 262.820312 86.5 L 230.585938 86.5 Z M 230.585938 29 " clip-rule="nonzero"/></clipPath><clipPath id="cb64dcb14d"><path d="M 260 54 L 262.820312 54 L 262.820312 62 L 260 62 Z M 260 54 " clip-rule="nonzero"/></clipPath></defs><g clip-path="url(#9fe5c4a6d7)"><g clip-path="url(#b43acdab04)"><g clip-path="url(#b768783733)"><g clip-path="url(#b52dfaa2e8)"><path fill="#f7f7f7" d="M 871.832031 259.386719 C 872.796875 258.972656 873.738281 258.511719 874.707031 258.105469 C 875.214844 257.886719 875.648438 257.535156 876.058594 257.167969 C 876.8125 256.492188 877.554688 255.796875 878.394531 255.21875 C 878.421875 255.199219 878.453125 255.183594 878.453125 255.121094 C 877.988281 254.976562 877.550781 254.738281 877.066406 254.628906 C 876.734375 254.550781 876.429688 254.402344 876.117188 254.28125 C 875.882812 254.191406 875.800781 253.996094 875.769531 253.757812 C 875.664062 252.871094 875.882812 252.035156 876.113281 251.203125 C 876.1875 250.933594 876.300781 250.683594 876.394531 250.421875 C 876.652344 250.449219 876.882812 250.367188 877.113281 250.265625 C 877.449219 250.117188 877.792969 249.992188 878.136719 249.867188 C 878.226562 249.832031 878.335938 249.742188 878.421875 249.882812 C 878.257812 250.5 878.101562 251.117188 878.078125 251.765625 C 878.058594 252.3125 878.121094 252.414062 878.632812 252.585938 C 879.402344 252.847656 880.1875 253.035156 881.007812 253.210938 C 881.027344 253.070312 881.046875 252.941406 881.070312 252.8125 C 881.25 251.816406 881.71875 250.996094 882.542969 250.414062 C 883.53125 249.71875 884.632812 249.574219 885.804688 249.914062 C 888.085938 250.578125 889.453125 253.136719 888.734375 255.386719 C 888.210938 257.023438 886.6875 258.070312 884.976562 257.964844 C 884.761719 257.953125 884.761719 257.953125 884.714844 258.160156 C 884.550781 258.910156 884.488281 259.675781 884.394531 260.4375 C 884.253906 261.628906 884.199219 262.824219 884.199219 264.027344 C 884.199219 264.210938 884.210938 264.398438 884.15625 264.578125 C 883.996094 264.582031 883.871094 264.484375 883.734375 264.421875 C 883.238281 264.199219 882.75 263.957031 882.210938 263.851562 C 882.15625 263.839844 882.097656 263.824219 882.074219 263.757812 C 881.960938 262.957031 882.019531 262.15625 882.066406 261.355469 C 882.085938 261.058594 882.089844 260.753906 882.101562 260.457031 C 882.003906 260.433594 881.976562 260.496094 881.9375 260.53125 C 881.085938 261.390625 880.28125 262.289062 879.585938 263.285156 C 879.21875 263.8125 878.957031 264.386719 878.816406 265.019531 C 878.691406 265.585938 878.503906 266.132812 878.335938 266.6875 C 878.222656 266.742188 878.125 266.667969 878.019531 266.644531 C 877.453125 266.527344 876.875 266.496094 876.300781 266.453125 C 876.023438 266.433594 875.753906 266.410156 875.484375 266.339844 C 875.539062 265.828125 875.621094 265.324219 875.761719 264.832031 C 875.890625 264.386719 875.992188 263.9375 876.070312 263.480469 C 876.199219 262.707031 876.464844 261.972656 876.652344 261.214844 C 876.664062 261.164062 876.675781 261.117188 876.695312 261.050781 C 876.519531 261.050781 876.371094 261.082031 876.230469 261.144531 C 875.738281 261.378906 875.214844 261.527344 874.6875 261.65625 C 874.414062 261.722656 874.136719 261.789062 873.867188 261.878906 C 873.285156 262.082031 872.683594 262.226562 872.085938 262.371094 C 871.957031 262.101562 871.992188 261.808594 871.96875 261.527344 C 871.917969 260.898438 871.878906 260.265625 871.746094 259.640625 C 871.726562 259.539062 871.703125 259.4375 871.832031 259.386719 Z M 871.832031 259.386719 " fill-opacity="1" fill-rule="nonzero"/></g></g></g></g><g clip-path="url(#44a8c33b3d)"><g clip-path="url(#3be23f8790)"><g clip-path="url(#62dd70b8c6)"><g clip-path="url(#45d3f20ebb)"><path fill="#f7f7f7" d="M 870.703125 262.675781 C 870.308594 262.792969 869.90625 262.851562 869.492188 262.769531 C 869.257812 262.722656 869.066406 262.609375 868.921875 262.417969 C 868.730469 262.175781 868.582031 261.910156 868.515625 261.605469 C 868.390625 261.035156 868.28125 260.460938 868.355469 259.875 C 868.378906 259.65625 868.371094 259.433594 868.382812 259.214844 C 868.390625 258.96875 868.429688 258.730469 868.527344 258.503906 C 868.738281 258 869.179688 257.933594 869.523438 258.367188 C 869.875 258.8125 870.21875 259.269531 870.488281 259.773438 C 870.507812 259.808594 870.535156 259.84375 870.558594 259.878906 C 870.65625 259.953125 870.625 260.0625 870.632812 260.160156 C 870.675781 260.722656 870.65625 261.285156 870.65625 261.847656 C 870.65625 262.125 870.703125 262.398438 870.707031 262.675781 Z M 870.703125 262.675781 " fill-opacity="1" fill-rule="nonzero"/></g></g></g></g><g clip-path="url(#3c287377c9)"><g clip-path="url(#8aed635809)"><g clip-path="url(#98ef918877)"><g clip-path="url(#ba6c93bf2a)"><path fill="#f7f7f7" d="M 876.539062 249.964844 C 876.582031 249.835938 876.621094 249.710938 876.667969 249.566406 C 876.46875 249.539062 876.285156 249.511719 876.105469 249.484375 C 875.964844 249.460938 875.828125 249.417969 875.710938 249.320312 C 875.535156 249.175781 875.558594 248.972656 875.765625 248.882812 C 875.925781 248.8125 876.09375 248.820312 876.261719 248.835938 C 876.4375 248.851562 876.613281 248.878906 876.789062 248.894531 C 876.886719 248.902344 876.988281 248.910156 877.09375 248.882812 C 877.089844 248.800781 877.011719 248.808594 876.96875 248.785156 C 876.761719 248.6875 876.542969 248.613281 876.355469 248.480469 C 876.128906 248.324219 876.050781 248.09375 876.152344 247.917969 C 876.25 247.75 876.476562 247.703125 876.714844 247.804688 C 876.859375 247.863281 876.980469 247.957031 877.105469 248.046875 C 877.21875 248.128906 877.339844 248.207031 877.453125 248.285156 C 877.46875 248.277344 877.480469 248.265625 877.496094 248.253906 C 877.402344 248.105469 877.3125 247.949219 877.214844 247.800781 C 877.035156 247.53125 876.875 247.25 876.792969 246.9375 C 876.753906 246.785156 876.730469 246.636719 876.765625 246.484375 C 876.796875 246.335938 876.867188 246.21875 877.027344 246.183594 C 877.183594 246.148438 877.308594 246.210938 877.410156 246.328125 C 877.496094 246.433594 877.558594 246.554688 877.601562 246.683594 C 877.726562 247.074219 877.925781 247.429688 878.085938 247.8125 C 878.167969 247.78125 878.15625 247.714844 878.171875 247.664062 C 878.273438 247.316406 878.394531 246.976562 878.578125 246.664062 C 878.640625 246.558594 878.714844 246.453125 878.8125 246.375 C 878.894531 246.308594 878.988281 246.269531 879.089844 246.324219 C 879.199219 246.382812 879.199219 246.484375 879.183594 246.589844 C 879.15625 246.75 879.101562 246.898438 879.050781 247.050781 C 878.921875 247.429688 878.785156 247.808594 878.746094 248.21875 C 878.742188 248.25 878.742188 248.28125 878.738281 248.339844 C 878.855469 248.304688 878.910156 248.222656 878.980469 248.160156 C 879.140625 248.003906 879.296875 247.84375 879.464844 247.691406 C 879.550781 247.613281 879.648438 247.550781 879.773438 247.542969 C 880.023438 247.527344 880.171875 247.71875 880.097656 247.957031 C 880.0625 248.0625 880 248.148438 879.914062 248.21875 C 879.710938 248.378906 879.507812 248.539062 879.304688 248.699219 C 879.089844 248.871094 878.882812 249.046875 878.667969 249.21875 C 878.613281 249.265625 878.574219 249.316406 878.550781 249.378906 C 877.945312 249.550781 877.394531 249.867188 876.78125 250.019531 C 876.695312 250.039062 876.597656 250.078125 876.542969 249.957031 Z M 876.539062 249.964844 " fill-opacity="1" fill-rule="nonzero"/></g></g></g></g><g clip-path="url(#93b0e3d29b)"><g clip-path="url(#0924b0843c)"><g clip-path="url(#4085d4be4d)"><g clip-path="url(#d8f29931a3)"><path fill="#f7f7f7" d="M 877.824219 267.863281 C 877.804688 267.917969 877.726562 267.996094 877.863281 268 C 878.25 268.015625 878.628906 268.109375 879.007812 268.179688 C 879.300781 268.234375 879.574219 268.335938 879.824219 268.507812 C 879.898438 268.554688 879.964844 268.605469 880.019531 268.667969 C 880.203125 268.894531 880.15625 269.171875 879.90625 269.3125 C 879.78125 269.382812 879.644531 269.421875 879.503906 269.4375 C 878.789062 269.527344 878.085938 269.671875 877.355469 269.644531 C 877.089844 269.636719 876.820312 269.664062 876.554688 269.675781 C 876.335938 269.683594 876.117188 269.679688 875.902344 269.640625 C 875.582031 269.578125 875.394531 269.390625 875.320312 269.078125 C 875.277344 268.902344 875.265625 268.726562 875.273438 268.546875 C 875.289062 268.304688 875.304688 268.0625 875.320312 267.816406 C 875.632812 267.765625 875.949219 267.773438 876.265625 267.777344 C 876.695312 267.789062 877.121094 267.808594 877.550781 267.792969 C 877.644531 267.789062 877.753906 267.757812 877.824219 267.867188 Z M 877.824219 267.863281 " fill-opacity="1" fill-rule="nonzero"/></g></g></g></g><g clip-path="url(#6a68f541d4)"><g clip-path="url(#572ceae6c4)"><g clip-path="url(#6093c9ba4e)"><g clip-path="url(#118ee2b3ed)"><path fill="#f7f7f7" d="M 884.089844 264.890625 C 884.050781 265 884.105469 265.0625 884.195312 265.117188 C 884.402344 265.234375 884.613281 265.34375 884.828125 265.441406 C 884.96875 265.503906 885.105469 265.570312 885.207031 265.691406 C 885.363281 265.886719 885.304688 266.050781 885.0625 266.085938 C 884.820312 266.121094 884.59375 266.050781 884.375 265.949219 C 884.269531 265.898438 884.167969 265.839844 884.066406 265.785156 C 883.988281 265.824219 884.011719 265.886719 884.015625 265.941406 C 884.03125 266.316406 884.050781 266.6875 884.070312 267.058594 C 884.082031 267.242188 884.078125 267.429688 884.039062 267.609375 C 884.019531 267.695312 883.996094 267.773438 883.9375 267.839844 C 883.832031 267.96875 883.679688 267.960938 883.582031 267.824219 C 883.5 267.707031 883.476562 267.574219 883.453125 267.441406 C 883.375 267.003906 883.351562 266.566406 883.386719 266.125 C 883.398438 265.992188 883.410156 265.859375 883.417969 265.726562 C 883.335938 265.730469 883.332031 265.792969 883.308594 265.832031 C 883.058594 266.238281 882.839844 266.660156 882.628906 267.089844 C 882.558594 267.234375 882.484375 267.375 882.371094 267.488281 C 882.285156 267.574219 882.179688 267.632812 882.054688 267.566406 C 881.941406 267.503906 881.925781 267.394531 881.941406 267.277344 C 881.957031 267.125 882.003906 266.984375 882.066406 266.84375 C 882.25 266.429688 882.492188 266.046875 882.75 265.675781 C 882.796875 265.613281 882.855469 265.550781 882.890625 265.4375 C 882.574219 265.640625 882.304688 265.851562 882.035156 266.070312 C 881.839844 266.234375 881.632812 266.394531 881.429688 266.550781 C 881.351562 266.613281 881.265625 266.664062 881.160156 266.679688 C 881.058594 266.699219 880.957031 266.691406 880.886719 266.597656 C 880.824219 266.503906 880.832031 266.402344 880.878906 266.308594 C 880.941406 266.175781 881.042969 266.078125 881.152344 265.984375 C 881.46875 265.710938 881.8125 265.476562 882.160156 265.25 C 882.207031 265.222656 882.269531 265.210938 882.292969 265.128906 C 882.199219 265.097656 882.109375 265.125 882.019531 265.128906 C 881.871094 265.132812 881.71875 265.132812 881.570312 265.09375 C 881.464844 265.066406 881.382812 265.011719 881.355469 264.898438 C 881.328125 264.777344 881.386719 264.6875 881.476562 264.617188 C 881.601562 264.519531 881.746094 264.488281 881.898438 264.472656 C 881.972656 264.460938 882.046875 264.460938 882.125 264.453125 C 882.183594 264.449219 882.179688 264.402344 882.171875 264.359375 C 882.226562 264.273438 882.316406 264.292969 882.394531 264.3125 C 882.953125 264.449219 883.480469 264.699219 884.039062 264.832031 C 884.0625 264.839844 884.078125 264.863281 884.089844 264.890625 Z M 884.089844 264.890625 " fill-opacity="1" fill-rule="nonzero"/></g></g></g></g><g clip-path="url(#57a5382918)"><g clip-path="url(#af367ac60a)"><g clip-path="url(#3c1ffb9203)"><g clip-path="url(#f31eba987a)"><path fill="#8bc2f3" d="M 870.703125 262.675781 C 870.632812 262.546875 870.609375 262.40625 870.605469 262.261719 C 870.601562 261.921875 870.585938 261.585938 870.59375 261.246094 C 870.605469 260.792969 870.570312 260.335938 870.554688 259.878906 C 870.566406 259.855469 870.578125 259.835938 870.582031 259.8125 C 870.597656 259.6875 870.648438 259.589844 870.773438 259.558594 C 870.910156 259.527344 870.984375 259.621094 871.054688 259.71875 C 871.148438 259.777344 871.144531 259.878906 871.15625 259.964844 C 871.257812 260.761719 871.304688 261.5625 871.398438 262.359375 C 871.402344 262.429688 871.390625 262.496094 871.359375 262.554688 C 871.335938 262.582031 871.3125 262.605469 871.292969 262.632812 C 871.089844 262.90625 870.96875 262.917969 870.703125 262.675781 Z M 870.703125 262.675781 " fill-opacity="1" fill-rule="nonzero"/></g></g></g></g><g clip-path="url(#1b68dd7f8e)"><g clip-path="url(#7d90360161)"><g clip-path="url(#b9ec14851b)"><g clip-path="url(#67ba7cdef0)"><path fill="#8cc2f3" d="M 871.832031 259.386719 C 871.75 259.457031 871.789062 259.539062 871.804688 259.621094 C 872 260.53125 872.023438 261.453125 872.085938 262.371094 C 871.890625 262.609375 871.84375 262.621094 871.574219 262.5 C 871.460938 262.40625 871.429688 262.277344 871.414062 262.140625 C 871.332031 261.289062 871.324219 260.441406 871.347656 259.59375 C 871.355469 259.585938 871.359375 259.582031 871.363281 259.574219 C 871.476562 259.378906 871.632812 259.316406 871.828125 259.386719 Z M 871.832031 259.386719 " fill-opacity="1" fill-rule="nonzero"/></g></g></g></g><g clip-path="url(#2b0c9019a2)"><g clip-path="url(#eaae191779)"><g clip-path="url(#5d4d617914)"><g clip-path="url(#67434c7a2f)"><path fill="#8bc1f3" d="M 877.824219 267.863281 C 877.808594 267.859375 877.792969 267.847656 877.777344 267.847656 C 877.082031 267.898438 876.382812 267.792969 875.691406 267.859375 C 875.5625 267.875 875.441406 267.839844 875.320312 267.816406 C 875.148438 267.539062 875.148438 267.480469 875.332031 267.222656 C 875.394531 267.144531 875.488281 267.121094 875.578125 267.128906 C 876.296875 267.179688 877.015625 267.179688 877.730469 267.269531 C 877.851562 267.285156 877.984375 267.292969 878.058594 267.425781 C 878.152344 267.6875 878.132812 267.726562 877.824219 267.863281 Z M 877.824219 267.863281 " fill-opacity="1" fill-rule="nonzero"/></g></g></g></g><g clip-path="url(#c87e48a6a6)"><g clip-path="url(#65a7f8e1a0)"><g clip-path="url(#4af5271675)"><g clip-path="url(#29036c02ee)"><path fill="#8bc1f2" d="M 875.484375 266.339844 C 875.542969 266.332031 875.601562 266.3125 875.65625 266.320312 C 876.378906 266.429688 877.109375 266.417969 877.828125 266.542969 C 878.003906 266.574219 878.171875 266.613281 878.335938 266.6875 C 878.464844 266.921875 878.464844 266.925781 878.191406 267.101562 C 877.957031 267.199219 877.710938 267.15625 877.472656 267.125 C 876.933594 267.046875 876.398438 266.914062 875.847656 266.941406 C 875.691406 266.949219 875.507812 266.941406 875.386719 266.785156 C 875.300781 266.605469 875.300781 266.449219 875.484375 266.339844 Z M 875.484375 266.339844 " fill-opacity="1" fill-rule="nonzero"/></g></g></g></g><g clip-path="url(#78b71f34e4)"><g clip-path="url(#e4dd78d179)"><g clip-path="url(#2c23243f3b)"><g clip-path="url(#18de5520ac)"><path fill="#8dc2f2" d="M 876.539062 249.964844 C 876.613281 250.023438 876.683594 249.980469 876.753906 249.960938 C 877.148438 249.871094 877.511719 249.703125 877.875 249.542969 C 878.089844 249.445312 878.304688 249.355469 878.550781 249.382812 C 878.671875 249.59375 878.671875 249.617188 878.519531 249.769531 C 878.484375 249.804688 878.457031 249.84375 878.425781 249.882812 C 878.378906 249.847656 878.335938 249.855469 878.285156 249.878906 C 877.8125 250.074219 877.324219 250.226562 876.863281 250.453125 C 876.703125 250.53125 876.546875 250.546875 876.394531 250.421875 C 876.320312 250.226562 876.4375 250.097656 876.539062 249.960938 Z M 876.539062 249.964844 " fill-opacity="1" fill-rule="nonzero"/></g></g></g></g><g clip-path="url(#467044e601)"><g clip-path="url(#999d964a74)"><g clip-path="url(#9b3425d44c)"><g clip-path="url(#06667d858a)"><path fill="#8cc1f2" d="M 884.089844 264.890625 C 883.765625 264.839844 883.457031 264.738281 883.148438 264.621094 C 882.898438 264.527344 882.640625 264.453125 882.386719 264.375 C 882.316406 264.351562 882.242188 264.324219 882.167969 264.363281 C 882.144531 264.339844 882.121094 264.316406 882.09375 264.296875 C 881.816406 264.09375 881.8125 263.972656 882.070312 263.757812 C 882.820312 263.886719 883.488281 264.226562 884.152344 264.578125 C 884.210938 264.699219 884.1875 264.804688 884.089844 264.890625 Z M 884.089844 264.890625 " fill-opacity="1" fill-rule="nonzero"/></g></g></g></g><g clip-path="url(#e6f91d481a)"><g clip-path="url(#adef60bf9b)"><g clip-path="url(#6910adf7bf)"><g clip-path="url(#c00ef47f3b)"><path fill="#f7f7f7" d="M 875.386719 266.785156 C 875.589844 266.886719 875.808594 266.898438 876.023438 266.886719 C 876.328125 266.871094 876.621094 266.90625 876.921875 266.972656 C 877.339844 267.066406 877.765625 267.109375 878.191406 267.101562 C 878.160156 267.214844 878.113281 267.320312 878.058594 267.421875 C 877.8125 267.324219 877.558594 267.28125 877.296875 267.277344 C 876.753906 267.273438 876.214844 267.21875 875.675781 267.179688 C 875.554688 267.171875 875.445312 267.203125 875.332031 267.21875 C 875.328125 267.070312 875.347656 266.925781 875.386719 266.785156 Z M 875.386719 266.785156 " fill-opacity="1" fill-rule="nonzero"/></g></g></g></g><g clip-path="url(#36da359a71)"><g clip-path="url(#0cdbec8837)"><g clip-path="url(#5842d9e1e4)"><g clip-path="url(#4dfe328ac4)"><path fill="#f7f7f7" d="M 871.351562 259.59375 C 871.453125 259.660156 871.40625 259.761719 871.402344 259.847656 C 871.390625 260.535156 871.40625 261.222656 871.453125 261.914062 C 871.46875 262.113281 871.492188 262.3125 871.574219 262.5 C 871.503906 262.519531 871.429688 262.539062 871.355469 262.554688 C 871.292969 261.902344 871.226562 261.25 871.164062 260.597656 C 871.136719 260.304688 871.105469 260.011719 871.054688 259.71875 C 871.152344 259.675781 871.25 259.636719 871.351562 259.59375 Z M 871.351562 259.59375 " fill-opacity="1" fill-rule="nonzero"/></g></g></g></g><g clip-path="url(#33f20c4284)"><g clip-path="url(#9e1723478f)"><g clip-path="url(#3013abd848)"><g clip-path="url(#b1a7a07293)"><path fill="#679ecd" d="M 887.390625 256.433594 C 886.820312 256.816406 886.195312 256.953125 885.507812 256.859375 C 885.292969 256.832031 885.144531 256.738281 885.046875 256.550781 C 884.671875 255.847656 884.175781 255.238281 883.585938 254.703125 C 883.175781 254.332031 882.773438 253.957031 882.265625 253.722656 C 882.039062 253.617188 881.914062 253.441406 881.921875 253.179688 C 881.941406 252.632812 882.054688 252.109375 882.371094 251.65625 C 882.75 251.105469 883.296875 250.804688 883.941406 250.679688 C 885.054688 250.457031 886.046875 250.78125 886.9375 251.484375 C 887.460938 251.894531 887.882812 252.390625 888.15625 252.996094 C 888.640625 254.058594 888.511719 255.277344 887.699219 256.175781 C 887.609375 256.277344 887.496094 256.347656 887.390625 256.433594 Z M 887.390625 256.433594 " fill-opacity="1" fill-rule="nonzero"/></g></g></g></g><g clip-path="url(#30e04ec805)"><g clip-path="url(#5af58fe206)"><g clip-path="url(#a1375a5e3e)"><g clip-path="url(#70bd6d52ee)"><path fill="#cdcdcd" d="M 880.367188 259.894531 C 880.386719 259.960938 880.410156 260.023438 880.425781 260.085938 C 880.453125 260.179688 880.480469 260.257812 880.59375 260.285156 C 880.699219 260.316406 880.75 260.410156 880.757812 260.519531 C 880.769531 260.628906 880.722656 260.714844 880.621094 260.761719 C 880.527344 260.800781 880.441406 260.777344 880.371094 260.699219 C 880.3125 260.628906 880.242188 260.558594 880.261719 260.453125 C 880.28125 260.320312 880.234375 260.207031 880.179688 260.09375 C 880.070312 259.941406 879.964844 259.863281 879.757812 259.972656 C 879.59375 260.0625 879.421875 259.929688 879.289062 259.800781 C 878.886719 259.386719 878.507812 258.953125 878.121094 258.523438 C 877.976562 258.359375 877.78125 258.238281 877.675781 258.039062 C 877.597656 257.910156 877.632812 257.78125 877.691406 257.660156 C 877.601562 257.574219 877.511719 257.605469 877.421875 257.621094 C 877.300781 257.644531 877.207031 257.617188 877.15625 257.492188 C 877.117188 257.382812 877.183594 257.308594 877.253906 257.25 C 877.34375 257.171875 877.453125 257.164062 877.542969 257.269531 C 877.605469 257.34375 877.6875 257.339844 877.769531 257.359375 C 877.929688 257.394531 878.058594 257.359375 878.164062 257.222656 C 878.265625 257.09375 878.414062 257.011719 878.507812 256.847656 C 878.34375 256.824219 878.199219 256.839844 878.054688 256.867188 C 877.910156 256.890625 877.816406 256.816406 877.789062 256.691406 C 877.761719 256.566406 877.824219 256.453125 877.9375 256.40625 C 878.039062 256.367188 878.132812 256.402344 878.191406 256.476562 C 878.332031 256.65625 878.523438 256.597656 878.699219 256.621094 C 878.730469 256.625 878.773438 256.617188 878.792969 256.59375 C 878.9375 256.4375 879.109375 256.304688 879.238281 256.105469 C 879.078125 256.046875 878.953125 256.078125 878.824219 256.152344 C 878.730469 256.207031 878.605469 256.15625 878.535156 256.066406 C 878.472656 255.976562 878.476562 255.890625 878.539062 255.808594 C 878.605469 255.714844 878.726562 255.683594 878.832031 255.730469 C 878.84375 255.738281 878.859375 255.746094 878.871094 255.757812 C 879.046875 255.914062 879.257812 255.832031 879.453125 255.863281 C 879.511719 255.871094 879.554688 255.808594 879.59375 255.765625 C 879.691406 255.664062 879.785156 255.5625 879.890625 255.464844 C 880.039062 255.320312 880.136719 255.316406 880.3125 255.441406 C 880.621094 255.667969 880.871094 255.960938 881.160156 256.207031 C 881.535156 256.527344 881.894531 256.863281 882.265625 257.1875 C 882.410156 257.316406 882.460938 257.460938 882.375 257.636719 C 882.335938 257.769531 882.226562 257.832031 882.125 257.898438 C 881.875 258.066406 881.785156 258.292969 881.839844 258.589844 C 881.863281 258.71875 881.914062 258.828125 882.007812 258.921875 C 882.042969 258.957031 882.070312 259.003906 882.089844 259.046875 C 882.148438 259.160156 882.121094 259.261719 882.046875 259.347656 C 881.976562 259.433594 881.882812 259.417969 881.796875 259.367188 C 881.695312 259.304688 881.644531 259.203125 881.679688 259.089844 C 881.714844 258.980469 881.734375 258.882812 881.652344 258.785156 C 881.453125 258.480469 881.472656 258.5 881.191406 258.730469 C 880.992188 258.894531 881.136719 259.070312 881.113281 259.238281 C 881.148438 259.433594 881.179688 259.625 881.363281 259.757812 C 881.476562 259.839844 881.488281 259.972656 881.421875 260.074219 C 881.363281 260.167969 881.21875 260.230469 881.121094 260.195312 C 881.019531 260.160156 880.9375 260.042969 880.960938 259.914062 C 880.988281 259.78125 880.96875 259.667969 880.914062 259.550781 C 880.914062 259.523438 880.90625 259.492188 880.886719 259.484375 C 880.757812 259.445312 880.835938 259.175781 880.632812 259.242188 C 880.441406 259.300781 880.328125 259.558594 880.363281 259.773438 C 880.371094 259.816406 880.363281 259.859375 880.363281 259.898438 Z M 880.367188 259.894531 " fill-opacity="1" fill-rule="nonzero"/></g></g></g></g><g clip-path="url(#db074b1916)"><g clip-path="url(#dd24e7f6ad)"><g clip-path="url(#fea8e7f9fd)"><g clip-path="url(#0a889f3ade)"><path fill="#8bc0f2" d="M 883.757812 255.789062 C 884.003906 256.21875 884.28125 256.703125 884.554688 257.191406 C 884.609375 257.285156 884.640625 257.394531 884.667969 257.5 C 884.691406 257.585938 884.738281 257.699219 884.617188 257.742188 C 884.511719 257.78125 884.476562 257.671875 884.4375 257.601562 C 884.40625 257.550781 884.386719 257.496094 884.363281 257.441406 C 883.984375 256.617188 883.515625 255.855469 882.871094 255.210938 C 882.574219 254.917969 882.28125 254.625 881.964844 254.355469 C 881.777344 254.195312 881.585938 254.046875 881.367188 253.929688 C 881.210938 253.84375 881.15625 253.742188 881.203125 253.65625 C 881.25 253.570312 881.363281 253.558594 881.519531 253.636719 C 881.605469 253.675781 881.683594 253.722656 881.757812 253.78125 C 882.492188 254.351562 883.136719 255.007812 883.757812 255.789062 Z M 883.757812 255.789062 " fill-opacity="1" fill-rule="nonzero"/></g></g></g></g><g clip-path="url(#7237744637)"><g clip-path="url(#c5fa66cfe5)"><g clip-path="url(#cd651921a4)"><g clip-path="url(#bff56e7611)"><path fill="#8bc0f2" d="M 883.675781 256.617188 C 883.839844 256.855469 884.023438 257.082031 884.136719 257.347656 C 884.167969 257.417969 884.199219 257.488281 884.222656 257.5625 C 884.246094 257.632812 884.230469 257.695312 884.164062 257.734375 C 884.085938 257.78125 884.035156 257.734375 883.992188 257.675781 C 883.921875 257.570312 883.84375 257.46875 883.785156 257.355469 C 883.5 256.839844 883.140625 256.382812 882.714844 255.972656 C 882.40625 255.671875 882.089844 255.375 881.753906 255.105469 C 881.519531 254.921875 881.285156 254.742188 881.019531 254.609375 C 880.925781 254.566406 880.839844 254.515625 880.765625 254.441406 C 880.714844 254.386719 880.707031 254.320312 880.738281 254.253906 C 880.769531 254.191406 880.828125 254.183594 880.890625 254.191406 C 880.984375 254.203125 881.066406 254.242188 881.144531 254.292969 C 881.707031 254.648438 882.214844 255.066406 882.695312 255.523438 C 883.054688 255.859375 883.414062 256.195312 883.675781 256.617188 Z M 883.675781 256.617188 " fill-opacity="1" fill-rule="nonzero"/></g></g></g></g><g clip-path="url(#5aa113b284)"><g clip-path="url(#c19b3d0810)"><g clip-path="url(#17b0e003b4)"><g clip-path="url(#5b0c8997a4)"><path fill="#8cc2f3" d="M 872.894531 259.214844 C 873.148438 259.011719 873.46875 258.960938 873.765625 258.859375 C 873.976562 258.789062 874.21875 258.925781 874.289062 259.109375 C 874.363281 259.304688 874.300781 259.488281 874.089844 259.621094 C 873.820312 259.792969 873.527344 259.910156 873.214844 259.96875 C 873.105469 259.988281 873 259.988281 872.890625 259.960938 C 872.75 259.921875 872.648438 259.84375 872.617188 259.691406 C 872.585938 259.546875 872.621094 259.425781 872.734375 259.328125 C 872.78125 259.289062 872.839844 259.253906 872.894531 259.214844 Z M 872.894531 259.214844 " fill-opacity="1" fill-rule="nonzero"/></g></g></g></g><g clip-path="url(#60a606a0dc)"><g clip-path="url(#7f4041d22d)"><g clip-path="url(#0201cb7960)"><g clip-path="url(#9b0856eea3)"><path fill="#8e8d8d" d="M 877.675781 258.042969 C 877.859375 258.105469 877.972656 258.257812 878.097656 258.390625 C 878.511719 258.832031 878.914062 259.285156 879.324219 259.734375 C 879.351562 259.765625 879.382812 259.792969 879.414062 259.820312 C 879.628906 259.996094 879.730469 259.992188 879.925781 259.796875 C 880.019531 259.703125 880.050781 259.707031 880.09375 259.828125 C 880.128906 259.914062 880.152344 260.003906 880.179688 260.09375 C 880.070312 260.171875 879.957031 260.242188 879.855469 260.324219 C 879.726562 260.433594 879.605469 260.421875 879.464844 260.339844 C 879.308594 260.25 879.160156 260.148438 879.046875 260.015625 C 878.589844 259.476562 878.078125 258.984375 877.679688 258.398438 C 877.59375 258.273438 877.550781 258.160156 877.675781 258.042969 Z M 877.675781 258.042969 " fill-opacity="1" fill-rule="nonzero"/></g></g></g></g><g clip-path="url(#505b150b52)"><g clip-path="url(#5bbdab9140)"><g clip-path="url(#89f45693b9)"><g clip-path="url(#7436b0f168)"><path fill="#8cc2f3" d="M 878.507812 264.988281 C 878.335938 265.121094 878.199219 265.15625 878.058594 265.074219 C 877.925781 264.992188 877.867188 264.863281 877.886719 264.703125 C 877.917969 264.453125 877.96875 264.207031 878.089844 263.984375 C 878.222656 263.742188 878.445312 263.628906 878.640625 263.695312 C 878.851562 263.765625 878.980469 264.035156 878.925781 264.308594 C 878.863281 264.609375 878.675781 264.832031 878.503906 264.988281 Z M 878.507812 264.988281 " fill-opacity="1" fill-rule="nonzero"/></g></g></g></g><g clip-path="url(#3fa14c96b2)"><g clip-path="url(#68b5256a6c)"><g clip-path="url(#4240783694)"><g clip-path="url(#0eebf5f9f5)"><path fill="#8dc2f2" d="M 879.320312 253.152344 C 879.375 253.109375 879.4375 253.089844 879.503906 253.085938 C 879.777344 253.078125 880.042969 253.128906 880.292969 253.242188 C 880.390625 253.285156 880.476562 253.359375 880.539062 253.453125 C 880.683594 253.664062 880.585938 253.886719 880.335938 253.910156 C 880.253906 253.917969 880.167969 253.902344 880.085938 253.890625 C 879.824219 253.84375 879.574219 253.765625 879.355469 253.617188 C 879.171875 253.492188 879.160156 253.269531 879.320312 253.152344 Z M 879.320312 253.152344 " fill-opacity="1" fill-rule="nonzero"/></g></g></g></g><g clip-path="url(#d06f6f0216)"><g clip-path="url(#0453446deb)"><g clip-path="url(#07775e5388)"><g clip-path="url(#aa664a144a)"><path fill="#8ec2f2" d="M 884.195312 259.351562 C 884.058594 259.445312 883.90625 259.414062 883.839844 259.257812 C 883.714844 258.957031 883.746094 258.664062 883.90625 258.390625 C 883.972656 258.28125 884.082031 258.28125 884.195312 258.292969 C 884.316406 258.304688 884.398438 258.363281 884.445312 258.476562 C 884.53125 258.683594 884.375 259.226562 884.195312 259.351562 Z M 884.195312 259.351562 " fill-opacity="1" fill-rule="nonzero"/></g></g></g></g><g clip-path="url(#127d9019b0)"><g clip-path="url(#277e5b6874)"><g clip-path="url(#089e3fc60f)"><g clip-path="url(#8d8555e48d)"><path fill="#8e8e8e" d="M 881.113281 259.234375 C 881.105469 259.222656 881.09375 259.207031 881.082031 259.191406 C 880.945312 258.894531 880.949219 258.898438 881.167969 258.667969 C 881.257812 258.578125 881.34375 258.488281 881.445312 258.417969 C 881.507812 258.375 881.554688 258.382812 881.574219 258.464844 C 881.601562 258.570312 881.664062 258.667969 881.652344 258.78125 C 881.507812 258.972656 881.296875 259.089844 881.113281 259.234375 Z M 881.113281 259.234375 " fill-opacity="1" fill-rule="nonzero"/></g></g></g></g><g clip-path="url(#a084f0acdc)"><g clip-path="url(#e98f88668c)"><g clip-path="url(#c2b3dc0045)"><g clip-path="url(#0f50178320)"><path fill="#8e8c8e" d="M 881.839844 258.589844 C 881.679688 258.332031 881.699219 258.121094 881.957031 257.945312 C 882.097656 257.84375 882.226562 257.726562 882.378906 257.640625 C 882.4375 257.863281 882.421875 258.058594 882.226562 258.214844 C 882.085938 258.324219 881.96875 258.464844 881.839844 258.589844 Z M 881.839844 258.589844 " fill-opacity="1" fill-rule="nonzero"/></g></g></g></g><g clip-path="url(#d72a9033be)"><g clip-path="url(#b80642e210)"><g clip-path="url(#7fd3225a08)"><g clip-path="url(#e72c99ba39)"><path fill="#8e8d8e" d="M 880.367188 259.894531 C 880.320312 259.777344 880.234375 259.671875 880.238281 259.542969 C 880.246094 259.40625 880.390625 259.382812 880.472656 259.300781 C 880.738281 259.027344 880.742188 259.03125 880.878906 259.40625 C 880.894531 259.453125 880.933594 259.492188 880.917969 259.546875 C 880.824219 259.464844 880.757812 259.535156 880.710938 259.59375 C 880.617188 259.722656 880.484375 259.796875 880.367188 259.894531 Z M 880.367188 259.894531 " fill-opacity="1" fill-rule="nonzero"/></g></g></g></g><g clip-path="url(#5278ce7b31)"><g clip-path="url(#591d8bf18f)"><g clip-path="url(#b7b4922dfc)"><g clip-path="url(#c3227f8ba5)"><path fill="#eff7fd" d="M 877.6875 267.472656 C 877.488281 267.550781 877.347656 267.5625 877.199219 267.519531 C 877.167969 267.511719 877.136719 267.496094 877.132812 267.457031 C 877.132812 267.414062 877.164062 267.394531 877.195312 267.394531 C 877.34375 267.394531 877.492188 267.363281 877.6875 267.472656 Z M 877.6875 267.472656 " fill-opacity="1" fill-rule="nonzero"/></g></g></g></g><g clip-path="url(#87dee1b586)"><g clip-path="url(#2f63e90ac7)"><g clip-path="url(#c0b0a561c6)"><g clip-path="url(#766e01cded)"><path fill="#f2f8fe" d="M 877.953125 266.75 C 877.945312 266.753906 877.941406 266.765625 877.933594 266.765625 C 877.769531 266.789062 877.601562 266.785156 877.445312 266.714844 C 877.414062 266.699219 877.394531 266.664062 877.410156 266.632812 C 877.417969 266.613281 877.449219 266.597656 877.46875 266.597656 C 877.617188 266.613281 877.765625 266.632812 877.914062 266.65625 C 877.957031 266.664062 877.980469 266.703125 877.953125 266.75 Z M 877.953125 266.75 " fill-opacity="1" fill-rule="nonzero"/></g></g></g></g><g clip-path="url(#b7de588d29)"><g clip-path="url(#25279f24e1)"><g clip-path="url(#c23076e94a)"><g clip-path="url(#3a964e6165)"><path fill="#f4f9fe" d="M 883.03125 264.28125 C 882.820312 264.273438 882.660156 264.199219 882.496094 264.132812 C 882.460938 264.117188 882.417969 264.085938 882.429688 264.039062 C 882.441406 263.980469 882.492188 263.988281 882.53125 264 C 882.691406 264.046875 882.851562 264.097656 882.996094 264.1875 C 883.011719 264.195312 883.011719 264.230469 883.03125 264.28125 Z M 883.03125 264.28125 " fill-opacity="1" fill-rule="nonzero"/></g></g></g></g><g clip-path="url(#721437c776)"><g clip-path="url(#722489be37)"><g clip-path="url(#e64e0b1eab)"><g clip-path="url(#93354e6f7d)"><path fill="#feffff" d="M 883.738281 251.304688 C 883.832031 251.222656 883.964844 251.195312 884.097656 251.1875 C 884.742188 251.148438 885.367188 251.253906 885.960938 251.53125 C 886.140625 251.613281 886.300781 251.726562 886.386719 251.914062 C 886.417969 251.984375 886.425781 252.066406 886.363281 252.125 C 886.308594 252.183594 886.242188 252.164062 886.175781 252.132812 C 885.5625 251.871094 884.933594 251.882812 884.296875 251.960938 C 884.152344 251.976562 884.015625 252 883.871094 251.964844 C 883.710938 251.925781 883.585938 251.847656 883.554688 251.675781 C 883.523438 251.515625 883.597656 251.402344 883.738281 251.304688 Z M 883.738281 251.304688 " fill-opacity="1" fill-rule="nonzero"/></g></g></g></g><g clip-path="url(#f0e54b36ae)"><g clip-path="url(#3967a10987)"><g clip-path="url(#65a6907534)"><g clip-path="url(#da9424ac9b)"><path fill="#fcfdfe" d="M 882.882812 251.855469 C 883.019531 251.765625 883.191406 251.804688 883.277344 251.945312 C 883.347656 252.0625 883.308594 252.230469 883.199219 252.300781 C 883.074219 252.378906 882.867188 252.328125 882.792969 252.207031 C 882.722656 252.089844 882.761719 251.9375 882.882812 251.855469 Z M 882.882812 251.855469 " fill-opacity="1" fill-rule="nonzero"/></g></g></g></g><g clip-path="url(#877b6e9d6a)"><g clip-path="url(#64ec282577)"><g clip-path="url(#8d9b5ae352)"><g clip-path="url(#d3553aeb3a)"><path fill="#6a9fcd" d="M 879.226562 257.039062 C 879.21875 257.019531 879.195312 256.992188 879.183594 256.964844 C 879.167969 256.921875 879.167969 256.878906 879.207031 256.847656 C 879.246094 256.816406 879.289062 256.824219 879.324219 256.851562 C 879.402344 256.914062 879.476562 256.984375 879.550781 257.054688 C 879.917969 257.429688 880.285156 257.800781 880.648438 258.179688 C 880.714844 258.246094 880.765625 258.324219 880.820312 258.402344 C 880.847656 258.445312 880.847656 258.5 880.804688 258.539062 C 880.769531 258.570312 880.726562 258.554688 880.6875 258.535156 C 880.535156 258.46875 880.441406 258.328125 880.332031 258.214844 C 879.988281 257.84375 879.648438 257.464844 879.289062 257.109375 C 879.269531 257.089844 879.253906 257.070312 879.230469 257.039062 Z M 879.226562 257.039062 " fill-opacity="1" fill-rule="nonzero"/></g></g></g></g><g clip-path="url(#698bb81478)"><g clip-path="url(#5c174d65a2)"><g clip-path="url(#f674c04f76)"><g clip-path="url(#2edc0c8f52)"><path fill="#b346c7" d="M 880.148438 256.597656 C 880.042969 256.691406 879.902344 256.726562 879.769531 256.640625 C 879.65625 256.570312 879.5625 256.457031 879.566406 256.3125 C 879.574219 256.132812 879.664062 255.992188 879.820312 255.914062 C 880.03125 255.808594 880.261719 255.867188 880.351562 256.035156 C 880.453125 256.222656 880.382812 256.433594 880.148438 256.597656 Z M 880.148438 256.597656 " fill-opacity="1" fill-rule="nonzero"/></g></g></g></g><g clip-path="url(#b5b593a5b4)"><g clip-path="url(#8d89e916f4)"><g clip-path="url(#4ebfa04538)"><g clip-path="url(#c5f4bce409)"><path fill="#d698b9" d="M 880.4375 257.261719 C 880.296875 257.066406 880.339844 256.820312 880.535156 256.695312 C 880.664062 256.609375 880.96875 256.652344 881.046875 256.765625 C 881.144531 256.90625 881.046875 257.203125 880.859375 257.335938 C 880.683594 257.460938 880.5625 257.441406 880.4375 257.261719 Z M 880.4375 257.261719 " fill-opacity="1" fill-rule="nonzero"/></g></g></g></g><g clip-path="url(#a82087f0a1)"><g clip-path="url(#c25b5e1936)"><g clip-path="url(#485999eb15)"><g clip-path="url(#2b0ea01252)"><path fill="#6ba0cd" d="M 880.109375 258.792969 C 880.117188 258.820312 880.140625 258.867188 880.144531 258.914062 C 880.148438 258.992188 880.101562 259.023438 880.03125 259 C 879.949219 258.972656 879.894531 258.90625 879.84375 258.835938 C 879.507812 258.375 879.136719 257.945312 878.742188 257.539062 C 878.71875 257.515625 878.699219 257.484375 878.683594 257.457031 C 878.664062 257.425781 878.660156 257.386719 878.6875 257.363281 C 878.714844 257.339844 878.75 257.347656 878.777344 257.371094 C 878.902344 257.472656 879.03125 257.570312 879.140625 257.6875 C 879.449219 258.023438 879.75 258.367188 880.054688 258.710938 C 880.070312 258.726562 880.082031 258.75 880.113281 258.792969 Z M 880.109375 258.792969 " fill-opacity="1" fill-rule="nonzero"/></g></g></g></g><g clip-path="url(#39ae6b43a3)"><g clip-path="url(#1eb188ea50)"><g clip-path="url(#55383f57d3)"><g clip-path="url(#226aa4df43)"><path fill="#6ba0cd" d="M 878.316406 257.992188 C 878.320312 258 878.300781 257.972656 878.285156 257.941406 C 878.265625 257.902344 878.257812 257.855469 878.289062 257.824219 C 878.328125 257.789062 878.367188 257.820312 878.398438 257.84375 C 878.570312 257.972656 878.695312 258.148438 878.835938 258.304688 C 879.074219 258.558594 879.292969 258.824219 879.519531 259.085938 C 879.574219 259.152344 879.636719 259.214844 879.65625 259.300781 C 879.675781 259.375 879.605469 259.4375 879.535156 259.402344 C 879.46875 259.367188 879.402344 259.320312 879.359375 259.261719 C 879.035156 258.835938 878.6875 258.433594 878.316406 257.992188 Z M 878.316406 257.992188 " fill-opacity="1" fill-rule="nonzero"/></g></g></g></g><g clip-path="url(#4a0d456f50)"><g clip-path="url(#3183cdc102)"><g clip-path="url(#a16671ef8e)"><g clip-path="url(#eb4b9494d3)"><path fill="#94c7cd" d="M 881.113281 257.863281 C 881.003906 257.707031 881.039062 257.515625 881.199219 257.40625 C 881.347656 257.304688 881.605469 257.335938 881.695312 257.46875 C 881.789062 257.605469 881.714844 257.863281 881.546875 257.96875 C 881.398438 258.0625 881.222656 258.019531 881.113281 257.863281 Z M 881.113281 257.863281 " fill-opacity="1" fill-rule="nonzero"/></g></g></g></g><g clip-path="url(#313e80a86a)"><g clip-path="url(#a39d8305fd)"><g clip-path="url(#42d88426e2)"><g clip-path="url(#9eb7eee576)"><path fill="#f4e6f7" d="M 880.113281 256.105469 C 880.039062 256.125 879.957031 256.171875 879.867188 256.164062 C 879.820312 256.160156 879.796875 256.117188 879.824219 256.074219 C 879.871094 255.992188 880.019531 255.957031 880.109375 256 C 880.152344 256.023438 880.160156 256.066406 880.113281 256.105469 Z M 880.113281 256.105469 " fill-opacity="1" fill-rule="nonzero"/></g></g></g></g><g clip-path="url(#cdbb9681fe)"><g clip-path="url(#8359be56ef)"><g clip-path="url(#c088285a05)"><g clip-path="url(#1248258898)"><path fill="#f4e6f7" d="M 880.300781 253.511719 C 880.226562 253.503906 880.132812 253.519531 880.050781 253.480469 C 880.003906 253.460938 880 253.414062 880.039062 253.382812 C 880.113281 253.320312 880.265625 253.339844 880.335938 253.410156 C 880.367188 253.445312 880.359375 253.492188 880.300781 253.511719 Z M 880.300781 253.511719 " fill-opacity="1" fill-rule="nonzero"/></g></g></g></g><g clip-path="url(#1082d64c79)"><g clip-path="url(#7e1f707939)"><g clip-path="url(#3089d5194d)"><g clip-path="url(#54e588ec3e)"><path fill="#f4e6f7" d="M 884.21875 258.78125 C 884.199219 258.707031 884.15625 258.621094 884.164062 258.53125 C 884.167969 258.484375 884.210938 258.464844 884.253906 258.492188 C 884.335938 258.542969 884.371094 258.695312 884.324219 258.78125 C 884.300781 258.824219 884.257812 258.832031 884.21875 258.78125 Z M 884.21875 258.78125 " fill-opacity="1" fill-rule="nonzero"/></g></g></g></g><g clip-path="url(#174bae31f2)"><g clip-path="url(#fcf0e909ba)"><g clip-path="url(#1b3b9322d1)"><g clip-path="url(#e39e8538fe)"><path fill="#f4e6f7" d="M 880.875 256.886719 C 880.800781 256.910156 880.71875 256.953125 880.628906 256.945312 C 880.578125 256.941406 880.558594 256.898438 880.582031 256.855469 C 880.628906 256.773438 880.777344 256.738281 880.867188 256.78125 C 880.914062 256.804688 880.917969 256.847656 880.875 256.886719 Z M 880.875 256.886719 " fill-opacity="1" fill-rule="nonzero"/></g></g></g></g><g clip-path="url(#50191f3c1b)"><g clip-path="url(#adde348cd7)"><g clip-path="url(#915f1edcae)"><g clip-path="url(#d7c347accf)"><path fill="#f4e6f7" d="M 881.515625 257.585938 C 881.441406 257.605469 881.363281 257.652344 881.269531 257.644531 C 881.222656 257.640625 881.203125 257.597656 881.226562 257.554688 C 881.273438 257.472656 881.421875 257.433594 881.511719 257.480469 C 881.554688 257.5 881.5625 257.546875 881.515625 257.585938 Z M 881.515625 257.585938 " fill-opacity="1" fill-rule="nonzero"/></g></g></g></g><g clip-path="url(#2a9862cb42)"><g clip-path="url(#e53acce0a7)"><g clip-path="url(#e17fc8fdc1)"><g clip-path="url(#a764e8fc0d)"><path fill="#f4e6f7" d="M 873.914062 259.171875 C 873.839844 259.195312 873.761719 259.238281 873.667969 259.230469 C 873.621094 259.226562 873.601562 259.183594 873.625 259.140625 C 873.671875 259.058594 873.820312 259.023438 873.910156 259.066406 C 873.953125 259.089844 873.960938 259.132812 873.914062 259.171875 Z M 873.914062 259.171875 " fill-opacity="1" fill-rule="nonzero"/></g></g></g></g><g clip-path="url(#741d687a44)"><g clip-path="url(#bfa7dc5720)"><g clip-path="url(#b2ed3db603)"><g clip-path="url(#09c7026534)"><path fill="#f4e6f7" d="M 878.640625 264.394531 C 878.617188 264.320312 878.570312 264.238281 878.578125 264.148438 C 878.582031 264.101562 878.621094 264.078125 878.664062 264.105469 C 878.75 264.15625 878.789062 264.304688 878.746094 264.394531 C 878.722656 264.4375 878.679688 264.445312 878.640625 264.394531 Z M 878.640625 264.394531 " fill-opacity="1" fill-rule="nonzero"/></g></g></g></g><g clip-path="url(#ba805391f1)"><g clip-path="url(#6bf702a8d9)"><g clip-path="url(#e527a0fa99)"><g clip-path="url(#bef9bc3281)"><path fill="#f2f8fe" d="M 871.640625 259.542969 C 871.648438 259.546875 871.660156 259.546875 871.664062 259.554688 C 871.75 259.699219 871.8125 259.855469 871.808594 260.027344 C 871.808594 260.0625 871.78125 260.09375 871.746094 260.089844 C 871.726562 260.089844 871.699219 260.066406 871.691406 260.046875 C 871.648438 259.902344 871.605469 259.757812 871.570312 259.613281 C 871.558594 259.566406 871.585938 259.535156 871.640625 259.542969 Z M 871.640625 259.542969 " fill-opacity="1" fill-rule="nonzero"/></g></g></g></g><g clip-path="url(#1828927903)"><g clip-path="url(#20594ac13e)"><g clip-path="url(#6b13fb9fb2)"><g clip-path="url(#7e9a19bfb0)"><path fill="#f2f8fe" d="M 870.945312 259.765625 C 870.953125 259.773438 870.960938 259.777344 870.964844 259.78125 C 871.019531 259.941406 871.050781 260.105469 871.015625 260.273438 C 871.007812 260.304688 870.976562 260.332031 870.941406 260.324219 C 870.921875 260.316406 870.898438 260.289062 870.898438 260.269531 C 870.882812 260.121094 870.867188 259.972656 870.863281 259.820312 C 870.859375 259.777344 870.890625 259.746094 870.945312 259.765625 Z M 870.945312 259.765625 " fill-opacity="1" fill-rule="nonzero"/></g></g></g></g><g clip-path="url(#55f7f5aad1)"><g clip-path="url(#cd040d7245)"><g clip-path="url(#439310b769)"><g clip-path="url(#67fd3c8a9b)"><path fill="#f2f8fe" d="M 877.957031 249.632812 C 877.960938 249.625 877.964844 249.613281 877.972656 249.609375 C 878.121094 249.539062 878.277344 249.492188 878.449219 249.511719 C 878.484375 249.515625 878.511719 249.546875 878.507812 249.582031 C 878.503906 249.601562 878.480469 249.628906 878.460938 249.632812 C 878.316406 249.660156 878.171875 249.6875 878.023438 249.707031 C 877.980469 249.714844 877.945312 249.683594 877.957031 249.632812 Z M 877.957031 249.632812 " fill-opacity="1" fill-rule="nonzero"/></g></g></g></g><g clip-path="url(#8f06b56242)"><path fill="#e4b272" d="M 255.855469 30.859375 C 255.707031 32.359375 255.488281 33.855469 255.15625 35.332031 C 254.855469 36.675781 254.503906 38.007812 254.1875 39.34375 C 254.082031 39.789062 254.015625 40.242188 253.925781 40.691406 C 253.832031 41.136719 253.917969 41.542969 254.089844 41.957031 C 255.136719 44.476562 256.519531 46.792969 258.410156 48.785156 C 260.546875 51.039062 261.921875 53.691406 262.351562 56.730469 C 262.644531 58.78125 262.808594 60.867188 262.375 62.941406 C 262.007812 64.675781 261.074219 66.132812 260.113281 67.582031 C 259.921875 67.878906 259.675781 68.140625 259.507812 68.445312 C 258.402344 70.414062 256.6875 71.679688 254.71875 72.710938 C 253.371094 73.414062 251.914062 73.757812 250.507812 74.273438 C 249.382812 74.683594 248.257812 75.097656 247.121094 75.492188 C 246.171875 75.820312 245.667969 76.597656 245.15625 77.363281 C 244.824219 77.859375 244.550781 78.390625 244.234375 78.890625 C 243.746094 79.660156 243.53125 80.527344 243.277344 81.382812 C 242.898438 82.648438 242.515625 83.917969 242.132812 85.183594 C 242.027344 85.523438 241.886719 85.84375 241.613281 86.089844 C 241.339844 86.339844 241.03125 86.503906 240.648438 86.371094 C 240.28125 86.242188 240.066406 85.960938 240.011719 85.59375 C 239.949219 85.191406 239.984375 84.789062 240.054688 84.382812 C 240.359375 82.546875 240.835938 80.738281 241.039062 78.886719 C 241.285156 76.644531 240.851562 74.519531 239.71875 72.570312 C 239.03125 71.386719 237.890625 70.578125 236.824219 69.738281 C 235.820312 68.953125 234.738281 68.242188 234 67.175781 C 232.042969 64.324219 230.589844 61.25 230.703125 57.757812 C 230.800781 54.765625 231.621094 51.894531 233.210938 49.289062 C 233.804688 48.320312 234.359375 47.328125 235.179688 46.511719 C 237.210938 44.484375 239.703125 43.351562 242.507812 42.820312 C 243.582031 42.617188 244.652344 42.421875 245.722656 42.21875 C 246.800781 42.011719 247.722656 41.515625 248.46875 40.714844 C 248.578125 40.59375 248.695312 40.476562 248.816406 40.371094 C 250.207031 39.207031 250.742188 37.609375 251.136719 35.925781 C 251.605469 33.921875 252.1875 31.957031 253.261719 30.171875 C 253.429688 29.894531 253.621094 29.621094 253.855469 29.402344 C 254.507812 28.785156 255.375 28.984375 255.699219 29.816406 C 255.828125 30.144531 255.902344 30.492188 255.859375 30.851562 Z M 255.855469 30.859375 " fill-opacity="1" fill-rule="nonzero"/></g><path fill="#131313" d="M 249.042969 44.253906 C 246.625 53.675781 244.398438 62.960938 242.496094 72.34375 C 242.378906 72.289062 242.34375 72.28125 242.335938 72.265625 C 241.488281 70.222656 239.980469 68.699219 238.28125 67.371094 C 235.378906 65.097656 234.273438 61.941406 233.640625 58.53125 C 233.554688 58.050781 233.640625 57.558594 233.707031 57.078125 C 234.058594 54.378906 234.953125 51.890625 236.507812 49.632812 C 237.832031 47.710938 239.757812 46.722656 241.921875 46.082031 C 242.390625 45.945312 242.878906 45.863281 243.363281 45.777344 C 245.242188 45.4375 247.160156 45.285156 249.046875 44.257812 Z M 249.042969 44.253906 " fill-opacity="1" fill-rule="nonzero"/><path fill="#131313" d="M 252.542969 46.535156 C 252.585938 46.5625 252.652344 46.578125 252.675781 46.621094 C 253.527344 48.457031 254.773438 50.03125 256.070312 51.566406 C 256.761719 52.386719 257.304688 53.28125 257.644531 54.296875 C 257.757812 54.625 257.878906 54.960938 258.03125 55.273438 C 259.132812 57.511719 259.25 59.910156 259.148438 62.324219 C 259.078125 63.964844 258.425781 65.414062 257.328125 66.65625 C 256.898438 67.148438 256.464844 67.628906 256.035156 68.125 C 254.394531 70.027344 252.289062 71.140625 249.84375 71.667969 C 248.699219 71.914062 247.570312 72.242188 246.453125 72.59375 C 246.273438 72.652344 246.089844 72.722656 245.894531 72.683594 C 245.871094 72.667969 245.847656 72.648438 245.832031 72.628906 C 245.816406 72.609375 245.796875 72.582031 245.804688 72.5625 C 248.167969 64.015625 250.378906 55.429688 252.394531 46.800781 C 252.417969 46.703125 252.429688 46.59375 252.542969 46.539062 Z M 252.542969 46.535156 " fill-opacity="1" fill-rule="nonzero"/><path fill="#fefdfc" d="M 245.078125 67.839844 C 245.050781 67.378906 245.144531 66.941406 245.277344 66.539062 C 245.964844 64.425781 246.355469 62.246094 246.855469 60.089844 C 247.027344 59.351562 247.289062 58.640625 247.554688 57.929688 C 247.601562 57.804688 247.652344 57.679688 247.71875 57.5625 C 247.835938 57.367188 247.992188 57.199219 248.246094 57.304688 C 248.457031 57.386719 248.484375 57.585938 248.449219 57.785156 C 248.429688 57.890625 248.398438 57.996094 248.363281 58.097656 C 247.808594 59.855469 247.589844 61.683594 247.191406 63.46875 C 246.867188 64.917969 246.464844 66.351562 246.089844 67.785156 C 246.03125 68.019531 245.945312 68.253906 245.839844 68.472656 C 245.757812 68.652344 245.605469 68.78125 245.378906 68.726562 C 245.160156 68.675781 245.089844 68.5 245.082031 68.296875 C 245.078125 68.132812 245.082031 67.972656 245.082031 67.835938 Z M 245.078125 67.839844 " fill-opacity="1" fill-rule="nonzero"/><g clip-path="url(#cb64dcb14d)"><path fill="#fffefd" d="M 262.125 59.703125 C 262.117188 60.007812 262.175781 60.386719 262.046875 60.753906 C 261.933594 61.070312 261.765625 61.34375 261.363281 61.339844 C 260.988281 61.339844 260.867188 61.078125 260.761719 60.78125 C 260.679688 60.546875 260.636719 60.3125 260.632812 60.066406 C 260.617188 58.558594 260.417969 57.066406 260.09375 55.589844 C 260.066406 55.457031 260.027344 55.324219 260.035156 55.195312 C 260.0625 54.871094 260.371094 54.738281 260.621094 54.960938 C 260.882812 55.199219 261.058594 55.507812 261.226562 55.816406 C 261.875 57.003906 262.09375 58.296875 262.121094 59.699219 Z M 262.125 59.703125 " fill-opacity="1" fill-rule="nonzero"/></g><path fill="#fefdfb" d="M 253.621094 37.476562 C 253.515625 38.679688 253.3125 39.871094 252.972656 41.039062 C 252.902344 41.265625 252.78125 41.484375 252.652344 41.691406 C 252.554688 41.847656 252.40625 42.007812 252.1875 41.929688 C 251.984375 41.859375 251.941406 41.667969 251.917969 41.46875 C 251.851562 40.785156 252.0625 40.132812 252.164062 39.46875 C 252.292969 38.644531 252.503906 37.835938 252.683594 37.023438 C 252.71875 36.867188 252.769531 36.707031 252.839844 36.566406 C 252.914062 36.410156 253.058594 36.328125 253.238281 36.347656 C 253.425781 36.367188 253.53125 36.5 253.558594 36.664062 C 253.597656 36.929688 253.605469 37.199219 253.621094 37.480469 Z M 253.621094 37.476562 " fill-opacity="1" fill-rule="nonzero"/><path fill="#fcf8f3" d="M 237.125 46.351562 C 237.171875 46.617188 237.015625 46.820312 236.839844 46.980469 C 235.683594 48.054688 235.03125 49.460938 234.238281 50.78125 C 234.046875 51.105469 233.835938 51.417969 233.617188 51.730469 C 233.582031 51.785156 233.476562 51.816406 233.410156 51.816406 C 233.269531 51.808594 233.246094 51.675781 233.253906 51.574219 C 233.261719 51.414062 233.277344 51.246094 233.335938 51.101562 C 233.910156 49.636719 234.671875 48.269531 235.679688 47.050781 C 235.957031 46.710938 236.308594 46.453125 236.734375 46.308594 C 236.867188 46.265625 236.996094 46.25 237.125 46.351562 Z M 237.125 46.351562 " fill-opacity="1" fill-rule="nonzero"/><path fill="#fefbf8" d="M 231.453125 60.066406 C 231.453125 60.035156 231.433594 59.921875 231.453125 59.816406 C 231.523438 59.417969 231.789062 59.304688 232.074219 59.570312 C 232.453125 59.925781 232.742188 60.363281 232.890625 60.863281 C 233.011719 61.269531 232.847656 61.648438 232.523438 61.742188 C 232.121094 61.863281 231.921875 61.578125 231.753906 61.296875 C 231.539062 60.945312 231.417969 60.5625 231.449219 60.066406 Z M 231.453125 60.066406 " fill-opacity="1" fill-rule="nonzero"/><path fill="#fdfaf6" d="M 255.472656 71.242188 C 255.105469 71.242188 254.882812 71.042969 254.882812 70.722656 C 254.882812 70.355469 255.398438 69.941406 255.871094 69.929688 C 256.195312 69.917969 256.386719 70.066406 256.398438 70.398438 C 256.410156 70.808594 255.921875 71.242188 255.472656 71.242188 Z M 255.472656 71.242188 " fill-opacity="1" fill-rule="nonzero"/><path fill="#fbf6ec" d="M 243.089844 79.972656 C 243.089844 80.367188 242.917969 80.699219 242.714844 81.023438 C 242.644531 81.136719 242.542969 81.238281 242.382812 81.207031 C 242.199219 81.164062 242.117188 81.03125 242.105469 80.859375 C 242.070312 80.476562 242.105469 80.101562 242.308594 79.765625 C 242.4375 79.558594 242.574219 79.308594 242.871094 79.417969 C 243.117188 79.507812 243.097656 79.757812 243.09375 79.976562 Z M 243.089844 79.972656 " fill-opacity="1" fill-rule="nonzero"/><path fill="#f8f1e1" d="M 244.84375 72.089844 C 244.730469 72.375 244.808594 72.726562 244.617188 73.011719 C 244.496094 73.191406 244.355469 73.390625 244.097656 73.289062 C 243.863281 73.199219 243.894531 72.96875 243.9375 72.796875 C 244.019531 72.488281 244.148438 72.1875 244.265625 71.886719 C 244.328125 71.730469 244.429688 71.570312 244.621094 71.617188 C 244.84375 71.671875 244.882812 71.867188 244.847656 72.089844 Z M 244.84375 72.089844 " fill-opacity="1" fill-rule="nonzero"/><path fill="#f9f9f9" d="M 241.039062 49.484375 C 241.34375 49.484375 241.558594 49.535156 241.664062 49.761719 C 241.757812 49.960938 241.628906 50.125 241.492188 50.261719 C 240.75 51.015625 240.011719 51.769531 239.15625 52.402344 C 238.949219 52.554688 238.722656 52.675781 238.484375 52.519531 C 238.242188 52.355469 238.25 52.089844 238.347656 51.859375 C 238.8125 50.722656 239.617188 49.929688 240.792969 49.519531 C 240.890625 49.484375 241.007812 49.488281 241.042969 49.484375 Z M 241.039062 49.484375 " fill-opacity="1" fill-rule="nonzero"/><path fill="#dbdbdb" d="M 238.578125 64.152344 C 238.578125 64.300781 238.464844 64.4375 238.238281 64.429688 C 237.945312 64.421875 237.621094 64.039062 237.601562 63.695312 C 237.589844 63.445312 237.679688 63.265625 237.945312 63.246094 C 238.207031 63.222656 238.570312 63.722656 238.578125 64.152344 Z M 238.578125 64.152344 " fill-opacity="1" fill-rule="nonzero"/><path fill="#e2e2e2" d="M 254.070312 66.476562 C 253.976562 66.058594 254.164062 65.804688 254.3125 65.574219 C 255.171875 64.21875 255.523438 62.6875 255.890625 61.164062 C 256.207031 59.839844 256.167969 58.539062 255.609375 57.269531 C 255.476562 56.964844 255.3125 56.648438 255.316406 56.265625 C 255.699219 56.292969 255.78125 56.585938 255.917969 56.800781 C 256.679688 57.996094 256.851562 59.332031 256.734375 60.699219 C 256.597656 62.222656 256.125 63.664062 255.375 65 C 255.066406 65.554688 254.679688 66.066406 254.066406 66.476562 Z M 254.070312 66.476562 " fill-opacity="1" fill-rule="nonzero"/><path fill="#d4d4d4" d="M 249.921875 69.585938 C 249.65625 69.578125 249.492188 69.433594 249.496094 69.140625 C 249.496094 68.839844 249.941406 68.476562 250.300781 68.472656 C 250.527344 68.46875 250.652344 68.585938 250.648438 68.816406 C 250.644531 69.167969 250.265625 69.582031 249.921875 69.589844 Z M 249.921875 69.585938 " fill-opacity="1" fill-rule="nonzero"/></svg>