<svg xmlns="http://www.w3.org/2000/svg" xmlns:xlink="http://www.w3.org/1999/xlink" width="1366" zoomAndPan="magnify" viewBox="0 0 1024.5 576" height="768" preserveAspectRatio="xMidYMid meet" version="1.0"><defs><clipPath id="2d49d654d6"><path d="M 135 88 L 232 88 L 232 185 L 135 185 Z M 135 88 " clip-rule="nonzero"/></clipPath><clipPath id="daf070fa81"><path d="M 120.609375 111.609375 L 208.007812 73.855469 L 245.757812 161.253906 L 158.359375 199.007812 Z M 120.609375 111.609375 " clip-rule="nonzero"/></clipPath><clipPath id="4eb3654be6"><path d="M 120.609375 111.609375 L 208.007812 73.855469 L 245.757812 161.253906 L 158.359375 199.007812 Z M 120.609375 111.609375 " clip-rule="nonzero"/></clipPath><clipPath id="57f5ff6c4d"><path d="M 178 131 L 214 131 L 214 172 L 178 172 Z M 178 131 " clip-rule="nonzero"/></clipPath><clipPath id="7df313a046"><path d="M 120.609375 111.609375 L 208.007812 73.855469 L 245.757812 161.253906 L 158.359375 199.007812 Z M 120.609375 111.609375 " clip-rule="nonzero"/></clipPath><clipPath id="ec9379b336"><path d="M 120.609375 111.609375 L 208.007812 73.855469 L 245.757812 161.253906 L 158.359375 199.007812 Z M 120.609375 111.609375 " clip-rule="nonzero"/></clipPath><clipPath id="652d44f5e6"><path d="M 144 159 L 186 159 L 186 185 L 144 185 Z M 144 159 " clip-rule="nonzero"/></clipPath><clipPath id="19103b0414"><path d="M 120.609375 111.609375 L 208.007812 73.855469 L 245.757812 161.253906 L 158.359375 199.007812 Z M 120.609375 111.609375 " clip-rule="nonzero"/></clipPath><clipPath id="4209a1fe40"><path d="M 120.609375 111.609375 L 208.007812 73.855469 L 245.757812 161.253906 L 158.359375 199.007812 Z M 120.609375 111.609375 " clip-rule="nonzero"/></clipPath><clipPath id="b47c53590b"><path d="M 169 88 L 230 88 L 230 141 L 169 141 Z M 169 88 " clip-rule="nonzero"/></clipPath><clipPath id="4cbde60c2f"><path d="M 120.609375 111.609375 L 208.007812 73.855469 L 245.757812 161.253906 L 158.359375 199.007812 Z M 120.609375 111.609375 " clip-rule="nonzero"/></clipPath><clipPath id="69ac437b5e"><path d="M 120.609375 111.609375 L 208.007812 73.855469 L 245.757812 161.253906 L 158.359375 199.007812 Z M 120.609375 111.609375 " clip-rule="nonzero"/></clipPath><clipPath id="952015ff1e"><path d="M 158 124 L 162 124 L 162 130 L 158 130 Z M 158 124 " clip-rule="nonzero"/></clipPath><clipPath id="2d542d8207"><path d="M 120.609375 111.609375 L 208.007812 73.855469 L 245.757812 161.253906 L 158.359375 199.007812 Z M 120.609375 111.609375 " clip-rule="nonzero"/></clipPath><clipPath id="dd14ec2525"><path d="M 120.609375 111.609375 L 208.007812 73.855469 L 245.757812 161.253906 L 158.359375 199.007812 Z M 120.609375 111.609375 " clip-rule="nonzero"/></clipPath><clipPath id="ccb4585eb6"><path d="M 144 114 L 161 114 L 161 134 L 144 134 Z M 144 114 " clip-rule="nonzero"/></clipPath><clipPath id="3eda7a18ba"><path d="M 120.609375 111.609375 L 208.007812 73.855469 L 245.757812 161.253906 L 158.359375 199.007812 Z M 120.609375 111.609375 " clip-rule="nonzero"/></clipPath><clipPath id="b39016d888"><path d="M 120.609375 111.609375 L 208.007812 73.855469 L 245.757812 161.253906 L 158.359375 199.007812 Z M 120.609375 111.609375 " clip-rule="nonzero"/></clipPath><clipPath id="eca6178bdb"><path d="M 142 95 L 159 95 L 159 117 L 142 117 Z M 142 95 " clip-rule="nonzero"/></clipPath><clipPath id="3fd3237e47"><path d="M 120.609375 111.609375 L 208.007812 73.855469 L 245.757812 161.253906 L 158.359375 199.007812 Z M 120.609375 111.609375 " clip-rule="nonzero"/></clipPath><clipPath id="240393c909"><path d="M 120.609375 111.609375 L 208.007812 73.855469 L 245.757812 161.253906 L 158.359375 199.007812 Z M 120.609375 111.609375 " clip-rule="nonzero"/></clipPath><clipPath id="c5c1102669"><path d="M 135 122 L 143 122 L 143 152 L 135 152 Z M 135 122 " clip-rule="nonzero"/></clipPath><clipPath id="d4f66186c6"><path d="M 120.609375 111.609375 L 208.007812 73.855469 L 245.757812 161.253906 L 158.359375 199.007812 Z M 120.609375 111.609375 " clip-rule="nonzero"/></clipPath><clipPath id="66f2ce6b00"><path d="M 120.609375 111.609375 L 208.007812 73.855469 L 245.757812 161.253906 L 158.359375 199.007812 Z M 120.609375 111.609375 " clip-rule="nonzero"/></clipPath></defs><g clip-path="url(#2d49d654d6)"><g clip-path="url(#daf070fa81)"><g clip-path="url(#4eb3654be6)"><path fill="#ff9f59" d="M 227.265625 117.570312 C 227.308594 117.675781 227.359375 117.789062 227.398438 117.898438 C 228.316406 120.0625 229.066406 122.261719 229.640625 124.476562 C 232.445312 135.171875 231.367188 146.207031 227.09375 155.851562 L 227.085938 155.855469 C 222.390625 166.472656 213.839844 175.417969 202.347656 180.382812 C 196.726562 182.808594 190.894531 184.078125 185.125 184.273438 C 184.414062 184.304688 183.699219 184.3125 182.984375 184.304688 C 173.042969 184.214844 163.390625 181.003906 155.394531 175.222656 C 151.375 172.320312 147.769531 168.765625 144.765625 164.636719 C 142.730469 161.832031 140.972656 158.769531 139.542969 155.460938 C 139.042969 154.300781 138.589844 153.136719 138.199219 151.960938 C 134.78125 142.023438 134.855469 131.613281 137.839844 122.167969 C 138.984375 118.53125 140.566406 115.035156 142.546875 111.765625 L 142.550781 111.757812 C 143.085938 110.875 143.652344 109.996094 144.25 109.144531 C 147.902344 103.910156 152.628906 99.355469 158.292969 95.867188 C 160.238281 94.664062 162.296875 93.59375 164.457031 92.660156 C 169.605469 90.433594 174.945312 89.1875 180.238281 88.839844 C 188.792969 88.269531 197.253906 90.039062 204.769531 93.789062 C 214.5 98.640625 222.621094 106.820312 227.265625 117.570312 " fill-opacity="1" fill-rule="nonzero"/></g></g></g><g clip-path="url(#57f5ff6c4d)"><g clip-path="url(#7df313a046)"><g clip-path="url(#ec9379b336)"><path fill="#ffd28e" d="M 204.089844 168.3125 C 204.089844 168.3125 200.261719 166.011719 198.0625 160.1875 C 195.859375 154.363281 194.917969 153.640625 190.691406 154.054688 C 186.464844 154.46875 181.824219 153.929688 180.058594 151.304688 C 178.296875 148.675781 178.601562 140.640625 178.601562 140.640625 C 178.601562 140.640625 181.613281 135.949219 185.53125 134.820312 C 189.449219 133.695312 195.816406 130.945312 199.863281 132.304688 C 203.914062 133.660156 208.335938 138.804688 209.765625 138.472656 C 211.195312 138.136719 212.433594 149.742188 212.621094 151.640625 C 212.8125 153.53125 214.097656 160.882812 213.902344 164.074219 C 213.707031 167.265625 213.410156 170.21875 212.347656 170.675781 C 211.285156 171.132812 206.71875 173.671875 204.089844 168.3125 " fill-opacity="1" fill-rule="nonzero"/></g></g></g><g clip-path="url(#652d44f5e6)"><g clip-path="url(#19103b0414)"><g clip-path="url(#4209a1fe40)"><path fill="#ffd28e" d="M 183.246094 176.671875 C 183.5 177.894531 184.375 181.066406 185.125 184.273438 C 184.414062 184.304688 183.699219 184.3125 182.984375 184.304688 C 173.042969 184.214844 163.390625 181.003906 155.394531 175.222656 C 151.375 172.320312 147.769531 168.765625 144.765625 164.636719 C 146.011719 163.078125 147.707031 161.429688 149.714844 160.605469 C 154.113281 158.804688 155.125 159.640625 159.992188 160.699219 C 164.851562 161.765625 170.632812 167.167969 172.25 166.601562 C 173.863281 166.03125 182.785156 174.496094 183.246094 176.671875 " fill-opacity="1" fill-rule="nonzero"/></g></g></g><g clip-path="url(#b47c53590b)"><g clip-path="url(#4cbde60c2f)"><g clip-path="url(#69ac437b5e)"><path fill="#ffd28e" d="M 227.265625 117.570312 C 227.308594 117.675781 227.359375 117.789062 227.398438 117.898438 C 228.316406 120.0625 229.066406 122.261719 229.640625 124.476562 C 226.421875 122.4375 222.417969 119.011719 221.007812 118.71875 C 218.832031 118.265625 212.414062 120.203125 215.957031 122.296875 C 219.503906 124.398438 220.445312 123.992188 220.445312 123.992188 C 220.445312 123.992188 219.886719 134.449219 216.472656 134.933594 C 213.054688 135.425781 202.109375 126.882812 202.109375 126.882812 C 197.269531 125.601562 203.308594 120.503906 203.308594 120.503906 C 203.308594 120.503906 204.695312 117.601562 200.398438 116.816406 C 196.105469 116.035156 195.644531 121.835938 193.179688 122.242188 C 190.71875 122.644531 191.121094 125.109375 191.386719 127.632812 C 191.648438 130.15625 190.199219 132.363281 188.191406 129.011719 C 186.175781 125.664062 182.035156 130.03125 180.367188 130.75 C 178.699219 131.46875 177.882812 138.742188 174.820312 140.066406 C 171.769531 141.382812 169.96875 137.21875 169.683594 135.03125 C 169.402344 132.847656 173.28125 128.859375 177.609375 126.664062 C 181.933594 124.460938 176.085938 122.367188 177.148438 121.015625 C 178.210938 119.65625 182.914062 119.09375 187.664062 119.019531 C 192.410156 118.949219 194.902344 113.253906 198.550781 111.769531 C 202.195312 110.289062 189.539062 112.277344 191.945312 107.9375 C 194.363281 103.59375 185.5 104.453125 184.453125 101.28125 C 183.414062 98.097656 179.347656 95.570312 177.90625 92.234375 C 177.449219 91.171875 178.332031 89.972656 180.238281 88.839844 C 188.792969 88.269531 197.253906 90.039062 204.769531 93.789062 C 214.5 98.640625 222.621094 106.820312 227.265625 117.570312 " fill-opacity="1" fill-rule="nonzero"/></g></g></g><g clip-path="url(#952015ff1e)"><g clip-path="url(#2d542d8207)"><g clip-path="url(#dd14ec2525)"><path fill="#ffd28e" d="M 158.769531 129.5625 C 158.769531 129.5625 161.203125 130.769531 161.621094 128.332031 C 162.042969 125.890625 161.5625 124.296875 160.726562 124.496094 C 159.886719 124.691406 156.519531 129.597656 158.769531 129.5625 " fill-opacity="1" fill-rule="nonzero"/></g></g></g><g clip-path="url(#ccb4585eb6)"><g clip-path="url(#3eda7a18ba)"><g clip-path="url(#b39016d888)"><path fill="#ffd28e" d="M 149.382812 133.617188 C 149.382812 133.617188 152.332031 131.339844 152.351562 129.367188 C 152.371094 127.390625 156.925781 126.300781 157.3125 124.164062 C 157.699219 122.03125 160.304688 120.207031 160.324219 118.363281 C 160.34375 116.523438 160.058594 113.808594 157.121094 114.855469 C 154.183594 115.910156 150.808594 115.839844 151.472656 117.296875 C 152.136719 118.757812 151.242188 118.707031 149.0625 120.742188 C 146.882812 122.773438 143.550781 122.640625 144.632812 125.144531 C 145.714844 127.648438 147.660156 130.132812 147.660156 130.132812 C 147.660156 130.132812 147.0625 132.789062 149.382812 133.617188 " fill-opacity="1" fill-rule="nonzero"/></g></g></g><g clip-path="url(#eca6178bdb)"><g clip-path="url(#3fd3237e47)"><g clip-path="url(#240393c909)"><path fill="#ffd28e" d="M 158.292969 95.867188 C 158.292969 95.867188 156.207031 104.582031 155.367188 105.152344 C 154.523438 105.726562 152.535156 108.878906 152.851562 111.042969 C 153.160156 113.203125 149.996094 116.03125 146.652344 116.015625 C 143.304688 116 142.070312 114.921875 142.546875 111.765625 L 142.550781 111.757812 C 143.085938 110.875 143.652344 109.996094 144.25 109.144531 C 147.902344 103.910156 152.628906 99.355469 158.292969 95.867188 " fill-opacity="1" fill-rule="nonzero"/></g></g></g><g clip-path="url(#c5c1102669)"><g clip-path="url(#d4f66186c6)"><g clip-path="url(#66f2ce6b00)"><path fill="#ffd28e" d="M 141.828125 133.6875 C 141.96875 135.292969 142.792969 136.886719 141.484375 138.03125 C 140.167969 139.1875 141.542969 140.761719 141.5 143.5625 C 141.464844 146.085938 138.75 150.996094 138.199219 151.960938 C 134.78125 142.023438 134.855469 131.613281 137.839844 122.167969 C 139.269531 123.78125 140.367188 126.984375 141.355469 127.761719 C 142.835938 128.933594 141.691406 132.074219 141.828125 133.6875 " fill-opacity="1" fill-rule="nonzero"/></g></g></g></svg>