<svg xmlns="http://www.w3.org/2000/svg" xmlns:xlink="http://www.w3.org/1999/xlink" width="1366" zoomAndPan="magnify" viewBox="0 0 1024.5 576" height="768" preserveAspectRatio="xMidYMid meet" version="1.0"><defs><clipPath id="b785c8ebaf"><path d="M 98 134 L 195 134 L 195 230 L 98 230 Z M 98 134 " clip-rule="nonzero"/></clipPath><clipPath id="f3651ba5f1"><path d="M 83.722656 157.273438 L 171.121094 119.523438 L 208.875 206.921875 L 121.476562 244.671875 Z M 83.722656 157.273438 " clip-rule="nonzero"/></clipPath><clipPath id="678019b653"><path d="M 83.722656 157.273438 L 171.121094 119.523438 L 208.875 206.921875 L 121.476562 244.671875 Z M 83.722656 157.273438 " clip-rule="nonzero"/></clipPath><clipPath id="ae9dc69bbd"><path d="M 141 177 L 178 177 L 178 218 L 141 218 Z M 141 177 " clip-rule="nonzero"/></clipPath><clipPath id="612d8e642b"><path d="M 83.722656 157.273438 L 171.121094 119.523438 L 208.875 206.921875 L 121.476562 244.671875 Z M 83.722656 157.273438 " clip-rule="nonzero"/></clipPath><clipPath id="a472ff39e7"><path d="M 83.722656 157.273438 L 171.121094 119.523438 L 208.875 206.921875 L 121.476562 244.671875 Z M 83.722656 157.273438 " clip-rule="nonzero"/></clipPath><clipPath id="24bfdae374"><path d="M 107 205 L 149 205 L 149 230 L 107 230 Z M 107 205 " clip-rule="nonzero"/></clipPath><clipPath id="e27c05e3c5"><path d="M 83.722656 157.273438 L 171.121094 119.523438 L 208.875 206.921875 L 121.476562 244.671875 Z M 83.722656 157.273438 " clip-rule="nonzero"/></clipPath><clipPath id="4677da5717"><path d="M 83.722656 157.273438 L 171.121094 119.523438 L 208.875 206.921875 L 121.476562 244.671875 Z M 83.722656 157.273438 " clip-rule="nonzero"/></clipPath><clipPath id="779df42995"><path d="M 132 134 L 193 134 L 193 186 L 132 186 Z M 132 134 " clip-rule="nonzero"/></clipPath><clipPath id="a1bf1a2962"><path d="M 83.722656 157.273438 L 171.121094 119.523438 L 208.875 206.921875 L 121.476562 244.671875 Z M 83.722656 157.273438 " clip-rule="nonzero"/></clipPath><clipPath id="9a96e3992e"><path d="M 83.722656 157.273438 L 171.121094 119.523438 L 208.875 206.921875 L 121.476562 244.671875 Z M 83.722656 157.273438 " clip-rule="nonzero"/></clipPath><clipPath id="a19212c20a"><path d="M 121 170 L 125 170 L 125 176 L 121 176 Z M 121 170 " clip-rule="nonzero"/></clipPath><clipPath id="7d40c84302"><path d="M 83.722656 157.273438 L 171.121094 119.523438 L 208.875 206.921875 L 121.476562 244.671875 Z M 83.722656 157.273438 " clip-rule="nonzero"/></clipPath><clipPath id="4ba7e0221c"><path d="M 83.722656 157.273438 L 171.121094 119.523438 L 208.875 206.921875 L 121.476562 244.671875 Z M 83.722656 157.273438 " clip-rule="nonzero"/></clipPath><clipPath id="93c04dbbf9"><path d="M 107 160 L 124 160 L 124 180 L 107 180 Z M 107 160 " clip-rule="nonzero"/></clipPath><clipPath id="f354548583"><path d="M 83.722656 157.273438 L 171.121094 119.523438 L 208.875 206.921875 L 121.476562 244.671875 Z M 83.722656 157.273438 " clip-rule="nonzero"/></clipPath><clipPath id="d0d4632117"><path d="M 83.722656 157.273438 L 171.121094 119.523438 L 208.875 206.921875 L 121.476562 244.671875 Z M 83.722656 157.273438 " clip-rule="nonzero"/></clipPath><clipPath id="5697c688d9"><path d="M 105 141 L 122 141 L 122 162 L 105 162 Z M 105 141 " clip-rule="nonzero"/></clipPath><clipPath id="f96249eadf"><path d="M 83.722656 157.273438 L 171.121094 119.523438 L 208.875 206.921875 L 121.476562 244.671875 Z M 83.722656 157.273438 " clip-rule="nonzero"/></clipPath><clipPath id="f8dd83049d"><path d="M 83.722656 157.273438 L 171.121094 119.523438 L 208.875 206.921875 L 121.476562 244.671875 Z M 83.722656 157.273438 " clip-rule="nonzero"/></clipPath><clipPath id="147e8d2560"><path d="M 98 167 L 106 167 L 106 198 L 98 198 Z M 98 167 " clip-rule="nonzero"/></clipPath><clipPath id="4cf068a43a"><path d="M 83.722656 157.273438 L 171.121094 119.523438 L 208.875 206.921875 L 121.476562 244.671875 Z M 83.722656 157.273438 " clip-rule="nonzero"/></clipPath><clipPath id="83131e0dc0"><path d="M 83.722656 157.273438 L 171.121094 119.523438 L 208.875 206.921875 L 121.476562 244.671875 Z M 83.722656 157.273438 " clip-rule="nonzero"/></clipPath></defs><g clip-path="url(#b785c8ebaf)"><g clip-path="url(#f3651ba5f1)"><g clip-path="url(#678019b653)"><path fill="#ff9f59" d="M 190.378906 163.238281 C 190.425781 163.34375 190.476562 163.457031 190.511719 163.5625 C 191.433594 165.730469 192.179688 167.925781 192.753906 170.144531 C 195.5625 180.839844 194.484375 191.871094 190.210938 201.519531 L 190.203125 201.519531 C 185.503906 212.140625 176.953125 221.085938 165.464844 226.046875 C 159.839844 228.476562 154.007812 229.746094 148.242188 229.9375 C 147.53125 229.972656 146.8125 229.980469 146.101562 229.972656 C 136.160156 229.882812 126.507812 226.671875 118.507812 220.890625 C 114.492188 217.984375 110.882812 214.433594 107.882812 210.304688 C 105.84375 207.5 104.085938 204.433594 102.660156 201.128906 C 102.15625 199.96875 101.703125 198.800781 101.316406 197.628906 C 97.898438 187.6875 97.96875 177.28125 100.953125 167.835938 C 102.101562 164.199219 103.679688 160.703125 105.660156 157.433594 L 105.664062 157.425781 C 106.203125 156.542969 106.765625 155.664062 107.367188 154.8125 C 111.015625 149.578125 115.742188 145.023438 121.410156 141.53125 C 123.351562 140.332031 125.414062 139.261719 127.574219 138.328125 C 132.722656 136.101562 138.058594 134.855469 143.355469 134.507812 C 151.910156 133.9375 160.371094 135.707031 167.886719 139.457031 C 177.613281 144.308594 185.738281 152.488281 190.378906 163.238281 " fill-opacity="1" fill-rule="nonzero"/></g></g></g><g clip-path="url(#ae9dc69bbd)"><g clip-path="url(#612d8e642b)"><g clip-path="url(#a472ff39e7)"><path fill="#ffd28e" d="M 167.203125 213.980469 C 167.203125 213.980469 163.375 211.679688 161.175781 205.855469 C 158.972656 200.03125 158.03125 199.308594 153.804688 199.722656 C 149.578125 200.136719 144.9375 199.597656 143.175781 196.972656 C 141.410156 194.34375 141.714844 186.304688 141.714844 186.304688 C 141.714844 186.304688 144.726562 181.617188 148.644531 180.488281 C 152.5625 179.363281 158.929688 176.613281 162.980469 177.96875 C 167.027344 179.324219 171.453125 184.472656 172.882812 184.140625 C 174.308594 183.804688 175.546875 195.410156 175.738281 197.308594 C 175.925781 199.199219 177.214844 206.550781 177.019531 209.742188 C 176.824219 212.929688 176.523438 215.882812 175.460938 216.34375 C 174.402344 216.800781 169.832031 219.339844 167.203125 213.980469 " fill-opacity="1" fill-rule="nonzero"/></g></g></g><g clip-path="url(#24bfdae374)"><g clip-path="url(#e27c05e3c5)"><g clip-path="url(#4677da5717)"><path fill="#ffd28e" d="M 146.359375 222.339844 C 146.613281 223.5625 147.492188 226.730469 148.242188 229.9375 C 147.53125 229.972656 146.8125 229.980469 146.101562 229.972656 C 136.160156 229.882812 126.507812 226.671875 118.507812 220.890625 C 114.492188 217.984375 110.882812 214.433594 107.882812 210.304688 C 109.128906 208.746094 110.820312 207.09375 112.828125 206.273438 C 117.226562 204.472656 118.238281 205.308594 123.105469 206.367188 C 127.964844 207.433594 133.746094 212.832031 135.367188 212.269531 C 136.980469 211.699219 145.898438 220.164062 146.359375 222.339844 " fill-opacity="1" fill-rule="nonzero"/></g></g></g><g clip-path="url(#779df42995)"><g clip-path="url(#a1bf1a2962)"><g clip-path="url(#9a96e3992e)"><path fill="#ffd28e" d="M 190.378906 163.238281 C 190.425781 163.34375 190.476562 163.457031 190.511719 163.5625 C 191.433594 165.730469 192.179688 167.925781 192.753906 170.144531 C 189.535156 168.101562 185.535156 164.679688 184.125 164.386719 C 181.945312 163.933594 175.53125 165.871094 179.070312 167.964844 C 182.617188 170.0625 183.558594 169.65625 183.558594 169.65625 C 183.558594 169.65625 183.003906 180.117188 179.589844 180.601562 C 176.167969 181.089844 165.222656 172.550781 165.222656 172.550781 C 160.386719 171.269531 166.425781 166.171875 166.425781 166.171875 C 166.425781 166.171875 167.808594 163.269531 163.511719 162.484375 C 159.21875 161.703125 158.757812 167.503906 156.296875 167.90625 C 153.832031 168.3125 154.234375 170.777344 154.5 173.300781 C 154.765625 175.824219 153.3125 178.03125 151.304688 174.679688 C 149.292969 171.332031 145.148438 175.695312 143.480469 176.417969 C 141.8125 177.136719 141 184.410156 137.9375 185.730469 C 134.882812 187.050781 133.085938 182.886719 132.800781 180.695312 C 132.515625 178.515625 136.394531 174.523438 140.722656 172.328125 C 145.050781 170.128906 139.203125 168.035156 140.265625 166.683594 C 141.328125 165.324219 146.03125 164.761719 150.78125 164.6875 C 155.527344 164.617188 158.019531 158.921875 161.667969 157.4375 C 165.3125 155.957031 152.652344 157.945312 155.058594 153.605469 C 157.476562 149.261719 148.613281 150.121094 147.566406 146.949219 C 146.527344 143.765625 142.460938 141.238281 141.023438 137.902344 C 140.5625 136.839844 141.449219 135.640625 143.355469 134.507812 C 151.910156 133.9375 160.371094 135.707031 167.886719 139.457031 C 177.613281 144.308594 185.738281 152.488281 190.378906 163.238281 " fill-opacity="1" fill-rule="nonzero"/></g></g></g><g clip-path="url(#a19212c20a)"><g clip-path="url(#7d40c84302)"><g clip-path="url(#4ba7e0221c)"><path fill="#ffd28e" d="M 121.886719 175.230469 C 121.886719 175.230469 124.316406 176.4375 124.738281 174 C 125.160156 171.558594 124.679688 169.964844 123.84375 170.164062 C 123 170.359375 119.632812 175.265625 121.886719 175.230469 " fill-opacity="1" fill-rule="nonzero"/></g></g></g><g clip-path="url(#93c04dbbf9)"><g clip-path="url(#f354548583)"><g clip-path="url(#d0d4632117)"><path fill="#ffd28e" d="M 112.5 179.285156 C 112.5 179.285156 115.445312 177.007812 115.464844 175.035156 C 115.488281 173.058594 120.039062 171.96875 120.425781 169.832031 C 120.816406 167.699219 123.417969 165.875 123.441406 164.03125 C 123.460938 162.191406 123.171875 159.476562 120.234375 160.523438 C 117.296875 161.574219 113.925781 161.507812 114.589844 162.964844 C 115.253906 164.425781 114.359375 164.375 112.179688 166.40625 C 110 168.441406 106.664062 168.304688 107.746094 170.808594 C 108.828125 173.316406 110.777344 175.796875 110.777344 175.796875 C 110.777344 175.796875 110.175781 178.457031 112.5 179.285156 " fill-opacity="1" fill-rule="nonzero"/></g></g></g><g clip-path="url(#5697c688d9)"><g clip-path="url(#f96249eadf)"><g clip-path="url(#f8dd83049d)"><path fill="#ffd28e" d="M 121.410156 141.53125 C 121.410156 141.53125 119.320312 150.25 118.480469 150.820312 C 117.636719 151.394531 115.652344 154.546875 115.964844 156.707031 C 116.277344 158.871094 113.109375 161.699219 109.765625 161.683594 C 106.417969 161.667969 105.183594 160.589844 105.660156 157.433594 L 105.664062 157.425781 C 106.203125 156.542969 106.765625 155.664062 107.367188 154.8125 C 111.015625 149.578125 115.742188 145.023438 121.410156 141.53125 " fill-opacity="1" fill-rule="nonzero"/></g></g></g><g clip-path="url(#147e8d2560)"><g clip-path="url(#4cf068a43a)"><g clip-path="url(#83131e0dc0)"><path fill="#ffd28e" d="M 104.941406 179.351562 C 105.085938 180.960938 105.90625 182.554688 104.597656 183.699219 C 103.285156 184.855469 104.660156 186.429688 104.617188 189.230469 C 104.578125 191.75 101.867188 196.664062 101.316406 197.628906 C 97.898438 187.6875 97.96875 177.28125 100.953125 167.835938 C 102.382812 169.445312 103.484375 172.652344 104.46875 173.429688 C 105.953125 174.597656 104.804688 177.742188 104.941406 179.351562 " fill-opacity="1" fill-rule="nonzero"/></g></g></g></svg>