<svg xmlns="http://www.w3.org/2000/svg" xmlns:xlink="http://www.w3.org/1999/xlink" width="500" zoomAndPan="magnify" viewBox="0 0 375 374.999991" height="500" preserveAspectRatio="xMidYMid meet" version="1.0"><defs><clipPath id="de017f0b60"><path d="M -70.957031 128.226562 L 246.773438 -70.957031 L 445.957031 246.773438 L 128.226562 445.957031 Z M -70.957031 128.226562 " clip-rule="nonzero"/></clipPath><clipPath id="24b60e55c4"><path d="M -70.957031 128.226562 L 246.773438 -70.957031 L 445.957031 246.773438 L 128.226562 445.957031 Z M -70.957031 128.226562 " clip-rule="nonzero"/></clipPath><clipPath id="c456b00446"><path d="M 171 160 L 324 160 L 324 310 L 171 310 Z M 171 160 " clip-rule="nonzero"/></clipPath><clipPath id="8aaeda7aeb"><path d="M -70.957031 128.226562 L 246.773438 -70.957031 L 445.957031 246.773438 L 128.226562 445.957031 Z M -70.957031 128.226562 " clip-rule="nonzero"/></clipPath><clipPath id="1b2aa9a751"><path d="M -70.957031 128.226562 L 246.773438 -70.957031 L 445.957031 246.773438 L 128.226562 445.957031 Z M -70.957031 128.226562 " clip-rule="nonzero"/></clipPath><clipPath id="5a1e3fa3cd"><path d="M 54 293 L 223 293 L 223 375 L 54 375 Z M 54 293 " clip-rule="nonzero"/></clipPath><clipPath id="7eb4e7114c"><path d="M -70.957031 128.226562 L 246.773438 -70.957031 L 445.957031 246.773438 L 128.226562 445.957031 Z M -70.957031 128.226562 " clip-rule="nonzero"/></clipPath><clipPath id="daaea12826"><path d="M -70.957031 128.226562 L 246.773438 -70.957031 L 445.957031 246.773438 L 128.226562 445.957031 Z M -70.957031 128.226562 " clip-rule="nonzero"/></clipPath><clipPath id="74f9e3f763"><path d="M 133 0 L 360 0 L 360 209 L 133 209 Z M 133 0 " clip-rule="nonzero"/></clipPath><clipPath id="b420b1137b"><path d="M -70.957031 128.226562 L 246.773438 -70.957031 L 445.957031 246.773438 L 128.226562 445.957031 Z M -70.957031 128.226562 " clip-rule="nonzero"/></clipPath><clipPath id="99d9247219"><path d="M -70.957031 128.226562 L 246.773438 -70.957031 L 445.957031 246.773438 L 128.226562 445.957031 Z M -70.957031 128.226562 " clip-rule="nonzero"/></clipPath><clipPath id="501e036111"><path d="M 84 154 L 99 154 L 99 176 L 84 176 Z M 84 154 " clip-rule="nonzero"/></clipPath><clipPath id="8c56834451"><path d="M -70.957031 128.226562 L 246.773438 -70.957031 L 445.957031 246.773438 L 128.226562 445.957031 Z M -70.957031 128.226562 " clip-rule="nonzero"/></clipPath><clipPath id="790d86dd89"><path d="M -70.957031 128.226562 L 246.773438 -70.957031 L 445.957031 246.773438 L 128.226562 445.957031 Z M -70.957031 128.226562 " clip-rule="nonzero"/></clipPath><clipPath id="368773385e"><path d="M 28 117 L 88 117 L 88 197 L 28 197 Z M 28 117 " clip-rule="nonzero"/></clipPath><clipPath id="fc596c6166"><path d="M -70.957031 128.226562 L 246.773438 -70.957031 L 445.957031 246.773438 L 128.226562 445.957031 Z M -70.957031 128.226562 " clip-rule="nonzero"/></clipPath><clipPath id="4c5fea1005"><path d="M -70.957031 128.226562 L 246.773438 -70.957031 L 445.957031 246.773438 L 128.226562 445.957031 Z M -70.957031 128.226562 " clip-rule="nonzero"/></clipPath><clipPath id="69bebc267c"><path d="M 14 44 L 66 44 L 66 131 L 14 131 Z M 14 44 " clip-rule="nonzero"/></clipPath><clipPath id="ede278785b"><path d="M -70.957031 128.226562 L 246.773438 -70.957031 L 445.957031 246.773438 L 128.226562 445.957031 Z M -70.957031 128.226562 " clip-rule="nonzero"/></clipPath><clipPath id="bd6e1d8189"><path d="M -70.957031 128.226562 L 246.773438 -70.957031 L 445.957031 246.773438 L 128.226562 445.957031 Z M -70.957031 128.226562 " clip-rule="nonzero"/></clipPath><clipPath id="c3f25607e9"><path d="M 0 158 L 30 158 L 30 275 L 0 275 Z M 0 158 " clip-rule="nonzero"/></clipPath><clipPath id="f7251f58d7"><path d="M -70.957031 128.226562 L 246.773438 -70.957031 L 445.957031 246.773438 L 128.226562 445.957031 Z M -70.957031 128.226562 " clip-rule="nonzero"/></clipPath><clipPath id="7780fa1b88"><path d="M -70.957031 128.226562 L 246.773438 -70.957031 L 445.957031 246.773438 L 128.226562 445.957031 Z M -70.957031 128.226562 " clip-rule="nonzero"/></clipPath></defs><g clip-path="url(#de017f0b60)"><g clip-path="url(#24b60e55c4)"><path fill="#ff9f59" d="M 346.378906 87.886719 C 346.613281 88.261719 346.871094 88.675781 347.085938 89.070312 C 351.941406 96.929688 356.152344 105.007812 359.695312 113.269531 C 376.949219 153.082031 379.335938 196.535156 368.496094 236.496094 L 368.46875 236.511719 C 356.566406 280.503906 328.710938 320.300781 287.09375 346.390625 C 266.726562 359.160156 244.855469 367.546875 222.59375 371.734375 C 219.851562 372.28125 217.082031 372.738281 214.304688 373.136719 C 175.6875 378.699219 136.328125 371.992188 101.859375 354.328125 C 84.542969 345.445312 68.4375 333.808594 54.332031 319.578125 C 44.761719 309.914062 36.113281 299.066406 28.609375 287.09375 C 25.972656 282.890625 23.519531 278.632812 21.308594 274.3125 C 2.140625 237.78125 -3.78125 197.355469 2.175781 158.941406 C 4.464844 144.148438 8.511719 129.644531 14.25 115.789062 L 14.261719 115.75 C 15.820312 112.011719 17.480469 108.265625 19.308594 104.605469 C 30.355469 82.125 45.980469 61.636719 65.878906 44.726562 C 72.707031 38.910156 80.058594 33.527344 87.886719 28.621094 C 106.539062 16.925781 126.507812 8.914062 146.839844 4.410156 C 179.683594 -2.898438 213.566406 -1.0625 244.953125 9.011719 C 285.578125 22.039062 321.960938 48.9375 346.378906 87.886719 " fill-opacity="1" fill-rule="nonzero"/></g></g><g clip-path="url(#c456b00446)"><g clip-path="url(#8aaeda7aeb)"><g clip-path="url(#1b2aa9a751)"><path fill="#ffd28e" d="M 286.660156 298.535156 C 286.660156 298.535156 270.445312 291.890625 258.4375 270.597656 C 246.425781 249.3125 242.34375 247.070312 226.191406 251.191406 C 210.042969 255.3125 191.71875 255.984375 183.316406 246.847656 C 174.910156 237.703125 171.308594 206.34375 171.308594 206.34375 C 171.308594 206.34375 180.203125 186.363281 194.730469 179.652344 C 209.261719 172.945312 232.328125 158.488281 248.839844 161.347656 C 265.351562 164.195312 285.582031 181.535156 290.925781 179.386719 C 296.269531 177.238281 307.976562 221.53125 309.84375 228.769531 C 311.703125 236.003906 321.074219 263.757812 322.210938 276.246094 C 323.351562 288.742188 323.953125 300.375 320.105469 302.785156 C 316.261719 305.195312 300.046875 317.765625 286.660156 298.535156 " fill-opacity="1" fill-rule="nonzero"/></g></g></g><g clip-path="url(#5a1e3fa3cd)"><g clip-path="url(#7eb4e7114c)"><g clip-path="url(#daaea12826)"><path fill="#ffd28e" d="M 210.769531 343.363281 C 212.484375 347.960938 217.773438 359.738281 222.59375 371.734375 C 219.851562 372.28125 217.082031 372.738281 214.304688 373.136719 C 175.6875 378.699219 136.328125 371.992188 101.859375 354.328125 C 84.542969 345.445312 68.4375 333.808594 54.332031 319.578125 C 58.238281 312.785156 63.828125 305.378906 71.121094 300.988281 C 87.117188 291.390625 91.539062 294.027344 111.046875 295.246094 C 130.539062 296.492188 156.179688 314 162.125 310.847656 C 168.042969 307.667969 207.6875 335.207031 210.769531 343.363281 " fill-opacity="1" fill-rule="nonzero"/></g></g></g><g clip-path="url(#74f9e3f763)"><g clip-path="url(#b420b1137b)"><g clip-path="url(#99d9247219)"><path fill="#ffd28e" d="M 346.378906 87.886719 C 346.613281 88.261719 346.871094 88.675781 347.085938 89.070312 C 351.941406 96.929688 356.152344 105.007812 359.695312 113.269531 C 345.996094 107.261719 328.433594 96.363281 322.785156 96.070312 C 314.074219 95.597656 290.332031 106.933594 305.316406 112.949219 C 320.328125 118.988281 323.734375 116.851562 323.734375 116.851562 C 323.734375 116.851562 327.796875 157.761719 314.839844 161.667969 C 301.867188 165.609375 254.324219 138.988281 254.324219 138.988281 C 234.789062 136.890625 255.1875 113.523438 255.1875 113.523438 C 255.1875 113.523438 258.832031 101.4375 241.695312 100.957031 C 224.570312 100.476562 226.238281 123.253906 216.925781 126.289062 C 207.613281 129.320312 210.636719 138.636719 213.167969 148.277344 C 215.695312 157.90625 211.375 167.335938 201.59375 155.53125 C 191.792969 143.742188 178.3125 163.136719 172.277344 166.921875 C 166.234375 170.710938 167.398438 199.410156 156.304688 206.363281 C 145.246094 213.296875 135.785156 198.207031 133.378906 189.886719 C 130.980469 181.585938 143.65625 163.800781 159.140625 152.710938 C 174.613281 141.597656 150.683594 136.957031 154 131.078125 C 157.316406 125.167969 175.222656 120.1875 193.609375 117.078125 C 211.980469 113.980469 218.253906 90.40625 231.53125 82.476562 C 244.789062 74.554688 196.855469 89.800781 203.617188 71.53125 C 210.414062 53.25 176.53125 61.855469 170.589844 50.164062 C 164.660156 38.441406 147.382812 31.050781 139.808594 18.96875 C 137.398438 15.121094 140.113281 9.933594 146.839844 4.410156 C 179.683594 -2.898438 213.566406 -1.0625 244.953125 9.011719 C 285.578125 22.039062 321.960938 48.9375 346.378906 87.886719 " fill-opacity="1" fill-rule="nonzero"/></g></g></g><g clip-path="url(#501e036111)"><g clip-path="url(#8c56834451)"><g clip-path="url(#790d86dd89)"><path fill="#ffd28e" d="M 87.785156 175.179688 C 87.785156 175.179688 97.941406 178.414062 98.117188 168.699219 C 98.296875 158.976562 95.488281 153.078125 92.363281 154.347656 C 89.21875 155.613281 79.066406 176.644531 87.785156 175.179688 " fill-opacity="1" fill-rule="nonzero"/></g></g></g><g clip-path="url(#368773385e)"><g clip-path="url(#fc596c6166)"><g clip-path="url(#4c5fea1005)"><path fill="#ffd28e" d="M 53.785156 196.492188 C 53.785156 196.492188 63.859375 185.90625 62.765625 178.234375 C 61.671875 170.554688 78.679688 163.613281 78.910156 155.101562 C 79.152344 146.59375 88.164062 137.964844 87.152344 130.800781 C 86.128906 123.652344 83.40625 113.289062 72.628906 119.105469 C 61.859375 124.929688 48.730469 126.671875 52.175781 131.925781 C 55.625 137.207031 52.117188 137.539062 44.875 146.726562 C 37.632812 155.910156 24.613281 157.371094 30.300781 166.441406 C 35.992188 175.519531 45.023438 183.988281 45.023438 183.988281 C 45.023438 183.988281 44.273438 194.65625 53.785156 196.492188 " fill-opacity="1" fill-rule="nonzero"/></g></g></g><g clip-path="url(#69bebc267c)"><g clip-path="url(#ede278785b)"><g clip-path="url(#bd6e1d8189)"><path fill="#ffd28e" d="M 65.878906 44.726562 C 65.878906 44.726562 62.96875 79.785156 60.054688 82.5 C 57.117188 85.222656 51.285156 98.636719 53.796875 106.839844 C 56.285156 115.050781 45.691406 127.898438 32.707031 129.832031 C 19.710938 131.757812 14.28125 128.308594 14.25 115.789062 L 14.261719 115.75 C 15.820312 112.011719 17.480469 108.265625 19.308594 104.605469 C 30.355469 82.125 45.980469 61.636719 65.878906 44.726562 " fill-opacity="1" fill-rule="nonzero"/></g></g></g><g clip-path="url(#c3f25607e9)"><g clip-path="url(#f7251f58d7)"><g clip-path="url(#7780fa1b88)"><path fill="#ffd28e" d="M 24.507812 201.25 C 26.015625 207.410156 30.152344 213.09375 25.761719 218.320312 C 21.347656 223.582031 27.621094 228.875 29.121094 239.761719 C 30.476562 249.566406 22.875 270.234375 21.308594 274.3125 C 2.140625 237.78125 -3.78125 197.355469 2.175781 158.941406 C 8.679688 164.34375 14.855469 176.125 19.144531 178.546875 C 25.597656 182.207031 23.011719 195.085938 24.507812 201.25 " fill-opacity="1" fill-rule="nonzero"/></g></g></g></svg>