<svg xmlns="http://www.w3.org/2000/svg" xmlns:xlink="http://www.w3.org/1999/xlink" width="1366" zoomAndPan="magnify" viewBox="0 0 1024.5 576" height="768" preserveAspectRatio="xMidYMid meet" version="1.0"><defs><filter x="0%" y="0%" width="100%" height="100%" id="7dbd19d0bd"><feColorMatrix values="0 0 0 0 1 0 0 0 0 1 0 0 0 0 1 0 0 0 1 0" color-interpolation-filters="sRGB"/></filter><mask id="ed287ad4b8"><g filter="url(#7dbd19d0bd)"><rect x="-102.45" width="1229.4" fill="#000000" y="-57.6" height="691.2" fill-opacity="0.3"/></g></mask><clipPath id="2b09d0963e"><path d="M 0.585938 0.164062 L 61.035156 0.164062 L 61.035156 61.574219 L 0.585938 61.574219 Z M 0.585938 0.164062 " clip-rule="nonzero"/></clipPath><clipPath id="9b428192c2"><rect x="0" width="62" y="0" height="62"/></clipPath><mask id="bab04ffd51"><g filter="url(#7dbd19d0bd)"><rect x="-102.45" width="1229.4" fill="#000000" y="-57.6" height="691.2" fill-opacity="0.2"/></g></mask><clipPath id="16c843f9d6"><path d="M 0.0195312 0.164062 L 47 0.164062 L 47 59.417969 L 0.0195312 59.417969 Z M 0.0195312 0.164062 " clip-rule="nonzero"/></clipPath><clipPath id="9f5f108130"><rect x="0" width="48" y="0" height="60"/></clipPath><mask id="4ff6d110b9"><g filter="url(#7dbd19d0bd)"><rect x="-102.45" width="1229.4" fill="#000000" y="-57.6" height="691.2" fill-opacity="0.5"/></g></mask><clipPath id="a23db1f2a5"><path d="M 0.503906 0.796875 L 14.417969 0.796875 L 14.417969 24.308594 L 0.503906 24.308594 Z M 0.503906 0.796875 " clip-rule="nonzero"/></clipPath><clipPath id="513f4e8e44"><rect x="0" width="15" y="0" height="25"/></clipPath><mask id="0d57452284"><g filter="url(#7dbd19d0bd)"><rect x="-102.45" width="1229.4" fill="#000000" y="-57.6" height="691.2" fill-opacity="0.2"/></g></mask><clipPath id="80cca7ca89"><path d="M 1 0.609375 L 75.308594 0.609375 L 75.308594 75 L 1 75 Z M 1 0.609375 " clip-rule="nonzero"/></clipPath><clipPath id="ff46b4bec5"><rect x="0" width="76" y="0" height="76"/></clipPath><mask id="17d1a3ba21"><g filter="url(#7dbd19d0bd)"><rect x="-102.45" width="1229.4" fill="#000000" y="-57.6" height="691.2" fill-opacity="0.4"/></g></mask><clipPath id="d597d6e3ae"><path d="M 0.144531 0.246094 L 66 0.246094 L 66 66.933594 L 0.144531 66.933594 Z M 0.144531 0.246094 " clip-rule="nonzero"/></clipPath><clipPath id="7ff223201d"><rect x="0" width="67" y="0" height="67"/></clipPath></defs><path fill="#ff66c4" d="M 785.871094 115 C 801.226562 108.03125 819.320312 114.832031 826.285156 130.1875 C 833.253906 145.539062 826.453125 163.636719 811.101562 170.605469 C 795.746094 177.570312 777.648438 170.773438 770.679688 155.417969 C 763.714844 140.0625 770.515625 121.96875 785.871094 115 Z M 785.871094 115 " fill-opacity="1" fill-rule="evenodd"/><g mask="url(#ed287ad4b8)"><g transform="matrix(1, 0, 0, 1, 768, 112)"><g clip-path="url(#9b428192c2)"><g clip-path="url(#2b09d0963e)"><path fill="#ffffff" d="M 19.378906 30.867188 C 19.785156 31.417969 15.707031 35.09375 13.390625 37.125 C 9.933594 40.152344 6.925781 41.941406 4.171875 45.398438 C 4.089844 45.503906 3.992188 45.632812 3.886719 45.785156 C 4.089844 46.148438 4.296875 46.503906 4.511719 46.855469 C 3.832031 45.75 3.222656 44.601562 2.683594 43.417969 C 2.414062 42.824219 2.167969 42.226562 1.941406 41.628906 C 4.097656 38.515625 7.335938 37.082031 10.449219 35.539062 C 13.691406 33.925781 19.054688 30.425781 19.378906 30.867188 Z M 54.503906 11.945312 C 53.957031 12.351562 53.363281 12.804688 52.75 13.347656 C 50.023438 15.734375 47.792969 19.144531 47.492188 18.9375 C 47.285156 18.792969 48.328125 16.953125 48.738281 15.164062 C 49.476562 11.929688 48.988281 9.953125 48.117188 8.875 C 47.414062 8.011719 45.914062 7.429688 43.640625 6.9375 C 41.667969 6.515625 40.347656 6.441406 40.242188 6.003906 C 40.085938 5.351562 41.710938 4.140625 43.945312 3.398438 C 43.667969 3.265625 43.390625 3.132812 43.109375 3.003906 C 47.636719 5.054688 51.4375 8.035156 54.503906 11.945312 Z M 53.984375 50.304688 C 50.996094 53.910156 47.367188 56.675781 43.101562 58.605469 C 32.691406 63.328125 21.019531 61.722656 12.414062 55.410156 C 16.140625 51.132812 25.792969 46.261719 26.296875 45.851562 C 34.679688 39.058594 40.363281 26.496094 43.121094 27.550781 C 44.355469 28.023438 44.6875 30.484375 44.496094 32.382812 C 46.304688 30.386719 47.992188 28.410156 49.550781 26.476562 C 49.660156 25.777344 49.804688 25.046875 49.996094 24.277344 C 51.464844 18.453125 54.175781 15.398438 55.808594 14.808594 C 56 14.742188 56.191406 14.683594 56.390625 14.632812 C 57.097656 15.777344 57.730469 16.960938 58.285156 18.1875 C 59.421875 20.675781 60.207031 23.273438 60.636719 25.976562 C 61.070312 28.679688 61.136719 31.390625 60.839844 34.109375 C 59.292969 36.050781 57.496094 38.15625 55.46875 40.433594 C 52.699219 43.550781 49 47.699219 50.105469 49.5 C 50.691406 50.449219 52.449219 50.484375 53.984375 50.304688 Z M 48.285156 39.753906 C 47.25 40.855469 46.183594 41.953125 45.09375 43.050781 C 40.648438 47.519531 36.136719 51.539062 31.738281 55.015625 C 33.117188 54.980469 34.582031 54.765625 35.925781 54.355469 C 42.667969 52.300781 46.753906 45.316406 48.285156 39.753906 Z M 41.128906 2.1875 C 38.179688 4.152344 32.601562 6.332031 30.1875 7.953125 C 22.710938 12.984375 18.136719 19.363281 18.769531 20.125 C 19.296875 20.757812 25.757812 16.574219 31.246094 14.464844 C 38.257812 11.765625 44.640625 10.121094 46.289062 12.375 C 47.632812 14.207031 45.324219 18.089844 41.363281 23.96875 C 37.078125 30.335938 32.09375 34.542969 24.148438 40.074219 C 20.726562 42.457031 17.441406 44.375 14.242188 46.847656 C 12.648438 48.082031 10.453125 50.09375 8.421875 51.914062 C 7.503906 50.957031 6.65625 49.945312 5.875 48.875 C 6.582031 47.734375 7.398438 46.542969 8.304688 45.363281 C 16.925781 34.125 27.757812 32.257812 36.617188 20.554688 C 38.3125 18.3125 39.402344 16.527344 38.914062 15.957031 C 37.457031 14.25 21.261719 22.679688 10.953125 32.082031 C 9.871094 33.070312 7.183594 35.8125 6.039062 35.140625 C 4.988281 34.527344 5.722656 31.359375 6.140625 29.882812 C 7.800781 24.035156 13.464844 19.859375 13.746094 13.753906 C 13.824219 12.132812 13.613281 11.21875 13.082031 10.976562 C 10.890625 9.984375 4.996094 21.132812 0.71875 24.023438 C 2.765625 15.046875 8.839844 7.097656 17.871094 3 C 18.09375 2.898438 18.316406 2.800781 18.539062 2.703125 C 20.183594 5.582031 18.394531 11.523438 19.515625 11.847656 C 20.726562 12.199219 22.921875 5.308594 26.925781 0.472656 C 31.796875 -0.0976562 36.535156 0.472656 41.128906 2.1875 Z M 41.128906 2.1875 " fill-opacity="1" fill-rule="evenodd"/></g></g></g></g><g mask="url(#bab04ffd51)"><g transform="matrix(1, 0, 0, 1, 782, 112)"><g clip-path="url(#9f5f108130)"><g clip-path="url(#16c843f9d6)"><path fill="#000000" d="M 0.0429688 5.035156 C 12.519531 -2.953125 29.300781 -0.855469 39.386719 10.621094 C 50.523438 23.289062 49.289062 42.582031 36.628906 53.71875 C 33.835938 56.183594 30.695312 58.066406 27.210938 59.378906 C 28.527344 58.535156 29.769531 57.597656 30.945312 56.5625 C 43.601562 45.429688 44.835938 26.132812 33.703125 13.464844 C 25.082031 3.660156 11.578125 0.703125 0.0429688 5.035156 Z M 0.0429688 5.035156 " fill-opacity="1" fill-rule="evenodd"/></g></g></g></g><g mask="url(#4ff6d110b9)"><g transform="matrix(1, 0, 0, 1, 770, 126)"><g clip-path="url(#513f4e8e44)"><g clip-path="url(#a23db1f2a5)"><path fill="#ffffff" d="M 1.328125 10.949219 C 2.898438 4.613281 6.9375 0.167969 10.347656 1.015625 C 13.757812 1.859375 15.253906 7.679688 13.683594 14.011719 C 12.113281 20.34375 8.070312 24.792969 4.660156 23.945312 C 1.25 23.097656 -0.246094 17.277344 1.328125 10.949219 Z M 1.328125 10.949219 " fill-opacity="1" fill-rule="evenodd"/></g></g></g></g><path fill="#cb6ce6" d="M 814.332031 156.039062 C 794.902344 175.566406 774.136719 186.410156 767.953125 180.253906 C 764.4375 176.757812 766.386719 168.527344 772.289062 158.488281 C 772.78125 159.308594 773.304688 160.097656 773.859375 160.855469 C 770.851562 166.625 770.136719 170.945312 772.402344 172.578125 C 777.246094 176.070312 793.867188 165.972656 809.523438 150.023438 C 825.179688 134.078125 833.949219 118.320312 829.105469 114.832031 C 826.875 113.222656 822.144531 114.5 816.160156 117.902344 C 815.21875 117.238281 814.246094 116.628906 813.238281 116.074219 C 824.734375 108.53125 834.417969 105.660156 838.316406 109.539062 C 844.5 115.691406 833.765625 136.511719 814.332031 156.039062 Z M 814.332031 156.039062 " fill-opacity="1" fill-rule="evenodd"/><g mask="url(#0d57452284)"><g transform="matrix(1, 0, 0, 1, 765, 107)"><g clip-path="url(#ff46b4bec5)"><g clip-path="url(#80cca7ca89)"><path fill="#000000" d="M 49.332031 49.039062 C 29.902344 68.566406 9.136719 79.410156 2.953125 73.253906 C -0.5625 69.757812 1.386719 61.527344 7.289062 51.488281 C 7.78125 52.308594 8.304688 53.097656 8.859375 53.855469 C 5.851562 59.625 5.136719 63.945312 7.402344 65.578125 C 12.246094 69.070312 28.867188 58.972656 44.523438 43.023438 C 60.179688 27.078125 68.949219 11.320312 64.105469 7.832031 C 61.875 6.222656 57.144531 7.5 51.160156 10.902344 C 50.21875 10.238281 49.246094 9.628906 48.238281 9.074219 C 59.734375 1.53125 69.417969 -1.339844 73.316406 2.539062 C 79.5 8.691406 68.765625 29.511719 49.332031 49.039062 Z M 49.332031 49.039062 " fill-opacity="1" fill-rule="evenodd"/></g></g></g></g><path fill="#cb6ce6" d="M 813.09375 155.050781 C 793.328125 174.917969 772.207031 185.945312 765.914062 179.683594 C 762.191406 175.980469 764.496094 167.058594 771.089844 156.273438 C 771.527344 157.164062 772.003906 158.023438 772.511719 158.851562 C 768.964844 165.269531 767.996094 170.109375 770.445312 171.875 C 775.371094 175.425781 792.277344 165.152344 808.203125 148.933594 C 824.128906 132.710938 833.046875 116.679688 828.121094 113.132812 C 825.765625 111.433594 820.671875 112.898438 814.257812 116.65625 C 813.230469 116.039062 812.171875 115.484375 811.082031 114.992188 C 823.167969 106.878906 833.425781 103.703125 837.492188 107.75 C 843.785156 114.007812 832.859375 135.1875 813.09375 155.050781 Z M 813.09375 155.050781 " fill-opacity="1" fill-rule="evenodd"/><g mask="url(#17d1a3ba21)"><g transform="matrix(1, 0, 0, 1, 767, 110)"><g clip-path="url(#7ff223201d)"><g clip-path="url(#d597d6e3ae)"><path fill="#ffffff" d="M 43.050781 41.992188 C 25.773438 59.730469 7.292969 70.355469 1.769531 65.730469 C -1.269531 63.1875 0.246094 56.558594 5.097656 48.15625 C 5.105469 48.175781 5.117188 48.191406 5.125 48.210938 C 5.144531 48.242188 5.164062 48.273438 5.183594 48.304688 C 5.28125 48.46875 5.378906 48.632812 5.476562 48.796875 L 5.511719 48.855469 C 1.964844 55.269531 0.996094 60.113281 3.445312 61.875 C 8.371094 65.425781 25.277344 55.15625 41.203125 38.933594 C 57.128906 22.710938 66.046875 6.683594 61.121094 3.132812 C 58.765625 1.433594 53.671875 2.898438 47.257812 6.65625 C 47.203125 6.625 47.144531 6.59375 47.089844 6.558594 C 46.964844 6.488281 46.84375 6.414062 46.71875 6.34375 C 46.59375 6.273438 46.480469 6.207031 46.359375 6.140625 C 46.324219 6.121094 46.289062 6.101562 46.253906 6.082031 C 54.574219 0.957031 61.34375 -0.996094 64.328125 1.5 C 69.851562 6.128906 60.324219 24.257812 43.050781 41.992188 Z M 43.050781 41.992188 " fill-opacity="1" fill-rule="evenodd"/></g></g></g></g></svg>