<svg xmlns="http://www.w3.org/2000/svg" xmlns:xlink="http://www.w3.org/1999/xlink" width="1366" zoomAndPan="magnify" viewBox="0 0 1024.5 576" height="768" preserveAspectRatio="xMidYMid meet" version="1.0"><defs><filter x="0%" y="0%" width="100%" height="100%" id="06f33b7d61"><feColorMatrix values="0 0 0 0 1 0 0 0 0 1 0 0 0 0 1 0 0 0 1 0" color-interpolation-filters="sRGB"/></filter><mask id="cd3091b4a3"><g filter="url(#06f33b7d61)"><rect x="-102.45" width="1229.4" fill="#000000" y="-57.6" height="691.2" fill-opacity="0.3"/></g></mask><clipPath id="0c55be6fad"><path d="M 0.523438 0.25 L 60.972656 0.25 L 60.972656 61.660156 L 0.523438 61.660156 Z M 0.523438 0.25 " clip-rule="nonzero"/></clipPath><clipPath id="4200978375"><rect x="0" width="61" y="0" height="62"/></clipPath><mask id="19f86da3f9"><g filter="url(#06f33b7d61)"><rect x="-102.45" width="1229.4" fill="#000000" y="-57.6" height="691.2" fill-opacity="0.2"/></g></mask><clipPath id="ec16e09567"><path d="M 0.714844 0.25 L 47.972656 0.25 L 47.972656 59.742188 L 0.714844 59.742188 Z M 0.714844 0.25 " clip-rule="nonzero"/></clipPath><clipPath id="b8749ff32d"><rect x="0" width="48" y="0" height="60"/></clipPath><mask id="9347e8cacf"><g filter="url(#06f33b7d61)"><rect x="-102.45" width="1229.4" fill="#000000" y="-57.6" height="691.2" fill-opacity="0.5"/></g></mask><clipPath id="e1ce88da16"><path d="M 0.441406 1 L 14.355469 1 L 14.355469 24.390625 L 0.441406 24.390625 Z M 0.441406 1 " clip-rule="nonzero"/></clipPath><clipPath id="e1466a3f50"><rect x="0" width="15" y="0" height="25"/></clipPath><mask id="caa372d690"><g filter="url(#06f33b7d61)"><rect x="-102.45" width="1229.4" fill="#000000" y="-57.6" height="691.2" fill-opacity="0.2"/></g></mask><clipPath id="8036074e5e"><path d="M 1 0.933594 L 75 0.933594 L 75 75.296875 L 1 75.296875 Z M 1 0.933594 " clip-rule="nonzero"/></clipPath><clipPath id="359ec5668a"><rect x="0" width="76" y="0" height="76"/></clipPath><mask id="2435c8024b"><g filter="url(#06f33b7d61)"><rect x="-102.45" width="1229.4" fill="#000000" y="-57.6" height="691.2" fill-opacity="0.4"/></g></mask><clipPath id="06d1b977a2"><path d="M 1 0.570312 L 66.808594 0.570312 L 66.808594 67 L 1 67 Z M 1 0.570312 " clip-rule="nonzero"/></clipPath><clipPath id="99108d614c"><rect x="0" width="67" y="0" height="68"/></clipPath></defs><path fill="#ff66c4" d="M 751.753906 107.179688 C 767.109375 100.214844 785.203125 107.011719 792.167969 122.367188 C 799.136719 137.722656 792.335938 155.816406 776.984375 162.785156 C 761.628906 169.753906 743.53125 162.953125 736.566406 147.597656 C 729.597656 132.246094 736.398438 114.148438 751.753906 107.179688 Z M 751.753906 107.179688 " fill-opacity="1" fill-rule="evenodd"/><g mask="url(#cd3091b4a3)"><g transform="matrix(1, 0, 0, 1, 734, 104)"><g clip-path="url(#4200978375)"><g clip-path="url(#0c55be6fad)"><path fill="#ffffff" d="M 19.261719 31.046875 C 19.667969 31.601562 15.589844 35.273438 13.273438 37.304688 C 9.820312 40.335938 6.808594 42.125 4.054688 45.582031 C 3.972656 45.683594 3.875 45.816406 3.769531 45.96875 C 3.972656 46.328125 4.183594 46.6875 4.398438 47.039062 C 3.714844 45.929688 3.105469 44.785156 2.566406 43.601562 C 2.296875 43.007812 2.054688 42.410156 1.824219 41.808594 C 3.980469 38.695312 7.21875 37.265625 10.332031 35.71875 C 13.574219 34.109375 18.941406 30.609375 19.261719 31.046875 Z M 54.386719 12.125 C 53.839844 12.53125 53.246094 12.988281 52.632812 13.527344 C 49.90625 15.914062 47.675781 19.324219 47.375 19.121094 C 47.167969 18.976562 48.214844 17.136719 48.621094 15.347656 C 49.359375 12.109375 48.871094 10.136719 48 9.058594 C 47.296875 8.191406 45.796875 7.613281 43.523438 7.121094 C 41.550781 6.695312 40.230469 6.625 40.125 6.183594 C 39.96875 5.535156 41.59375 4.320312 43.832031 3.582031 C 43.554688 3.445312 43.273438 3.3125 42.992188 3.1875 C 47.519531 5.238281 51.320312 8.214844 54.386719 12.125 Z M 53.867188 50.484375 C 50.878906 54.089844 47.25 56.855469 42.984375 58.785156 C 32.574219 63.507812 20.902344 61.902344 12.296875 55.59375 C 16.023438 51.316406 25.675781 46.441406 26.179688 46.035156 C 34.5625 39.238281 40.246094 26.679688 43.003906 27.734375 C 44.238281 28.207031 44.570312 30.664062 44.378906 32.566406 C 46.1875 30.566406 47.875 28.589844 49.433594 26.660156 C 49.542969 25.957031 49.6875 25.230469 49.878906 24.457031 C 51.347656 18.632812 54.058594 15.582031 55.691406 14.992188 C 55.882812 14.921875 56.074219 14.863281 56.273438 14.816406 C 56.980469 15.957031 57.613281 17.140625 58.167969 18.367188 C 59.304688 20.859375 60.089844 23.453125 60.523438 26.15625 C 60.953125 28.859375 61.023438 31.570312 60.722656 34.292969 C 59.175781 36.234375 57.378906 38.339844 55.351562 40.617188 C 52.582031 43.730469 48.882812 47.882812 49.988281 49.683594 C 50.574219 50.628906 52.332031 50.667969 53.867188 50.484375 Z M 48.167969 39.933594 C 47.132812 41.035156 46.070312 42.136719 44.976562 43.234375 C 40.535156 47.699219 36.019531 51.71875 31.621094 55.195312 C 33 55.164062 34.464844 54.945312 35.808594 54.539062 C 42.550781 52.480469 46.636719 45.5 48.167969 39.933594 Z M 41.011719 2.371094 C 38.0625 4.335938 32.484375 6.511719 30.070312 8.136719 C 22.597656 13.167969 18.019531 19.546875 18.652344 20.304688 C 19.179688 20.941406 25.640625 16.757812 31.128906 14.644531 C 38.144531 11.945312 44.523438 10.304688 46.171875 12.554688 C 47.515625 14.390625 45.207031 18.273438 41.246094 24.152344 C 36.960938 30.515625 31.976562 34.722656 24.03125 40.253906 C 20.609375 42.640625 17.324219 44.554688 14.125 47.03125 C 12.53125 48.265625 10.335938 50.273438 8.304688 52.097656 C 7.390625 51.140625 6.539062 50.125 5.757812 49.058594 C 6.464844 47.917969 7.28125 46.726562 8.1875 45.542969 C 16.808594 34.308594 27.640625 32.4375 36.5 20.738281 C 38.195312 18.496094 39.285156 16.710938 38.796875 16.140625 C 37.339844 14.433594 21.144531 22.863281 10.835938 32.261719 C 9.753906 33.253906 7.070312 35.992188 5.921875 35.324219 C 4.871094 34.710938 5.605469 31.539062 6.023438 30.0625 C 7.683594 24.21875 13.347656 20.042969 13.632812 13.9375 C 13.707031 12.3125 13.496094 11.402344 12.964844 11.160156 C 10.773438 10.167969 4.878906 21.316406 0.601562 24.207031 C 2.652344 15.230469 8.722656 7.28125 17.753906 3.179688 C 17.976562 3.078125 18.199219 2.980469 18.421875 2.886719 C 20.066406 5.761719 18.277344 11.703125 19.398438 12.03125 C 20.609375 12.378906 22.804688 5.488281 26.808594 0.652344 C 31.679688 0.0820312 36.417969 0.65625 41.015625 2.367188 Z M 41.011719 2.371094 " fill-opacity="1" fill-rule="evenodd"/></g></g></g></g><g mask="url(#19f86da3f9)"><g transform="matrix(1, 0, 0, 1, 747, 104)"><g clip-path="url(#b8749ff32d)"><g clip-path="url(#ec16e09567)"><path fill="#000000" d="M 0.925781 5.214844 C 13.40625 -2.769531 30.183594 -0.671875 40.273438 10.804688 C 51.40625 23.46875 50.171875 42.765625 37.511719 53.902344 C 34.71875 56.363281 31.578125 58.25 28.09375 59.558594 C 29.410156 58.714844 30.65625 57.777344 31.828125 56.746094 C 44.484375 45.609375 45.722656 26.316406 34.585938 13.648438 C 25.964844 3.839844 12.460938 0.886719 0.925781 5.214844 Z M 0.925781 5.214844 " fill-opacity="1" fill-rule="evenodd"/></g></g></g></g><g mask="url(#9347e8cacf)"><g transform="matrix(1, 0, 0, 1, 736, 118)"><g clip-path="url(#e1466a3f50)"><g clip-path="url(#e1ce88da16)"><path fill="#ffffff" d="M 1.210938 11.128906 C 2.78125 4.796875 6.820312 0.347656 10.230469 1.195312 C 13.644531 2.042969 15.136719 7.863281 13.566406 14.195312 C 11.996094 20.527344 7.957031 24.972656 4.542969 24.128906 C 1.132812 23.28125 -0.359375 17.460938 1.210938 11.128906 Z M 1.210938 11.128906 " fill-opacity="1" fill-rule="evenodd"/></g></g></g></g><path fill="#cb6ce6" d="M 780.214844 148.222656 C 760.785156 167.75 740.019531 178.589844 733.835938 172.4375 C 730.320312 168.941406 732.273438 160.710938 738.175781 150.671875 C 738.664062 151.488281 739.1875 152.277344 739.742188 153.039062 C 736.734375 158.804688 736.019531 163.128906 738.289062 164.761719 C 743.132812 168.25 759.75 158.152344 775.40625 142.207031 C 791.0625 126.257812 799.832031 110.5 794.988281 107.011719 C 792.757812 105.40625 788.027344 106.683594 782.042969 110.085938 C 781.101562 109.417969 780.128906 108.808594 779.121094 108.253906 C 790.617188 100.714844 800.304688 97.84375 804.199219 101.71875 C 810.386719 107.875 799.648438 128.695312 780.214844 148.222656 Z M 780.214844 148.222656 " fill-opacity="1" fill-rule="evenodd"/><g mask="url(#caa372d690)"><g transform="matrix(1, 0, 0, 1, 731, 99)"><g clip-path="url(#359ec5668a)"><g clip-path="url(#8036074e5e)"><path fill="#000000" d="M 49.214844 49.222656 C 29.785156 68.75 9.019531 79.589844 2.835938 73.4375 C -0.679688 69.941406 1.273438 61.710938 7.175781 51.671875 C 7.664062 52.488281 8.1875 53.277344 8.742188 54.039062 C 5.734375 59.804688 5.019531 64.128906 7.289062 65.761719 C 12.132812 69.25 28.75 59.152344 44.40625 43.207031 C 60.0625 27.257812 68.832031 11.5 63.988281 8.011719 C 61.757812 6.40625 57.027344 7.683594 51.042969 11.085938 C 50.101562 10.417969 49.128906 9.808594 48.121094 9.253906 C 59.617188 1.714844 69.304688 -1.15625 73.199219 2.71875 C 79.386719 8.875 68.648438 29.695312 49.214844 49.222656 Z M 49.214844 49.222656 " fill-opacity="1" fill-rule="evenodd"/></g></g></g></g><path fill="#cb6ce6" d="M 778.976562 147.234375 C 759.214844 167.097656 738.089844 178.125 731.796875 171.867188 C 728.078125 168.164062 730.378906 159.238281 736.972656 148.453125 C 737.410156 149.34375 737.886719 150.207031 738.394531 151.035156 C 734.847656 157.449219 733.878906 162.292969 736.328125 164.058594 C 741.253906 167.609375 758.160156 157.335938 774.085938 141.113281 C 790.011719 124.890625 798.929688 108.863281 794.003906 105.3125 C 791.648438 103.613281 786.554688 105.078125 780.140625 108.839844 C 779.113281 108.222656 778.058594 107.664062 776.964844 107.171875 C 789.050781 99.0625 799.308594 95.886719 803.375 99.929688 C 809.667969 106.191406 798.742188 127.371094 778.976562 147.234375 Z M 778.976562 147.234375 " fill-opacity="1" fill-rule="evenodd"/><g mask="url(#2435c8024b)"><g transform="matrix(1, 0, 0, 1, 732, 102)"><g clip-path="url(#99108d614c)"><g clip-path="url(#06d1b977a2)"><path fill="#ffffff" d="M 43.933594 42.175781 C 26.65625 59.910156 8.175781 70.539062 2.652344 65.914062 C -0.386719 63.367188 1.128906 56.742188 5.980469 48.339844 C 5.988281 48.355469 6 48.375 6.011719 48.390625 C 6.027344 48.421875 6.046875 48.453125 6.066406 48.484375 C 6.164062 48.648438 6.261719 48.8125 6.359375 48.976562 L 6.394531 49.035156 C 2.847656 55.449219 1.878906 60.292969 4.328125 62.058594 C 9.253906 65.609375 26.160156 55.335938 42.085938 39.113281 C 58.011719 22.894531 66.929688 6.863281 62.003906 3.3125 C 59.648438 1.617188 54.554688 3.078125 48.140625 6.839844 C 48.085938 6.804688 48.027344 6.773438 47.972656 6.742188 C 47.851562 6.667969 47.726562 6.597656 47.601562 6.527344 C 47.476562 6.453125 47.363281 6.390625 47.242188 6.320312 C 47.207031 6.300781 47.175781 6.28125 47.140625 6.261719 C 55.457031 1.140625 62.226562 -0.816406 65.210938 1.683594 C 70.734375 6.308594 61.207031 24.4375 43.933594 42.175781 Z M 43.933594 42.175781 " fill-opacity="1" fill-rule="evenodd"/></g></g></g></g></svg>