<svg xmlns="http://www.w3.org/2000/svg" xmlns:xlink="http://www.w3.org/1999/xlink" width="500" zoomAndPan="magnify" viewBox="0 0 375 374.999991" height="500" preserveAspectRatio="xMidYMid meet" version="1.0"><path fill="#d953a5" d="M 109.316406 51.25 C 178.988281 19.664062 261.101562 50.484375 292.714844 120.09375 C 324.324219 189.699219 293.476562 271.734375 223.800781 303.320312 C 154.125 334.90625 72.007812 304.082031 40.386719 234.472656 C 8.769531 164.867188 39.632812 82.839844 109.316406 51.25 Z M 109.316406 51.25 " fill-opacity="1" fill-rule="evenodd"/><path fill="#ffffff" d="M 116.160156 177.574219 C 118.007812 180.082031 99.488281 196.734375 88.988281 205.941406 C 73.304688 219.679688 59.65625 227.785156 47.148438 243.460938 C 46.773438 243.929688 46.335938 244.523438 45.855469 245.214844 C 46.777344 246.847656 47.726562 248.464844 48.703125 250.066406 C 45.605469 245.046875 42.839844 239.851562 40.402344 234.480469 C 39.175781 231.792969 38.066406 229.082031 37.027344 226.359375 C 46.808594 212.253906 61.503906 205.761719 75.636719 198.75 C 90.351562 191.449219 114.695312 175.585938 116.160156 177.574219 Z M 275.550781 91.800781 C 273.074219 93.636719 270.382812 95.703125 267.585938 98.152344 C 255.21875 108.976562 245.09375 124.4375 243.738281 123.5 C 242.789062 122.84375 247.535156 114.507812 249.386719 106.398438 C 252.742188 91.722656 250.527344 82.773438 246.566406 77.890625 C 243.378906 73.964844 236.578125 71.332031 226.257812 69.105469 C 217.308594 67.179688 211.304688 66.859375 210.828125 64.863281 C 210.125 61.917969 217.496094 56.410156 227.644531 53.0625 C 226.386719 52.445312 225.121094 51.847656 223.851562 51.269531 C 233.972656 55.851562 243.40625 61.566406 252.148438 68.421875 C 260.890625 75.273438 268.691406 83.066406 275.550781 91.800781 Z M 273.191406 265.691406 C 266.5 273.757812 258.984375 280.964844 250.648438 287.316406 C 242.3125 293.671875 233.363281 299.003906 223.8125 303.320312 C 176.566406 324.734375 123.609375 317.453125 84.546875 288.851562 C 101.46875 269.457031 145.269531 247.363281 147.550781 245.511719 C 185.585938 214.707031 211.378906 157.765625 223.894531 162.550781 C 229.5 164.695312 231.007812 175.835938 230.132812 184.453125 C 238.335938 175.402344 246.003906 166.441406 253.074219 157.683594 C 253.570312 154.5 254.21875 151.195312 255.097656 147.703125 C 261.757812 121.296875 274.0625 107.460938 281.472656 104.785156 C 282.335938 104.476562 283.214844 104.210938 284.105469 103.992188 C 287.328125 109.171875 290.195312 114.539062 292.714844 120.09375 C 295.277344 125.714844 297.453125 131.480469 299.242188 137.390625 C 301.027344 143.304688 302.410156 149.308594 303.386719 155.40625 C 304.367188 161.503906 304.933594 167.640625 305.085938 173.816406 C 305.238281 179.988281 304.972656 186.144531 304.296875 192.285156 C 297.277344 201.082031 289.125 210.625 279.933594 220.949219 C 267.359375 235.070312 250.566406 253.890625 255.597656 262.054688 C 258.246094 266.351562 266.230469 266.515625 273.1875 265.691406 Z M 247.328125 217.859375 C 242.628906 222.855469 237.800781 227.839844 232.855469 232.816406 C 212.683594 253.066406 192.203125 271.285156 172.246094 287.046875 C 178.492188 286.898438 185.148438 285.914062 191.238281 284.066406 C 221.835938 274.746094 240.382812 243.085938 247.328125 217.859375 Z M 214.863281 47.566406 C 201.464844 56.480469 176.152344 66.347656 165.210938 73.707031 C 131.289062 96.515625 110.519531 125.433594 113.394531 128.882812 C 115.789062 131.757812 145.101562 112.792969 170.007812 103.214844 C 201.835938 90.980469 230.796875 83.539062 238.28125 93.75 C 244.375 102.0625 233.890625 119.660156 215.921875 146.3125 C 196.476562 175.164062 173.855469 194.242188 137.800781 219.316406 C 122.265625 230.125 107.359375 238.808594 92.855469 250.03125 C 85.617188 255.625 75.648438 264.734375 66.433594 272.996094 C 62.28125 268.65625 58.425781 264.0625 54.875 259.214844 C 58.089844 254.054688 61.792969 248.644531 65.90625 243.289062 C 105.027344 192.347656 154.183594 183.882812 194.382812 130.832031 C 202.078125 120.671875 207.019531 112.582031 204.808594 109.992188 C 198.1875 102.25 124.699219 140.464844 77.921875 183.085938 C 73.007812 187.570312 60.828125 199.992188 55.621094 196.957031 C 50.851562 194.179688 54.179688 179.804688 56.078125 173.113281 C 63.613281 146.609375 89.316406 127.683594 90.605469 100.003906 C 90.957031 92.652344 89.992188 88.507812 87.578125 87.414062 C 77.644531 82.921875 50.898438 133.457031 31.476562 146.5625 C 40.777344 105.867188 68.332031 69.824219 109.316406 51.246094 C 110.324219 50.785156 111.339844 50.339844 112.355469 49.914062 C 119.804688 62.945312 111.699219 89.886719 116.785156 91.359375 C 122.273438 92.949219 132.230469 61.710938 150.402344 39.792969 C 161.304688 38.515625 172.199219 38.535156 183.097656 39.851562 C 193.992188 41.164062 204.582031 43.734375 214.867188 47.566406 Z M 214.863281 47.566406 " fill-opacity="0.3" fill-rule="evenodd"/><path fill="#000000" d="M 91.941406 60.476562 C 148.570312 24.265625 224.714844 33.777344 270.488281 85.800781 C 321.015625 143.222656 315.417969 230.691406 257.96875 281.175781 C 251.683594 286.710938 244.949219 291.632812 237.765625 295.945312 C 230.582031 300.257812 223.066406 303.882812 215.222656 306.828125 C 221.199219 303.007812 226.847656 298.753906 232.171875 294.074219 C 289.613281 243.59375 295.21875 156.121094 244.691406 98.699219 C 205.574219 54.242188 144.28125 40.839844 91.941406 60.476562 Z M 91.941406 60.476562 " fill-opacity="0.2" fill-rule="evenodd"/><path fill="#ffffff" d="M 43.3125 150.746094 C 50.441406 122.039062 68.777344 101.875 84.253906 105.714844 C 99.734375 109.550781 106.507812 135.933594 99.382812 164.636719 C 92.257812 193.34375 73.925781 213.503906 58.441406 209.667969 C 42.960938 205.832031 36.1875 179.445312 43.3125 150.746094 Z M 43.3125 150.746094 " fill-opacity="0.5" fill-rule="evenodd"/><path fill="#b882bd" d="M 238.472656 237.300781 C 150.300781 325.824219 56.066406 374.972656 28 347.074219 C 12.054688 331.222656 20.90625 293.90625 47.691406 248.398438 C 49.914062 252.113281 52.285156 255.6875 54.804688 259.125 C 41.160156 285.28125 37.917969 304.867188 48.207031 312.273438 C 70.183594 328.097656 145.609375 282.320312 216.652344 210.027344 C 287.691406 137.734375 327.484375 66.300781 305.503906 50.480469 C 295.378906 43.195312 273.914062 48.984375 246.757812 64.410156 C 242.5 61.394531 238.082031 58.628906 233.511719 56.113281 C 285.667969 21.929688 329.625 8.910156 347.308594 26.492188 C 375.375 54.390625 326.648438 148.769531 238.472656 237.300781 Z M 238.472656 237.300781 " fill-opacity="1" fill-rule="evenodd"/><path fill="#000000" d="M 238.472656 237.300781 C 150.300781 325.824219 56.066406 374.972656 28 347.074219 C 12.054688 331.222656 20.90625 293.90625 47.691406 248.398438 C 49.914062 252.113281 52.285156 255.6875 54.804688 259.125 C 41.160156 285.28125 37.917969 304.867188 48.207031 312.273438 C 70.183594 328.097656 145.609375 282.320312 216.652344 210.027344 C 287.691406 137.734375 327.484375 66.300781 305.503906 50.480469 C 295.378906 43.195312 273.914062 48.984375 246.757812 64.410156 C 242.5 61.394531 238.082031 58.628906 233.511719 56.113281 C 285.667969 21.929688 329.625 8.910156 347.308594 26.492188 C 375.375 54.390625 326.648438 148.769531 238.472656 237.300781 Z M 238.472656 237.300781 " fill-opacity="0.2" fill-rule="evenodd"/><path fill="#b882bd" d="M 232.855469 232.816406 C 143.164062 322.867188 47.308594 372.863281 18.757812 344.480469 C 1.871094 327.695312 12.320312 287.242188 42.238281 238.351562 C 44.226562 242.390625 46.378906 246.289062 48.699219 250.046875 C 32.605469 279.132812 28.207031 301.085938 39.3125 309.082031 C 61.667969 325.179688 138.382812 278.613281 210.65625 205.074219 C 282.929688 131.535156 323.398438 58.871094 301.039062 42.777344 C 290.351562 35.082031 267.238281 41.714844 238.128906 58.757812 C 233.476562 55.960938 228.675781 53.445312 223.726562 51.210938 C 278.558594 14.4375 325.113281 0.0429688 343.566406 18.378906 C 372.113281 46.761719 322.550781 142.765625 232.855469 232.816406 Z M 232.855469 232.816406 " fill-opacity="1" fill-rule="evenodd"/><path fill="#ffffff" d="M 219.03125 218.949219 C 140.640625 299.355469 56.769531 347.535156 31.703125 326.5625 C 17.917969 315.027344 24.796875 284.988281 46.808594 246.898438 C 46.855469 246.976562 46.902344 247.054688 46.945312 247.132812 C 47.03125 247.273438 47.121094 247.414062 47.203125 247.558594 C 47.644531 248.304688 48.089844 249.050781 48.539062 249.789062 L 48.699219 250.050781 C 32.605469 279.136719 28.207031 301.089844 39.3125 309.085938 C 61.667969 325.183594 138.382812 278.617188 210.65625 205.078125 C 282.929688 131.539062 323.398438 58.875 301.039062 42.78125 C 290.351562 35.085938 267.238281 41.71875 238.128906 58.761719 C 237.878906 58.613281 237.621094 58.46875 237.371094 58.320312 C 236.808594 57.988281 236.25 57.664062 235.683594 57.34375 C 235.121094 57.019531 234.605469 56.722656 234.058594 56.417969 C 233.902344 56.328125 233.746094 56.242188 233.582031 56.148438 C 271.324219 32.921875 302.042969 24.0625 315.589844 35.390625 C 340.652344 56.367188 297.425781 138.546875 219.03125 218.949219 Z M 219.03125 218.949219 " fill-opacity="0.4" fill-rule="evenodd"/></svg>