<svg xmlns="http://www.w3.org/2000/svg" xmlns:xlink="http://www.w3.org/1999/xlink" width="1366" zoomAndPan="magnify" viewBox="0 0 1024.5 576" height="768" preserveAspectRatio="xMidYMid meet" version="1.0"><defs><filter x="0%" y="0%" width="100%" height="100%" id="3c4e7ffc18"><feColorMatrix values="0 0 0 0 1 0 0 0 0 1 0 0 0 0 1 0 0 0 1 0" color-interpolation-filters="sRGB"/></filter><mask id="0be781b9cb"><g filter="url(#3c4e7ffc18)"><rect x="-102.45" width="1229.4" fill="#000000" y="-57.6" height="691.2" fill-opacity="0.3"/></g></mask><clipPath id="a1c683c51f"><path d="M 0.363281 0.179688 L 54.097656 0.179688 L 54.097656 54.875 L 0.363281 54.875 Z M 0.363281 0.179688 " clip-rule="nonzero"/></clipPath><clipPath id="9b679fc983"><rect x="0" width="55" y="0" height="55"/></clipPath><mask id="ebcec5e09a"><g filter="url(#3c4e7ffc18)"><rect x="-102.45" width="1229.4" fill="#000000" y="-57.6" height="691.2" fill-opacity="0.2"/></g></mask><clipPath id="676e40077b"><path d="M 0.355469 0.179688 L 42.097656 0.179688 L 42.097656 52.953125 L 0.355469 52.953125 Z M 0.355469 0.179688 " clip-rule="nonzero"/></clipPath><clipPath id="9a8eeac27c"><rect x="0" width="43" y="0" height="53"/></clipPath><mask id="5e88a06f7b"><g filter="url(#3c4e7ffc18)"><rect x="-102.45" width="1229.4" fill="#000000" y="-57.6" height="691.2" fill-opacity="0.5"/></g></mask><clipPath id="c1e6afca0c"><path d="M 0.0429688 0.375 L 12.515625 0.375 L 12.515625 21 L 0.0429688 21 Z M 0.0429688 0.375 " clip-rule="nonzero"/></clipPath><clipPath id="190049b9dc"><rect x="0" width="13" y="0" height="22"/></clipPath><mask id="d92327c532"><g filter="url(#3c4e7ffc18)"><rect x="-102.45" width="1229.4" fill="#000000" y="-57.6" height="691.2" fill-opacity="0.2"/></g></mask><clipPath id="a9e5adc177"><path d="M 0.203125 0.34375 L 65.929688 0.34375 L 65.929688 66.550781 L 0.203125 66.550781 Z M 0.203125 0.34375 " clip-rule="nonzero"/></clipPath><clipPath id="b90839e698"><rect x="0" width="66" y="0" height="67"/></clipPath><mask id="73b17d1e1d"><g filter="url(#3c4e7ffc18)"><rect x="-102.45" width="1229.4" fill="#000000" y="-57.6" height="691.2" fill-opacity="0.4"/></g></mask><clipPath id="7f4cf0d042"><path d="M 0.164062 0.742188 L 58.695312 0.742188 L 58.695312 59.753906 L 0.164062 59.753906 Z M 0.164062 0.742188 " clip-rule="nonzero"/></clipPath><clipPath id="4b4235c787"><rect x="0" width="59" y="0" height="60"/></clipPath></defs><path fill="#ff66c4" d="M 830.773438 84.835938 C 844.40625 78.648438 860.472656 84.6875 866.65625 98.320312 C 872.839844 111.953125 866.804688 128.019531 853.171875 134.203125 C 839.539062 140.390625 823.472656 134.355469 817.289062 120.722656 C 811.101562 107.089844 817.140625 91.023438 830.773438 84.835938 Z M 830.773438 84.835938 " fill-opacity="1" fill-rule="evenodd"/><g mask="url(#0be781b9cb)"><g transform="matrix(1, 0, 0, 1, 815, 82)"><g clip-path="url(#9b679fc983)"><g clip-path="url(#a1c683c51f)"><path fill="#ffffff" d="M 17.113281 27.578125 C 17.472656 28.070312 13.851562 31.332031 11.796875 33.132812 C 8.726562 35.824219 6.058594 37.410156 3.609375 40.480469 C 3.535156 40.574219 3.449219 40.691406 3.355469 40.824219 C 3.535156 41.144531 3.722656 41.460938 3.914062 41.773438 C 3.308594 40.792969 2.765625 39.773438 2.289062 38.722656 C 2.050781 38.195312 1.832031 37.664062 1.628906 37.132812 C 3.542969 34.371094 6.417969 33.097656 9.183594 31.726562 C 12.0625 30.292969 16.824219 27.1875 17.113281 27.578125 Z M 48.296875 10.777344 C 47.8125 11.136719 47.285156 11.542969 46.738281 12.023438 C 44.320312 14.144531 42.339844 17.171875 42.074219 16.988281 C 41.886719 16.859375 42.816406 15.226562 43.179688 13.636719 C 43.835938 10.761719 43.402344 9.011719 42.625 8.054688 C 42.003906 7.285156 40.671875 6.769531 38.652344 6.332031 C 36.902344 5.957031 35.726562 5.894531 35.632812 5.503906 C 35.496094 4.925781 36.9375 3.847656 38.925781 3.191406 C 38.679688 3.070312 38.429688 2.953125 38.183594 2.839844 C 42.203125 4.660156 45.574219 7.308594 48.296875 10.777344 Z M 47.835938 44.835938 C 45.183594 48.035156 41.960938 50.492188 38.175781 52.203125 C 28.929688 56.398438 18.570312 54.972656 10.925781 49.371094 C 14.238281 45.574219 22.808594 41.246094 23.253906 40.882812 C 30.695312 34.851562 35.742188 23.699219 38.191406 24.636719 C 39.289062 25.054688 39.582031 27.238281 39.410156 28.925781 C 41.015625 27.152344 42.515625 25.398438 43.902344 23.679688 C 43.996094 23.058594 44.125 22.410156 44.296875 21.726562 C 45.597656 16.554688 48.007812 13.84375 49.457031 13.320312 C 49.625 13.261719 49.796875 13.210938 49.972656 13.167969 C 50.601562 14.179688 51.164062 15.230469 51.65625 16.320312 C 52.664062 18.53125 53.359375 20.835938 53.746094 23.234375 C 54.128906 25.636719 54.1875 28.042969 53.921875 30.457031 C 52.550781 32.179688 50.953125 34.050781 49.15625 36.074219 C 46.695312 38.839844 43.410156 42.523438 44.394531 44.125 C 44.910156 44.964844 46.476562 44.996094 47.835938 44.835938 Z M 42.777344 35.46875 C 41.855469 36.445312 40.914062 37.421875 39.945312 38.398438 C 35.996094 42.363281 31.992188 45.929688 28.085938 49.019531 C 29.308594 48.988281 30.609375 48.796875 31.800781 48.433594 C 37.789062 46.609375 41.417969 40.410156 42.777344 35.46875 Z M 36.425781 2.113281 C 33.804688 3.859375 28.851562 5.792969 26.710938 7.234375 C 20.070312 11.703125 16.007812 17.363281 16.570312 18.039062 C 17.039062 18.605469 22.773438 14.890625 27.648438 13.015625 C 33.875 10.617188 39.542969 9.160156 41.003906 11.160156 C 42.199219 12.789062 40.148438 16.234375 36.632812 21.453125 C 32.828125 27.105469 28.402344 30.839844 21.347656 35.753906 C 18.308594 37.871094 15.390625 39.570312 12.550781 41.769531 C 11.136719 42.863281 9.1875 44.648438 7.382812 46.265625 C 6.570312 45.414062 5.816406 44.515625 5.121094 43.566406 C 5.75 42.554688 6.476562 41.496094 7.28125 40.449219 C 14.933594 30.472656 24.550781 28.8125 32.417969 18.421875 C 33.921875 16.433594 34.890625 14.847656 34.457031 14.339844 C 33.160156 12.824219 18.785156 20.308594 9.628906 28.65625 C 8.667969 29.535156 6.285156 31.96875 5.265625 31.375 C 4.335938 30.828125 4.984375 28.015625 5.355469 26.703125 C 6.832031 21.511719 11.859375 17.804688 12.113281 12.386719 C 12.179688 10.945312 11.992188 10.132812 11.519531 9.917969 C 9.578125 9.039062 4.34375 18.9375 0.542969 21.503906 C 2.363281 13.53125 7.753906 6.476562 15.773438 2.835938 C 15.972656 2.746094 16.167969 2.660156 16.367188 2.574219 C 17.824219 5.128906 16.238281 10.402344 17.234375 10.691406 C 18.308594 11.003906 20.257812 4.886719 23.8125 0.59375 C 28.140625 0.0859375 32.34375 0.59375 36.425781 2.113281 Z M 36.425781 2.113281 " fill-opacity="1" fill-rule="evenodd"/></g></g></g></g><g mask="url(#ebcec5e09a)"><g transform="matrix(1, 0, 0, 1, 827, 82)"><g clip-path="url(#9a8eeac27c)"><g clip-path="url(#676e40077b)"><path fill="#000000" d="M 0.375 4.644531 C 11.453125 -2.449219 26.351562 -0.585938 35.308594 9.601562 C 45.191406 20.847656 44.097656 37.980469 32.859375 47.867188 C 30.378906 50.054688 27.589844 51.730469 24.496094 52.890625 C 25.664062 52.144531 26.769531 51.3125 27.8125 50.394531 C 39.050781 40.507812 40.144531 23.375 30.261719 12.128906 C 22.605469 3.421875 10.613281 0.796875 0.375 4.644531 Z M 0.375 4.644531 " fill-opacity="1" fill-rule="evenodd"/></g></g></g></g><g mask="url(#5e88a06f7b)"><g transform="matrix(1, 0, 0, 1, 817, 95)"><g clip-path="url(#190049b9dc)"><g clip-path="url(#c1e6afca0c)"><path fill="#ffffff" d="M 0.859375 9.324219 C 2.253906 3.699219 5.839844 -0.25 8.871094 0.503906 C 11.898438 1.253906 13.222656 6.421875 11.828125 12.042969 C 10.4375 17.664062 6.847656 21.613281 3.820312 20.863281 C 0.789062 20.113281 -0.535156 14.945312 0.859375 9.324219 Z M 0.859375 9.324219 " fill-opacity="1" fill-rule="evenodd"/></g></g></g></g><path fill="#cb6ce6" d="M 856.042969 121.273438 C 838.792969 138.613281 820.355469 148.238281 814.863281 142.773438 C 811.742188 139.667969 813.476562 132.363281 818.714844 123.449219 C 819.152344 124.175781 819.613281 124.875 820.109375 125.550781 C 817.4375 130.671875 816.804688 134.507812 818.816406 135.957031 C 823.117188 139.058594 837.875 130.09375 851.773438 115.933594 C 865.675781 101.773438 873.457031 87.785156 869.160156 84.6875 C 867.175781 83.257812 862.976562 84.390625 857.664062 87.414062 C 856.832031 86.824219 855.96875 86.28125 855.074219 85.789062 C 865.277344 79.09375 873.878906 76.542969 877.339844 79.988281 C 882.828125 85.453125 873.296875 103.9375 856.042969 121.273438 Z M 856.042969 121.273438 " fill-opacity="1" fill-rule="evenodd"/><g mask="url(#d92327c532)"><g transform="matrix(1, 0, 0, 1, 813, 78)"><g clip-path="url(#b90839e698)"><g clip-path="url(#a9e5adc177)"><path fill="#000000" d="M 43.042969 43.273438 C 25.792969 60.613281 7.355469 70.238281 1.863281 64.773438 C -1.257812 61.667969 0.476562 54.363281 5.714844 45.449219 C 6.152344 46.175781 6.613281 46.875 7.109375 47.550781 C 4.4375 52.671875 3.804688 56.507812 5.816406 57.957031 C 10.117188 61.058594 24.875 52.09375 38.773438 37.933594 C 52.675781 23.773438 60.457031 9.785156 56.160156 6.6875 C 54.175781 5.257812 49.976562 6.390625 44.664062 9.414062 C 43.832031 8.824219 42.96875 8.28125 42.074219 7.789062 C 52.277344 1.09375 60.878906 -1.457031 64.339844 1.988281 C 69.828125 7.453125 60.296875 25.9375 43.042969 43.273438 Z M 43.042969 43.273438 " fill-opacity="1" fill-rule="evenodd"/></g></g></g></g><path fill="#cb6ce6" d="M 854.945312 120.398438 C 837.394531 138.035156 818.640625 147.824219 813.054688 142.265625 C 809.75 138.980469 811.796875 131.054688 817.648438 121.480469 C 818.039062 122.273438 818.460938 123.035156 818.914062 123.773438 C 815.765625 129.46875 814.902344 133.765625 817.078125 135.332031 C 821.449219 138.484375 836.460938 129.367188 850.601562 114.964844 C 864.742188 100.5625 872.660156 86.328125 868.285156 83.175781 C 866.195312 81.667969 861.671875 82.96875 855.976562 86.308594 C 855.066406 85.757812 854.125 85.265625 853.15625 84.828125 C 863.886719 77.628906 872.996094 74.808594 876.605469 78.398438 C 882.191406 83.957031 872.492188 102.761719 854.945312 120.398438 Z M 854.945312 120.398438 " fill-opacity="1" fill-rule="evenodd"/><g mask="url(#73b17d1e1d)"><g transform="matrix(1, 0, 0, 1, 814, 80)"><g clip-path="url(#4b4235c787)"><g clip-path="url(#7f4cf0d042)"><path fill="#ffffff" d="M 38.238281 37.679688 C 22.902344 53.429688 6.492188 62.863281 1.589844 58.757812 C -1.109375 56.496094 0.234375 50.613281 4.542969 43.15625 C 4.550781 43.171875 4.5625 43.183594 4.570312 43.199219 C 4.585938 43.230469 4.605469 43.257812 4.621094 43.285156 C 4.707031 43.429688 4.792969 43.574219 4.882812 43.722656 L 4.914062 43.773438 C 1.765625 49.46875 0.902344 53.769531 3.078125 55.335938 C 7.449219 58.488281 22.460938 49.367188 36.601562 34.964844 C 50.742188 20.5625 58.660156 6.328125 54.285156 3.175781 C 52.195312 1.671875 47.671875 2.96875 41.976562 6.308594 C 41.925781 6.277344 41.875 6.25 41.828125 6.222656 C 41.71875 6.15625 41.609375 6.09375 41.5 6.03125 C 41.386719 5.964844 41.285156 5.910156 41.179688 5.847656 C 41.148438 5.832031 41.117188 5.816406 41.085938 5.796875 C 48.472656 1.246094 54.480469 -0.488281 57.132812 1.730469 C 62.035156 5.839844 53.578125 21.933594 38.238281 37.679688 Z M 38.238281 37.679688 " fill-opacity="1" fill-rule="evenodd"/></g></g></g></g></svg>